G04 #@! TF.GenerationSoftware,KiCad,Pcbnew,9.0.4*
G04 #@! TF.CreationDate,2025-09-11T10:43:24+07:00*
G04 #@! TF.ProjectId,BreakoutBoard,42726561-6b6f-4757-9442-6f6172642e6b,rev?*
G04 #@! TF.SameCoordinates,Original*
G04 #@! TF.FileFunction,Copper,L4,Bot*
G04 #@! TF.FilePolarity,Positive*
%FSLAX46Y46*%
G04 Gerber Fmt 4.6, Leading zero omitted, Abs format (unit mm)*
G04 Created by KiCad (PCBNEW 9.0.4) date 2025-09-11 10:43:24*
%MOMM*%
%LPD*%
G01*
G04 APERTURE LIST*
G04 #@! TA.AperFunction,ComponentPad*
%ADD10C,6.400000*%
G04 #@! TD*
G04 #@! TA.AperFunction,ComponentPad*
%ADD11O,3.000000X1.500000*%
G04 #@! TD*
G04 #@! TA.AperFunction,ComponentPad*
%ADD12C,1.524000*%
G04 #@! TD*
G04 #@! TA.AperFunction,ComponentPad*
%ADD13R,1.700000X1.700000*%
G04 #@! TD*
G04 #@! TA.AperFunction,ComponentPad*
%ADD14C,1.700000*%
G04 #@! TD*
G04 #@! TA.AperFunction,ComponentPad*
%ADD15R,2.400000X2.400000*%
G04 #@! TD*
G04 #@! TA.AperFunction,ComponentPad*
%ADD16C,2.400000*%
G04 #@! TD*
G04 #@! TA.AperFunction,Conductor*
%ADD17C,0.200000*%
G04 #@! TD*
G04 #@! TA.AperFunction,Conductor*
%ADD18C,0.600000*%
G04 #@! TD*
G04 APERTURE END LIST*
D10*
X129000000Y-49500000D03*
X159000000Y-49500000D03*
X129000000Y-104500000D03*
D11*
X186718400Y-80747600D03*
X186718400Y-68047600D03*
X186718400Y-83287600D03*
X186718400Y-70587600D03*
X186718400Y-73127600D03*
X186718400Y-65507600D03*
X186718400Y-78207600D03*
X186718400Y-75667600D03*
D12*
X147570000Y-50640000D03*
X147570000Y-53180000D03*
X147570000Y-55720000D03*
X147570000Y-58260000D03*
X147570000Y-60800000D03*
X147570000Y-63340000D03*
X147570000Y-65880000D03*
X147570000Y-68420000D03*
X147570000Y-70960000D03*
X147570000Y-73500000D03*
X147570000Y-76040000D03*
X147570000Y-78580000D03*
X147570000Y-81120000D03*
X147570000Y-83660000D03*
X147570000Y-86200000D03*
X147570000Y-88740000D03*
X147570000Y-91280000D03*
X147570000Y-93820000D03*
X147570000Y-96360000D03*
X170430000Y-50640000D03*
X170430000Y-53180000D03*
X170430000Y-55720000D03*
X170430000Y-58260000D03*
X170430000Y-60800000D03*
X170430000Y-63340000D03*
X170430000Y-65880000D03*
X170430000Y-68420000D03*
X170430000Y-70960000D03*
X170430000Y-73500000D03*
X170430000Y-76040000D03*
X170430000Y-78580000D03*
X170430000Y-81120000D03*
X170430000Y-83660000D03*
X170430000Y-86200000D03*
X170430000Y-88740000D03*
X170430000Y-91280000D03*
X170430000Y-93820000D03*
X170430000Y-96360000D03*
D13*
X178300000Y-50000000D03*
D14*
X180840000Y-50000000D03*
X183380000Y-50000000D03*
X185920000Y-50000000D03*
X188460000Y-50000000D03*
X191000000Y-50000000D03*
X193540000Y-50000000D03*
X196080000Y-50000000D03*
D15*
X101920000Y-52000000D03*
D16*
X107000000Y-52000000D03*
D13*
X143040000Y-102500000D03*
D14*
X140500000Y-102500000D03*
D15*
X180000000Y-100000000D03*
D16*
X185080000Y-100000000D03*
X190160000Y-100000000D03*
X195240000Y-100000000D03*
D10*
X159000000Y-104500000D03*
D15*
X99760000Y-100000000D03*
D16*
X104840000Y-100000000D03*
X109920000Y-100000000D03*
X115000000Y-100000000D03*
D17*
X152800000Y-43200000D02*
X150000000Y-46000000D01*
X176580000Y-43200000D02*
X152800000Y-43200000D01*
X148840000Y-70960000D02*
X147570000Y-70960000D01*
X183380000Y-50000000D02*
X176580000Y-43200000D01*
X150000000Y-46000000D02*
X150000000Y-69800000D01*
X150000000Y-69800000D02*
X148840000Y-70960000D01*
X143800000Y-46300000D02*
X143800000Y-74800000D01*
X150100000Y-40000000D02*
X143800000Y-46300000D01*
X143800000Y-74800000D02*
X147570000Y-78570000D01*
X181000000Y-40000000D02*
X150100000Y-40000000D01*
X191000000Y-50000000D02*
X181000000Y-40000000D01*
X147570000Y-78570000D02*
X147570000Y-78580000D01*
X144600000Y-47321428D02*
X144600000Y-73070000D01*
X150921428Y-41000000D02*
X144600000Y-47321428D01*
X179460000Y-41000000D02*
X150921428Y-41000000D01*
X188460000Y-50000000D02*
X179460000Y-41000000D01*
X144600000Y-73070000D02*
X147570000Y-76040000D01*
X145400000Y-71330000D02*
X147570000Y-73500000D01*
X145400000Y-48200000D02*
X145400000Y-71330000D01*
X151600000Y-42000000D02*
X145400000Y-48200000D01*
X177920000Y-42000000D02*
X151600000Y-42000000D01*
X185920000Y-50000000D02*
X177920000Y-42000000D01*
D18*
X180000000Y-100000000D02*
X180000000Y-66080000D01*
X180000000Y-66080000D02*
X196080000Y-50000000D01*
D17*
X104840000Y-100000000D02*
X101240000Y-96400000D01*
X95800000Y-98400000D02*
X95800000Y-101100000D01*
X101240000Y-96400000D02*
X97800000Y-96400000D01*
X97800000Y-96400000D02*
X95800000Y-98400000D01*
X154000000Y-100200000D02*
X154000000Y-82600000D01*
X143200000Y-111000000D02*
X154000000Y-100200000D01*
X154000000Y-82600000D02*
X165640000Y-70960000D01*
X165640000Y-70960000D02*
X170430000Y-70960000D01*
X95800000Y-101100000D02*
X105700000Y-111000000D01*
X105700000Y-111000000D02*
X143200000Y-111000000D01*
X165180000Y-68420000D02*
X170430000Y-68420000D01*
X152300000Y-81300000D02*
X165180000Y-68420000D01*
X152300000Y-100000000D02*
X152300000Y-81300000D01*
X142600000Y-109700000D02*
X152300000Y-100000000D01*
X99760000Y-100000000D02*
X109460000Y-109700000D01*
X109460000Y-109700000D02*
X142600000Y-109700000D01*
G04 #@! TA.AperFunction,Conductor*
G36*
X185697789Y-35520185D02*
G01*
X185739401Y-35564742D01*
X191025929Y-45176611D01*
X191025929Y-45176612D01*
X191032242Y-45188091D01*
X191033608Y-45193186D01*
X191063927Y-45245702D01*
X191064534Y-45246804D01*
X191064561Y-45246852D01*
X191093208Y-45298936D01*
X191095949Y-45302666D01*
X191096043Y-45302809D01*
X191096679Y-45303638D01*
X191096681Y-45303641D01*
X191099500Y-45307315D01*
X191141480Y-45349294D01*
X191143281Y-45351132D01*
X191184440Y-45394036D01*
X191184445Y-45394039D01*
X191188047Y-45396924D01*
X191188049Y-45396926D01*
X191188876Y-45397588D01*
X191189022Y-45397688D01*
X191192682Y-45400496D01*
X191192686Y-45400500D01*
X191245246Y-45430845D01*
X191297176Y-45462282D01*
X191302243Y-45463753D01*
X191306814Y-45466392D01*
X191365441Y-45482100D01*
X191423735Y-45499025D01*
X191429009Y-45499133D01*
X191434107Y-45500500D01*
X191434108Y-45500500D01*
X191493518Y-45500500D01*
X191496092Y-45500527D01*
X191555487Y-45501760D01*
X191555487Y-45501759D01*
X191555490Y-45501760D01*
X191555492Y-45501759D01*
X191560082Y-45501252D01*
X191573716Y-45500500D01*
X201234108Y-45500500D01*
X201295125Y-45500500D01*
X201304853Y-45500881D01*
X201477919Y-45514502D01*
X201497128Y-45517545D01*
X201661183Y-45556931D01*
X201679675Y-45562940D01*
X201805347Y-45614994D01*
X201835547Y-45627504D01*
X201852884Y-45636338D01*
X201996725Y-45724484D01*
X202012466Y-45735920D01*
X202140753Y-45845486D01*
X202154513Y-45859246D01*
X202264079Y-45987533D01*
X202275515Y-46003274D01*
X202363661Y-46147115D01*
X202372495Y-46164452D01*
X202437057Y-46320317D01*
X202443070Y-46338823D01*
X202482453Y-46502866D01*
X202485497Y-46522084D01*
X202499118Y-46695146D01*
X202499500Y-46704875D01*
X202499500Y-107295124D01*
X202499118Y-107304853D01*
X202485497Y-107477915D01*
X202482453Y-107497133D01*
X202443070Y-107661176D01*
X202437057Y-107679682D01*
X202372495Y-107835547D01*
X202363661Y-107852884D01*
X202275515Y-107996725D01*
X202264079Y-108012466D01*
X202154513Y-108140753D01*
X202140753Y-108154513D01*
X202012466Y-108264079D01*
X201996725Y-108275515D01*
X201852884Y-108363661D01*
X201835547Y-108372495D01*
X201679682Y-108437057D01*
X201661176Y-108443070D01*
X201497133Y-108482453D01*
X201477915Y-108485497D01*
X201304854Y-108499118D01*
X201295125Y-108499500D01*
X190565810Y-108499500D01*
X190565732Y-108499479D01*
X190499840Y-108499500D01*
X190434100Y-108499500D01*
X190433947Y-108499521D01*
X190370250Y-108516610D01*
X190370214Y-108516619D01*
X190306803Y-108533610D01*
X190306678Y-108533661D01*
X190249664Y-108566601D01*
X190249516Y-108566688D01*
X190192686Y-108599500D01*
X190192628Y-108599557D01*
X190192557Y-108599599D01*
X190192364Y-108599791D01*
X190192364Y-108599792D01*
X190146057Y-108646125D01*
X190146058Y-108646126D01*
X190145955Y-108646229D01*
X190145953Y-108646232D01*
X190145643Y-108646541D01*
X190145226Y-108646958D01*
X190099500Y-108692686D01*
X190099459Y-108692756D01*
X190099402Y-108692814D01*
X190099291Y-108693005D01*
X190099289Y-108693008D01*
X190066982Y-108749006D01*
X190066964Y-108749037D01*
X190029758Y-108813482D01*
X190029596Y-108813808D01*
X184477487Y-118437466D01*
X184426935Y-118485697D01*
X184370080Y-118499500D01*
X105629920Y-118499500D01*
X105562881Y-118479815D01*
X105522513Y-118437466D01*
X99966413Y-108806894D01*
X99966392Y-108806814D01*
X99933039Y-108749045D01*
X99933016Y-108749006D01*
X99900599Y-108692816D01*
X99900598Y-108692814D01*
X99900595Y-108692811D01*
X99900558Y-108692762D01*
X99900500Y-108692686D01*
X99853994Y-108646180D01*
X99807443Y-108599599D01*
X99807371Y-108599557D01*
X99807314Y-108599500D01*
X99750482Y-108566687D01*
X99750486Y-108566679D01*
X99750451Y-108566669D01*
X99693336Y-108533670D01*
X99693333Y-108533669D01*
X99693328Y-108533666D01*
X99693197Y-108533611D01*
X99629786Y-108516620D01*
X99629749Y-108516610D01*
X99566046Y-108499519D01*
X99565905Y-108499500D01*
X99565892Y-108499500D01*
X99500160Y-108499500D01*
X99434268Y-108499479D01*
X99434190Y-108499500D01*
X94704875Y-108499500D01*
X94695146Y-108499118D01*
X94522084Y-108485497D01*
X94502866Y-108482453D01*
X94338823Y-108443070D01*
X94320317Y-108437057D01*
X94164452Y-108372495D01*
X94147115Y-108363661D01*
X94003274Y-108275515D01*
X93987533Y-108264079D01*
X93859246Y-108154513D01*
X93845486Y-108140753D01*
X93735920Y-108012466D01*
X93724484Y-107996725D01*
X93636338Y-107852884D01*
X93627504Y-107835547D01*
X93614994Y-107805347D01*
X93562940Y-107679675D01*
X93556931Y-107661183D01*
X93517545Y-107497128D01*
X93514502Y-107477915D01*
X93514340Y-107475859D01*
X93500882Y-107304853D01*
X93500500Y-107295124D01*
X93500500Y-101179054D01*
X95199498Y-101179054D01*
X95206773Y-101206204D01*
X95240423Y-101331785D01*
X95248023Y-101344949D01*
X95269358Y-101381900D01*
X95269359Y-101381904D01*
X95269360Y-101381904D01*
X95319479Y-101468714D01*
X95319481Y-101468717D01*
X95438349Y-101587585D01*
X95438355Y-101587590D01*
X105215139Y-111364374D01*
X105215149Y-111364385D01*
X105219479Y-111368715D01*
X105219480Y-111368716D01*
X105331284Y-111480520D01*
X105418095Y-111530639D01*
X105418097Y-111530641D01*
X105468213Y-111559576D01*
X105468215Y-111559577D01*
X105620942Y-111600500D01*
X105620943Y-111600500D01*
X143113331Y-111600500D01*
X143113347Y-111600501D01*
X143120943Y-111600501D01*
X143279054Y-111600501D01*
X143279057Y-111600501D01*
X143431785Y-111559577D01*
X143481904Y-111530639D01*
X143568716Y-111480520D01*
X143680520Y-111368716D01*
X143680520Y-111368714D01*
X143690728Y-111358507D01*
X143690730Y-111358504D01*
X150731025Y-104318209D01*
X155299500Y-104318209D01*
X155299500Y-104681790D01*
X155335137Y-105043630D01*
X155406064Y-105400212D01*
X155406067Y-105400223D01*
X155511614Y-105748165D01*
X155650754Y-106084078D01*
X155650756Y-106084083D01*
X155822140Y-106404720D01*
X155822151Y-106404738D01*
X156024140Y-106707035D01*
X156024150Y-106707049D01*
X156254807Y-106988106D01*
X156511893Y-107245192D01*
X156511898Y-107245196D01*
X156511899Y-107245197D01*
X156792956Y-107475854D01*
X157095268Y-107677853D01*
X157095277Y-107677858D01*
X157095279Y-107677859D01*
X157415916Y-107849243D01*
X157415918Y-107849243D01*
X157415924Y-107849247D01*
X157751836Y-107988386D01*
X158099767Y-108093930D01*
X158099773Y-108093931D01*
X158099776Y-108093932D01*
X158099787Y-108093935D01*
X158456369Y-108164862D01*
X158818206Y-108200500D01*
X158818209Y-108200500D01*
X159181791Y-108200500D01*
X159181794Y-108200500D01*
X159543631Y-108164862D01*
X159627523Y-108148175D01*
X159900212Y-108093935D01*
X159900223Y-108093932D01*
X159900223Y-108093931D01*
X159900233Y-108093930D01*
X160248164Y-107988386D01*
X160584076Y-107849247D01*
X160904732Y-107677853D01*
X161207044Y-107475854D01*
X161488101Y-107245197D01*
X161745197Y-106988101D01*
X161975854Y-106707044D01*
X162177853Y-106404732D01*
X162349247Y-106084076D01*
X162488386Y-105748164D01*
X162593930Y-105400233D01*
X162593932Y-105400223D01*
X162593935Y-105400212D01*
X162664862Y-105043630D01*
X162700500Y-104681790D01*
X162700500Y-104318209D01*
X162664862Y-103956369D01*
X162593935Y-103599787D01*
X162593932Y-103599776D01*
X162593931Y-103599773D01*
X162593930Y-103599767D01*
X162488386Y-103251836D01*
X162349247Y-102915924D01*
X162295966Y-102816243D01*
X162177859Y-102595279D01*
X162177858Y-102595277D01*
X162177853Y-102595268D01*
X161975854Y-102292956D01*
X161745197Y-102011899D01*
X161745196Y-102011898D01*
X161745192Y-102011893D01*
X161488106Y-101754807D01*
X161207049Y-101524150D01*
X161207048Y-101524149D01*
X161207044Y-101524146D01*
X160970295Y-101365955D01*
X160904738Y-101322151D01*
X160904737Y-101322150D01*
X160904732Y-101322147D01*
X160904727Y-101322144D01*
X160904720Y-101322140D01*
X160584083Y-101150756D01*
X160584078Y-101150754D01*
X160248165Y-101011614D01*
X159900223Y-100906067D01*
X159900212Y-100906064D01*
X159543630Y-100835137D01*
X159271111Y-100808296D01*
X159181794Y-100799500D01*
X158818206Y-100799500D01*
X158735679Y-100807628D01*
X158456369Y-100835137D01*
X158099787Y-100906064D01*
X158099776Y-100906067D01*
X157751834Y-101011614D01*
X157415921Y-101150754D01*
X157415916Y-101150756D01*
X157095279Y-101322140D01*
X157095261Y-101322151D01*
X156792964Y-101524140D01*
X156792950Y-101524150D01*
X156511893Y-101754807D01*
X156254807Y-102011893D01*
X156024150Y-102292950D01*
X156024140Y-102292964D01*
X155822151Y-102595261D01*
X155822140Y-102595279D01*
X155650756Y-102915916D01*
X155650754Y-102915921D01*
X155511614Y-103251834D01*
X155406067Y-103599776D01*
X155406064Y-103599787D01*
X155335137Y-103956369D01*
X155299500Y-104318209D01*
X150731025Y-104318209D01*
X154358506Y-100690728D01*
X154358511Y-100690724D01*
X154368714Y-100680520D01*
X154368716Y-100680520D01*
X154480520Y-100568716D01*
X154559577Y-100431784D01*
X154589534Y-100319981D01*
X154600500Y-100279058D01*
X154600500Y-100120943D01*
X154600500Y-82900097D01*
X154620185Y-82833058D01*
X154636819Y-82812416D01*
X165852416Y-71596819D01*
X165913739Y-71563334D01*
X165940097Y-71560500D01*
X169243270Y-71560500D01*
X169310309Y-71580185D01*
X169347191Y-71617866D01*
X169347349Y-71617752D01*
X169348127Y-71618823D01*
X169349000Y-71619715D01*
X169350210Y-71621690D01*
X169350213Y-71621694D01*
X169467019Y-71782464D01*
X169607536Y-71922981D01*
X169768306Y-72039787D01*
X169871708Y-72092473D01*
X169924780Y-72119515D01*
X169975576Y-72167490D01*
X169992371Y-72235311D01*
X169969833Y-72301446D01*
X169924780Y-72340485D01*
X169768305Y-72420213D01*
X169607533Y-72537021D01*
X169467021Y-72677533D01*
X169350213Y-72838305D01*
X169259994Y-73015367D01*
X169259993Y-73015370D01*
X169198587Y-73204362D01*
X169167500Y-73400639D01*
X169167500Y-73599360D01*
X169198587Y-73795637D01*
X169259993Y-73984629D01*
X169259994Y-73984632D01*
X169309315Y-74081428D01*
X169350213Y-74161694D01*
X169467019Y-74322464D01*
X169607536Y-74462981D01*
X169768306Y-74579787D01*
X169871708Y-74632473D01*
X169924780Y-74659515D01*
X169975576Y-74707490D01*
X169992371Y-74775311D01*
X169969833Y-74841446D01*
X169924780Y-74880485D01*
X169768305Y-74960213D01*
X169607533Y-75077021D01*
X169467021Y-75217533D01*
X169350213Y-75378305D01*
X169259994Y-75555367D01*
X169259993Y-75555370D01*
X169198587Y-75744362D01*
X169167500Y-75940639D01*
X169167500Y-76139360D01*
X169198587Y-76335637D01*
X169259993Y-76524629D01*
X169259994Y-76524632D01*
X169309315Y-76621428D01*
X169350213Y-76701694D01*
X169467019Y-76862464D01*
X169607536Y-77002981D01*
X169768306Y-77119787D01*
X169886832Y-77180179D01*
X169924780Y-77199515D01*
X169975576Y-77247490D01*
X169992371Y-77315311D01*
X169969833Y-77381446D01*
X169924780Y-77420485D01*
X169768305Y-77500213D01*
X169607533Y-77617021D01*
X169467021Y-77757533D01*
X169350213Y-77918305D01*
X169259994Y-78095367D01*
X169259993Y-78095370D01*
X169198587Y-78284362D01*
X169167500Y-78480639D01*
X169167500Y-78679360D01*
X169198587Y-78875637D01*
X169259993Y-79064629D01*
X169259994Y-79064632D01*
X169309315Y-79161428D01*
X169350213Y-79241694D01*
X169467019Y-79402464D01*
X169607536Y-79542981D01*
X169768306Y-79659787D01*
X169886832Y-79720179D01*
X169924780Y-79739515D01*
X169975576Y-79787490D01*
X169992371Y-79855311D01*
X169969833Y-79921446D01*
X169924780Y-79960485D01*
X169768305Y-80040213D01*
X169607533Y-80157021D01*
X169467021Y-80297533D01*
X169350213Y-80458305D01*
X169259994Y-80635367D01*
X169259993Y-80635370D01*
X169198587Y-80824362D01*
X169167500Y-81020639D01*
X169167500Y-81219360D01*
X169198587Y-81415637D01*
X169259993Y-81604629D01*
X169259994Y-81604632D01*
X169309315Y-81701428D01*
X169350213Y-81781694D01*
X169467019Y-81942464D01*
X169607536Y-82082981D01*
X169768306Y-82199787D01*
X169886832Y-82260179D01*
X169924780Y-82279515D01*
X169975576Y-82327490D01*
X169992371Y-82395311D01*
X169969833Y-82461446D01*
X169924780Y-82500485D01*
X169768305Y-82580213D01*
X169607533Y-82697021D01*
X169467021Y-82837533D01*
X169350213Y-82998305D01*
X169259994Y-83175367D01*
X169259993Y-83175370D01*
X169198587Y-83364362D01*
X169167500Y-83560639D01*
X169167500Y-83759360D01*
X169198587Y-83955637D01*
X169259993Y-84144629D01*
X169259994Y-84144632D01*
X169309315Y-84241428D01*
X169350213Y-84321694D01*
X169467019Y-84482464D01*
X169607536Y-84622981D01*
X169768306Y-84739787D01*
X169886832Y-84800179D01*
X169924780Y-84819515D01*
X169975576Y-84867490D01*
X169992371Y-84935311D01*
X169969833Y-85001446D01*
X169924780Y-85040485D01*
X169768305Y-85120213D01*
X169607533Y-85237021D01*
X169467021Y-85377533D01*
X169350213Y-85538305D01*
X169259994Y-85715367D01*
X169259993Y-85715370D01*
X169198587Y-85904362D01*
X169167500Y-86100639D01*
X169167500Y-86299360D01*
X169198587Y-86495637D01*
X169259993Y-86684629D01*
X169259994Y-86684632D01*
X169350213Y-86861694D01*
X169467019Y-87022464D01*
X169607536Y-87162981D01*
X169768306Y-87279787D01*
X169886832Y-87340179D01*
X169924780Y-87359515D01*
X169975576Y-87407490D01*
X169992371Y-87475311D01*
X169969833Y-87541446D01*
X169924780Y-87580485D01*
X169768305Y-87660213D01*
X169607533Y-87777021D01*
X169467021Y-87917533D01*
X169350213Y-88078305D01*
X169259994Y-88255367D01*
X169259993Y-88255370D01*
X169198587Y-88444362D01*
X169167500Y-88640639D01*
X169167500Y-88839360D01*
X169198587Y-89035637D01*
X169259993Y-89224629D01*
X169259994Y-89224632D01*
X169350213Y-89401694D01*
X169467019Y-89562464D01*
X169607536Y-89702981D01*
X169768306Y-89819787D01*
X169886832Y-89880179D01*
X169924780Y-89899515D01*
X169975576Y-89947490D01*
X169992371Y-90015311D01*
X169969833Y-90081446D01*
X169924780Y-90120485D01*
X169768305Y-90200213D01*
X169607533Y-90317021D01*
X169467021Y-90457533D01*
X169350213Y-90618305D01*
X169259994Y-90795367D01*
X169259993Y-90795370D01*
X169198587Y-90984362D01*
X169167500Y-91180639D01*
X169167500Y-91379360D01*
X169198587Y-91575637D01*
X169259993Y-91764629D01*
X169259994Y-91764632D01*
X169350213Y-91941694D01*
X169467019Y-92102464D01*
X169607536Y-92242981D01*
X169768306Y-92359787D01*
X169886832Y-92420179D01*
X169924780Y-92439515D01*
X169975576Y-92487490D01*
X169992371Y-92555311D01*
X169969833Y-92621446D01*
X169924780Y-92660485D01*
X169768305Y-92740213D01*
X169607533Y-92857021D01*
X169467021Y-92997533D01*
X169350213Y-93158305D01*
X169259994Y-93335367D01*
X169259993Y-93335370D01*
X169198587Y-93524362D01*
X169167500Y-93720639D01*
X169167500Y-93919360D01*
X169198587Y-94115637D01*
X169259993Y-94304629D01*
X169259994Y-94304632D01*
X169350213Y-94481694D01*
X169467019Y-94642464D01*
X169607536Y-94782981D01*
X169768306Y-94899787D01*
X169886832Y-94960179D01*
X169924780Y-94979515D01*
X169975576Y-95027490D01*
X169992371Y-95095311D01*
X169969833Y-95161446D01*
X169924780Y-95200485D01*
X169768305Y-95280213D01*
X169607533Y-95397021D01*
X169467021Y-95537533D01*
X169350213Y-95698305D01*
X169259994Y-95875367D01*
X169259993Y-95875370D01*
X169198587Y-96064362D01*
X169167500Y-96260639D01*
X169167500Y-96459360D01*
X169198587Y-96655637D01*
X169259993Y-96844629D01*
X169259994Y-96844632D01*
X169339414Y-97000500D01*
X169350213Y-97021694D01*
X169467019Y-97182464D01*
X169607536Y-97322981D01*
X169768306Y-97439787D01*
X169855149Y-97484035D01*
X169945367Y-97530005D01*
X169945370Y-97530006D01*
X170039866Y-97560709D01*
X170134364Y-97591413D01*
X170330639Y-97622500D01*
X170330640Y-97622500D01*
X170529360Y-97622500D01*
X170529361Y-97622500D01*
X170725636Y-97591413D01*
X170914632Y-97530005D01*
X171091694Y-97439787D01*
X171252464Y-97322981D01*
X171392981Y-97182464D01*
X171509787Y-97021694D01*
X171600005Y-96844632D01*
X171661413Y-96655636D01*
X171692500Y-96459361D01*
X171692500Y-96260639D01*
X171661413Y-96064364D01*
X171614338Y-95919480D01*
X171600006Y-95875370D01*
X171600005Y-95875367D01*
X171509786Y-95698305D01*
X171392981Y-95537536D01*
X171252464Y-95397019D01*
X171091694Y-95280213D01*
X170935218Y-95200484D01*
X170884423Y-95152510D01*
X170867628Y-95084689D01*
X170890165Y-95018554D01*
X170935218Y-94979515D01*
X171091694Y-94899787D01*
X171252464Y-94782981D01*
X171392981Y-94642464D01*
X171509787Y-94481694D01*
X171600005Y-94304632D01*
X171661413Y-94115636D01*
X171692500Y-93919361D01*
X171692500Y-93720639D01*
X171661413Y-93524364D01*
X171600005Y-93335368D01*
X171600005Y-93335367D01*
X171509786Y-93158305D01*
X171392981Y-92997536D01*
X171252464Y-92857019D01*
X171091694Y-92740213D01*
X170935218Y-92660484D01*
X170884423Y-92612510D01*
X170867628Y-92544689D01*
X170890165Y-92478554D01*
X170935218Y-92439515D01*
X171091694Y-92359787D01*
X171252464Y-92242981D01*
X171392981Y-92102464D01*
X171509787Y-91941694D01*
X171600005Y-91764632D01*
X171661413Y-91575636D01*
X171692500Y-91379361D01*
X171692500Y-91180639D01*
X171661413Y-90984364D01*
X171600005Y-90795368D01*
X171600005Y-90795367D01*
X171509786Y-90618305D01*
X171392981Y-90457536D01*
X171252464Y-90317019D01*
X171091694Y-90200213D01*
X170935218Y-90120484D01*
X170884423Y-90072510D01*
X170867628Y-90004689D01*
X170890165Y-89938554D01*
X170935218Y-89899515D01*
X171091694Y-89819787D01*
X171252464Y-89702981D01*
X171392981Y-89562464D01*
X171509787Y-89401694D01*
X171600005Y-89224632D01*
X171661413Y-89035636D01*
X171692500Y-88839361D01*
X171692500Y-88640639D01*
X171661413Y-88444364D01*
X171600005Y-88255368D01*
X171600005Y-88255367D01*
X171509786Y-88078305D01*
X171392981Y-87917536D01*
X171252464Y-87777019D01*
X171091694Y-87660213D01*
X170935218Y-87580484D01*
X170884423Y-87532510D01*
X170867628Y-87464689D01*
X170890165Y-87398554D01*
X170935218Y-87359515D01*
X171091694Y-87279787D01*
X171252464Y-87162981D01*
X171392981Y-87022464D01*
X171509787Y-86861694D01*
X171600005Y-86684632D01*
X171661413Y-86495636D01*
X171692500Y-86299361D01*
X171692500Y-86100639D01*
X171661413Y-85904364D01*
X171600005Y-85715368D01*
X171600005Y-85715367D01*
X171509786Y-85538305D01*
X171392981Y-85377536D01*
X171252464Y-85237019D01*
X171091694Y-85120213D01*
X170935218Y-85040484D01*
X170884423Y-84992510D01*
X170867628Y-84924689D01*
X170890165Y-84858554D01*
X170935218Y-84819515D01*
X171091694Y-84739787D01*
X171252464Y-84622981D01*
X171392981Y-84482464D01*
X171509787Y-84321694D01*
X171600005Y-84144632D01*
X171661413Y-83955636D01*
X171692500Y-83759361D01*
X171692500Y-83560639D01*
X171661413Y-83364364D01*
X171600005Y-83175368D01*
X171600005Y-83175367D01*
X171554035Y-83085149D01*
X171509787Y-82998306D01*
X171392981Y-82837536D01*
X171252464Y-82697019D01*
X171091694Y-82580213D01*
X170935218Y-82500484D01*
X170884423Y-82452510D01*
X170867628Y-82384689D01*
X170890165Y-82318554D01*
X170935218Y-82279515D01*
X171091694Y-82199787D01*
X171252464Y-82082981D01*
X171392981Y-81942464D01*
X171509787Y-81781694D01*
X171600005Y-81604632D01*
X171601479Y-81600097D01*
X171613776Y-81562248D01*
X171661413Y-81415636D01*
X171692500Y-81219361D01*
X171692500Y-81020639D01*
X171661413Y-80824364D01*
X171600005Y-80635368D01*
X171600005Y-80635367D01*
X171509786Y-80458305D01*
X171507220Y-80454773D01*
X171392981Y-80297536D01*
X171252464Y-80157019D01*
X171091694Y-80040213D01*
X170935218Y-79960484D01*
X170884423Y-79912510D01*
X170867628Y-79844689D01*
X170890165Y-79778554D01*
X170935218Y-79739515D01*
X171091694Y-79659787D01*
X171252464Y-79542981D01*
X171392981Y-79402464D01*
X171509787Y-79241694D01*
X171600005Y-79064632D01*
X171661413Y-78875636D01*
X171692500Y-78679361D01*
X171692500Y-78480639D01*
X171661413Y-78284364D01*
X171600005Y-78095368D01*
X171600005Y-78095367D01*
X171509786Y-77918305D01*
X171507220Y-77914773D01*
X171392981Y-77757536D01*
X171252464Y-77617019D01*
X171091694Y-77500213D01*
X170935218Y-77420484D01*
X170884423Y-77372510D01*
X170867628Y-77304689D01*
X170890165Y-77238554D01*
X170935218Y-77199515D01*
X171091694Y-77119787D01*
X171252464Y-77002981D01*
X171392981Y-76862464D01*
X171509787Y-76701694D01*
X171600005Y-76524632D01*
X171661413Y-76335636D01*
X171692500Y-76139361D01*
X171692500Y-75940639D01*
X171661413Y-75744364D01*
X171600005Y-75555368D01*
X171600005Y-75555367D01*
X171509786Y-75378305D01*
X171438741Y-75280520D01*
X171392981Y-75217536D01*
X171252464Y-75077019D01*
X171091694Y-74960213D01*
X170935218Y-74880484D01*
X170884423Y-74832510D01*
X170867628Y-74764689D01*
X170890165Y-74698554D01*
X170935218Y-74659515D01*
X171091694Y-74579787D01*
X171252464Y-74462981D01*
X171392981Y-74322464D01*
X171509787Y-74161694D01*
X171600005Y-73984632D01*
X171661413Y-73795636D01*
X171692500Y-73599361D01*
X171692500Y-73400639D01*
X171661413Y-73204364D01*
X171600005Y-73015368D01*
X171600005Y-73015367D01*
X171554035Y-72925149D01*
X171509787Y-72838306D01*
X171392981Y-72677536D01*
X171252464Y-72537019D01*
X171091694Y-72420213D01*
X170935218Y-72340484D01*
X170884423Y-72292510D01*
X170867628Y-72224689D01*
X170890165Y-72158554D01*
X170935218Y-72119515D01*
X171091694Y-72039787D01*
X171252464Y-71922981D01*
X171392981Y-71782464D01*
X171509787Y-71621694D01*
X171600005Y-71444632D01*
X171661413Y-71255636D01*
X171692500Y-71059361D01*
X171692500Y-70860639D01*
X171661413Y-70664364D01*
X171604492Y-70489177D01*
X171600006Y-70475370D01*
X171600005Y-70475367D01*
X171540967Y-70359500D01*
X171509787Y-70298306D01*
X171392981Y-70137536D01*
X171252464Y-69997019D01*
X171091694Y-69880213D01*
X170935218Y-69800484D01*
X170884423Y-69752510D01*
X170867628Y-69684689D01*
X170890165Y-69618554D01*
X170935218Y-69579515D01*
X171091694Y-69499787D01*
X171252464Y-69382981D01*
X171392981Y-69242464D01*
X171509787Y-69081694D01*
X171600005Y-68904632D01*
X171661413Y-68715636D01*
X171692500Y-68519361D01*
X171692500Y-68320639D01*
X171661413Y-68124364D01*
X171615083Y-67981774D01*
X171600006Y-67935370D01*
X171600005Y-67935367D01*
X171540967Y-67819500D01*
X171509787Y-67758306D01*
X171392981Y-67597536D01*
X171252464Y-67457019D01*
X171091694Y-67340213D01*
X170934667Y-67260203D01*
X170883872Y-67212229D01*
X170867077Y-67144408D01*
X170889614Y-67078273D01*
X170934669Y-67039234D01*
X171091422Y-66959364D01*
X171128716Y-66932268D01*
X170565942Y-66369494D01*
X170626081Y-66353381D01*
X170741920Y-66286502D01*
X170836502Y-66191920D01*
X170903381Y-66076081D01*
X170919495Y-66015942D01*
X171482268Y-66578715D01*
X171509362Y-66541425D01*
X171599542Y-66364437D01*
X171660924Y-66175523D01*
X171660924Y-66175520D01*
X171692000Y-65979321D01*
X171692000Y-65780678D01*
X171660924Y-65584479D01*
X171660924Y-65584476D01*
X171599542Y-65395562D01*
X171509358Y-65218567D01*
X171482268Y-65181283D01*
X170919494Y-65744057D01*
X170903381Y-65683919D01*
X170836502Y-65568080D01*
X170741920Y-65473498D01*
X170626081Y-65406619D01*
X170565942Y-65390504D01*
X171128716Y-64827731D01*
X171128715Y-64827730D01*
X171091432Y-64800641D01*
X170934668Y-64720765D01*
X170883872Y-64672790D01*
X170867077Y-64604969D01*
X170889615Y-64538834D01*
X170934667Y-64499796D01*
X171091694Y-64419787D01*
X171252464Y-64302981D01*
X171392981Y-64162464D01*
X171509787Y-64001694D01*
X171600005Y-63824632D01*
X171661413Y-63635636D01*
X171692500Y-63439361D01*
X171692500Y-63240639D01*
X171661413Y-63044364D01*
X171600005Y-62855368D01*
X171600005Y-62855367D01*
X171509786Y-62678305D01*
X171392981Y-62517536D01*
X171252464Y-62377019D01*
X171091694Y-62260213D01*
X170935218Y-62180484D01*
X170884423Y-62132510D01*
X170867628Y-62064689D01*
X170890165Y-61998554D01*
X170935218Y-61959515D01*
X171091694Y-61879787D01*
X171252464Y-61762981D01*
X171392981Y-61622464D01*
X171509787Y-61461694D01*
X171600005Y-61284632D01*
X171661413Y-61095636D01*
X171692500Y-60899361D01*
X171692500Y-60700639D01*
X171661413Y-60504364D01*
X171600005Y-60315368D01*
X171600005Y-60315367D01*
X171509786Y-60138305D01*
X171392981Y-59977536D01*
X171252464Y-59837019D01*
X171091694Y-59720213D01*
X170935218Y-59640484D01*
X170884423Y-59592510D01*
X170867628Y-59524689D01*
X170890165Y-59458554D01*
X170935218Y-59419515D01*
X171091694Y-59339787D01*
X171252464Y-59222981D01*
X171392981Y-59082464D01*
X171509787Y-58921694D01*
X171600005Y-58744632D01*
X171661413Y-58555636D01*
X171692500Y-58359361D01*
X171692500Y-58160639D01*
X171661413Y-57964364D01*
X171600005Y-57775368D01*
X171600005Y-57775367D01*
X171509786Y-57598305D01*
X171392981Y-57437536D01*
X171252464Y-57297019D01*
X171091694Y-57180213D01*
X170935218Y-57100484D01*
X170884423Y-57052510D01*
X170867628Y-56984689D01*
X170890165Y-56918554D01*
X170935218Y-56879515D01*
X171091694Y-56799787D01*
X171252464Y-56682981D01*
X171392981Y-56542464D01*
X171509787Y-56381694D01*
X171600005Y-56204632D01*
X171661413Y-56015636D01*
X171692500Y-55819361D01*
X171692500Y-55620639D01*
X171661413Y-55424364D01*
X171600005Y-55235368D01*
X171600005Y-55235367D01*
X171509786Y-55058305D01*
X171392981Y-54897536D01*
X171252464Y-54757019D01*
X171091694Y-54640213D01*
X170935218Y-54560484D01*
X170884423Y-54512510D01*
X170867628Y-54444689D01*
X170890165Y-54378554D01*
X170935218Y-54339515D01*
X171091694Y-54259787D01*
X171252464Y-54142981D01*
X171392981Y-54002464D01*
X171509787Y-53841694D01*
X171600005Y-53664632D01*
X171661413Y-53475636D01*
X171692500Y-53279361D01*
X171692500Y-53080639D01*
X171661413Y-52884364D01*
X171618894Y-52753502D01*
X171600006Y-52695370D01*
X171600005Y-52695367D01*
X171509786Y-52518305D01*
X171392981Y-52357536D01*
X171252464Y-52217019D01*
X171091694Y-52100213D01*
X170934667Y-52020203D01*
X170883872Y-51972229D01*
X170867077Y-51904408D01*
X170889614Y-51838273D01*
X170934669Y-51799234D01*
X171091422Y-51719364D01*
X171128716Y-51692268D01*
X170565942Y-51129494D01*
X170626081Y-51113381D01*
X170741920Y-51046502D01*
X170836502Y-50951920D01*
X170903381Y-50836081D01*
X170919495Y-50775942D01*
X171482268Y-51338715D01*
X171509362Y-51301425D01*
X171599542Y-51124437D01*
X171660924Y-50935523D01*
X171660924Y-50935520D01*
X171692000Y-50739321D01*
X171692000Y-50540678D01*
X171660924Y-50344479D01*
X171660924Y-50344476D01*
X171599542Y-50155562D01*
X171509358Y-49978567D01*
X171482268Y-49941283D01*
X170919494Y-50504057D01*
X170903381Y-50443919D01*
X170836502Y-50328080D01*
X170741920Y-50233498D01*
X170626081Y-50166619D01*
X170565942Y-50150504D01*
X171128716Y-49587731D01*
X171128715Y-49587730D01*
X171091432Y-49560641D01*
X170914437Y-49470457D01*
X170725522Y-49409075D01*
X170529321Y-49378000D01*
X170330679Y-49378000D01*
X170134479Y-49409075D01*
X170134476Y-49409075D01*
X169945562Y-49470457D01*
X169768564Y-49560643D01*
X169731283Y-49587729D01*
X169731282Y-49587730D01*
X170294058Y-50150504D01*
X170233919Y-50166619D01*
X170118080Y-50233498D01*
X170023498Y-50328080D01*
X169956619Y-50443919D01*
X169940504Y-50504057D01*
X169377730Y-49941282D01*
X169377729Y-49941283D01*
X169350643Y-49978564D01*
X169260457Y-50155562D01*
X169199075Y-50344476D01*
X169199075Y-50344479D01*
X169168000Y-50540678D01*
X169168000Y-50739321D01*
X169199075Y-50935520D01*
X169199075Y-50935523D01*
X169260457Y-51124437D01*
X169350641Y-51301432D01*
X169377730Y-51338715D01*
X169377731Y-51338716D01*
X169940504Y-50775942D01*
X169956619Y-50836081D01*
X170023498Y-50951920D01*
X170118080Y-51046502D01*
X170233919Y-51113381D01*
X170294057Y-51129494D01*
X169731283Y-51692268D01*
X169731283Y-51692269D01*
X169768567Y-51719358D01*
X169925331Y-51799234D01*
X169976127Y-51847209D01*
X169992922Y-51915030D01*
X169970384Y-51981165D01*
X169925331Y-52020204D01*
X169768305Y-52100213D01*
X169607533Y-52217021D01*
X169467021Y-52357533D01*
X169350213Y-52518305D01*
X169259994Y-52695367D01*
X169259993Y-52695370D01*
X169198587Y-52884362D01*
X169178307Y-53012404D01*
X169167500Y-53080639D01*
X169167500Y-53279361D01*
X169171954Y-53307483D01*
X169198587Y-53475637D01*
X169259993Y-53664629D01*
X169259994Y-53664632D01*
X169350213Y-53841694D01*
X169467019Y-54002464D01*
X169607536Y-54142981D01*
X169768306Y-54259787D01*
X169886832Y-54320179D01*
X169924780Y-54339515D01*
X169975576Y-54387490D01*
X169992371Y-54455311D01*
X169969833Y-54521446D01*
X169924780Y-54560485D01*
X169768305Y-54640213D01*
X169607533Y-54757021D01*
X169467021Y-54897533D01*
X169350213Y-55058305D01*
X169259994Y-55235367D01*
X169259993Y-55235370D01*
X169198587Y-55424362D01*
X169167500Y-55620639D01*
X169167500Y-55819360D01*
X169198587Y-56015637D01*
X169259993Y-56204629D01*
X169259994Y-56204632D01*
X169350213Y-56381694D01*
X169467019Y-56542464D01*
X169607536Y-56682981D01*
X169768306Y-56799787D01*
X169886832Y-56860179D01*
X169924780Y-56879515D01*
X169975576Y-56927490D01*
X169992371Y-56995311D01*
X169969833Y-57061446D01*
X169924780Y-57100485D01*
X169768305Y-57180213D01*
X169607533Y-57297021D01*
X169467021Y-57437533D01*
X169350213Y-57598305D01*
X169259994Y-57775367D01*
X169259993Y-57775370D01*
X169198587Y-57964362D01*
X169167500Y-58160639D01*
X169167500Y-58359360D01*
X169198587Y-58555637D01*
X169259993Y-58744629D01*
X169259994Y-58744632D01*
X169350213Y-58921694D01*
X169467019Y-59082464D01*
X169607536Y-59222981D01*
X169768306Y-59339787D01*
X169886832Y-59400179D01*
X169924780Y-59419515D01*
X169975576Y-59467490D01*
X169992371Y-59535311D01*
X169969833Y-59601446D01*
X169924780Y-59640485D01*
X169768305Y-59720213D01*
X169607533Y-59837021D01*
X169467021Y-59977533D01*
X169350213Y-60138305D01*
X169259994Y-60315367D01*
X169259993Y-60315370D01*
X169198587Y-60504362D01*
X169167500Y-60700639D01*
X169167500Y-60899360D01*
X169198587Y-61095637D01*
X169259993Y-61284629D01*
X169259994Y-61284632D01*
X169350213Y-61461694D01*
X169467019Y-61622464D01*
X169607536Y-61762981D01*
X169768306Y-61879787D01*
X169886832Y-61940179D01*
X169924780Y-61959515D01*
X169975576Y-62007490D01*
X169992371Y-62075311D01*
X169969833Y-62141446D01*
X169924780Y-62180485D01*
X169768305Y-62260213D01*
X169607533Y-62377021D01*
X169467021Y-62517533D01*
X169350213Y-62678305D01*
X169259994Y-62855367D01*
X169259993Y-62855370D01*
X169198587Y-63044362D01*
X169167500Y-63240639D01*
X169167500Y-63439360D01*
X169198587Y-63635637D01*
X169259993Y-63824629D01*
X169259994Y-63824632D01*
X169350213Y-64001694D01*
X169467019Y-64162464D01*
X169607536Y-64302981D01*
X169768306Y-64419787D01*
X169925332Y-64499796D01*
X169976127Y-64547769D01*
X169992922Y-64615590D01*
X169970385Y-64681725D01*
X169925332Y-64720764D01*
X169768566Y-64800641D01*
X169731283Y-64827729D01*
X169731282Y-64827730D01*
X170294058Y-65390504D01*
X170233919Y-65406619D01*
X170118080Y-65473498D01*
X170023498Y-65568080D01*
X169956619Y-65683919D01*
X169940504Y-65744057D01*
X169377730Y-65181282D01*
X169377729Y-65181283D01*
X169350643Y-65218564D01*
X169260457Y-65395562D01*
X169199075Y-65584476D01*
X169199075Y-65584479D01*
X169168000Y-65780678D01*
X169168000Y-65979321D01*
X169199075Y-66175520D01*
X169199075Y-66175523D01*
X169260457Y-66364437D01*
X169350641Y-66541432D01*
X169377730Y-66578715D01*
X169377731Y-66578716D01*
X169940504Y-66015942D01*
X169956619Y-66076081D01*
X170023498Y-66191920D01*
X170118080Y-66286502D01*
X170233919Y-66353381D01*
X170294057Y-66369494D01*
X169731283Y-66932268D01*
X169731283Y-66932269D01*
X169768567Y-66959358D01*
X169925331Y-67039234D01*
X169976127Y-67087209D01*
X169992922Y-67155030D01*
X169970384Y-67221165D01*
X169925331Y-67260204D01*
X169768305Y-67340213D01*
X169607533Y-67457021D01*
X169467021Y-67597533D01*
X169350210Y-67758309D01*
X169349000Y-67760285D01*
X169348343Y-67760878D01*
X169347349Y-67762248D01*
X169347061Y-67762039D01*
X169297190Y-67807163D01*
X169243270Y-67819500D01*
X165266670Y-67819500D01*
X165266654Y-67819499D01*
X165259058Y-67819499D01*
X165100943Y-67819499D01*
X165024579Y-67839961D01*
X164948214Y-67860423D01*
X164948209Y-67860426D01*
X164811290Y-67939475D01*
X164811282Y-67939481D01*
X151819481Y-80931282D01*
X151819479Y-80931285D01*
X151769361Y-81018094D01*
X151769359Y-81018096D01*
X151740425Y-81068209D01*
X151740424Y-81068210D01*
X151740423Y-81068215D01*
X151699499Y-81220943D01*
X151699499Y-81220945D01*
X151699499Y-81389046D01*
X151699500Y-81389059D01*
X151699500Y-99699902D01*
X151679815Y-99766941D01*
X151663181Y-99787583D01*
X142387584Y-109063181D01*
X142326261Y-109096666D01*
X142299903Y-109099500D01*
X109760098Y-109099500D01*
X109693059Y-109079815D01*
X109672417Y-109063181D01*
X104927445Y-104318209D01*
X125299500Y-104318209D01*
X125299500Y-104681790D01*
X125335137Y-105043630D01*
X125406064Y-105400212D01*
X125406067Y-105400223D01*
X125511614Y-105748165D01*
X125650754Y-106084078D01*
X125650756Y-106084083D01*
X125822140Y-106404720D01*
X125822151Y-106404738D01*
X126024140Y-106707035D01*
X126024150Y-106707049D01*
X126254807Y-106988106D01*
X126511893Y-107245192D01*
X126511898Y-107245196D01*
X126511899Y-107245197D01*
X126792956Y-107475854D01*
X127095268Y-107677853D01*
X127095277Y-107677858D01*
X127095279Y-107677859D01*
X127415916Y-107849243D01*
X127415918Y-107849243D01*
X127415924Y-107849247D01*
X127751836Y-107988386D01*
X128099767Y-108093930D01*
X128099773Y-108093931D01*
X128099776Y-108093932D01*
X128099787Y-108093935D01*
X128456369Y-108164862D01*
X128818206Y-108200500D01*
X128818209Y-108200500D01*
X129181791Y-108200500D01*
X129181794Y-108200500D01*
X129543631Y-108164862D01*
X129627523Y-108148175D01*
X129900212Y-108093935D01*
X129900223Y-108093932D01*
X129900223Y-108093931D01*
X129900233Y-108093930D01*
X130248164Y-107988386D01*
X130584076Y-107849247D01*
X130904732Y-107677853D01*
X131207044Y-107475854D01*
X131488101Y-107245197D01*
X131745197Y-106988101D01*
X131975854Y-106707044D01*
X132177853Y-106404732D01*
X132349247Y-106084076D01*
X132488386Y-105748164D01*
X132593930Y-105400233D01*
X132593932Y-105400223D01*
X132593935Y-105400212D01*
X132664862Y-105043630D01*
X132700500Y-104681790D01*
X132700500Y-104318209D01*
X132664862Y-103956369D01*
X132593935Y-103599787D01*
X132593932Y-103599776D01*
X132593931Y-103599773D01*
X132593930Y-103599767D01*
X132488386Y-103251836D01*
X132349247Y-102915924D01*
X132295966Y-102816243D01*
X132177859Y-102595279D01*
X132177858Y-102595277D01*
X132177853Y-102595268D01*
X132043178Y-102393713D01*
X139149500Y-102393713D01*
X139149500Y-102606287D01*
X139182754Y-102816243D01*
X139215142Y-102915924D01*
X139248444Y-103018414D01*
X139344951Y-103207820D01*
X139469890Y-103379786D01*
X139620213Y-103530109D01*
X139792179Y-103655048D01*
X139792181Y-103655049D01*
X139792184Y-103655051D01*
X139981588Y-103751557D01*
X140183757Y-103817246D01*
X140393713Y-103850500D01*
X140393714Y-103850500D01*
X140606286Y-103850500D01*
X140606287Y-103850500D01*
X140816243Y-103817246D01*
X141018412Y-103751557D01*
X141207816Y-103655051D01*
X141379792Y-103530104D01*
X141493329Y-103416566D01*
X141554648Y-103383084D01*
X141624340Y-103388068D01*
X141680274Y-103429939D01*
X141697189Y-103460917D01*
X141746202Y-103592328D01*
X141746206Y-103592335D01*
X141832452Y-103707544D01*
X141832455Y-103707547D01*
X141947664Y-103793793D01*
X141947671Y-103793797D01*
X142082517Y-103844091D01*
X142082516Y-103844091D01*
X142089444Y-103844835D01*
X142142127Y-103850500D01*
X143937872Y-103850499D01*
X143997483Y-103844091D01*
X144132331Y-103793796D01*
X144247546Y-103707546D01*
X144333796Y-103592331D01*
X144384091Y-103457483D01*
X144390500Y-103397873D01*
X144390499Y-101602128D01*
X144384091Y-101542517D01*
X144382810Y-101539083D01*
X144333797Y-101407671D01*
X144333793Y-101407664D01*
X144247547Y-101292455D01*
X144247544Y-101292452D01*
X144132335Y-101206206D01*
X144132328Y-101206202D01*
X143997482Y-101155908D01*
X143997483Y-101155908D01*
X143937883Y-101149501D01*
X143937881Y-101149500D01*
X143937873Y-101149500D01*
X143937864Y-101149500D01*
X142142129Y-101149500D01*
X142142123Y-101149501D01*
X142082516Y-101155908D01*
X141947671Y-101206202D01*
X141947664Y-101206206D01*
X141832455Y-101292452D01*
X141832452Y-101292455D01*
X141746206Y-101407664D01*
X141746203Y-101407669D01*
X141697189Y-101539083D01*
X141655317Y-101595016D01*
X141589853Y-101619433D01*
X141521580Y-101604581D01*
X141493326Y-101583430D01*
X141379786Y-101469890D01*
X141207820Y-101344951D01*
X141018414Y-101248444D01*
X141018413Y-101248443D01*
X141018412Y-101248443D01*
X140816243Y-101182754D01*
X140816241Y-101182753D01*
X140816240Y-101182753D01*
X140654957Y-101157208D01*
X140606287Y-101149500D01*
X140393713Y-101149500D01*
X140345042Y-101157208D01*
X140183760Y-101182753D01*
X139981585Y-101248444D01*
X139792179Y-101344951D01*
X139620213Y-101469890D01*
X139469890Y-101620213D01*
X139344951Y-101792179D01*
X139248444Y-101981585D01*
X139182753Y-102183760D01*
X139165459Y-102292950D01*
X139149500Y-102393713D01*
X132043178Y-102393713D01*
X131975854Y-102292956D01*
X131745197Y-102011899D01*
X131745196Y-102011898D01*
X131745192Y-102011893D01*
X131488106Y-101754807D01*
X131207049Y-101524150D01*
X131207048Y-101524149D01*
X131207044Y-101524146D01*
X130970295Y-101365955D01*
X130904738Y-101322151D01*
X130904737Y-101322150D01*
X130904732Y-101322147D01*
X130904727Y-101322144D01*
X130904720Y-101322140D01*
X130584083Y-101150756D01*
X130584078Y-101150754D01*
X130248165Y-101011614D01*
X129900223Y-100906067D01*
X129900212Y-100906064D01*
X129543630Y-100835137D01*
X129271111Y-100808296D01*
X129181794Y-100799500D01*
X128818206Y-100799500D01*
X128735679Y-100807628D01*
X128456369Y-100835137D01*
X128099787Y-100906064D01*
X128099776Y-100906067D01*
X127751834Y-101011614D01*
X127415921Y-101150754D01*
X127415916Y-101150756D01*
X127095279Y-101322140D01*
X127095261Y-101322151D01*
X126792964Y-101524140D01*
X126792950Y-101524150D01*
X126511893Y-101754807D01*
X126254807Y-102011893D01*
X126024150Y-102292950D01*
X126024140Y-102292964D01*
X125822151Y-102595261D01*
X125822140Y-102595279D01*
X125650756Y-102915916D01*
X125650754Y-102915921D01*
X125511614Y-103251834D01*
X125406067Y-103599776D01*
X125406064Y-103599787D01*
X125335137Y-103956369D01*
X125299500Y-104318209D01*
X104927445Y-104318209D01*
X101496818Y-100887582D01*
X101463333Y-100826259D01*
X101460499Y-100799901D01*
X101460499Y-98752129D01*
X101460498Y-98752123D01*
X101460497Y-98752116D01*
X101454091Y-98692517D01*
X101437761Y-98648735D01*
X101403797Y-98557671D01*
X101403793Y-98557664D01*
X101317547Y-98442455D01*
X101317544Y-98442452D01*
X101202335Y-98356206D01*
X101202328Y-98356202D01*
X101067482Y-98305908D01*
X101067483Y-98305908D01*
X101007883Y-98299501D01*
X101007881Y-98299500D01*
X101007873Y-98299500D01*
X101007864Y-98299500D01*
X98512129Y-98299500D01*
X98512123Y-98299501D01*
X98452516Y-98305908D01*
X98317671Y-98356202D01*
X98317664Y-98356206D01*
X98202455Y-98442452D01*
X98202452Y-98442455D01*
X98116206Y-98557664D01*
X98116202Y-98557671D01*
X98065908Y-98692517D01*
X98059501Y-98752116D01*
X98059501Y-98752123D01*
X98059500Y-98752135D01*
X98059500Y-101247870D01*
X98059501Y-101247876D01*
X98065908Y-101307483D01*
X98116202Y-101442328D01*
X98116206Y-101442335D01*
X98202452Y-101557544D01*
X98202455Y-101557547D01*
X98317664Y-101643793D01*
X98317671Y-101643797D01*
X98452517Y-101694091D01*
X98452516Y-101694091D01*
X98459444Y-101694835D01*
X98512127Y-101700500D01*
X100559902Y-101700499D01*
X100626941Y-101720184D01*
X100647583Y-101736818D01*
X109097031Y-110186267D01*
X109095012Y-110188285D01*
X109128067Y-110233569D01*
X109132212Y-110303316D01*
X109097991Y-110364231D01*
X109036269Y-110396975D01*
X109011372Y-110399500D01*
X106000097Y-110399500D01*
X105933058Y-110379815D01*
X105912416Y-110363181D01*
X96436819Y-100887584D01*
X96403334Y-100826261D01*
X96400500Y-100799903D01*
X96400500Y-98700097D01*
X96420185Y-98633058D01*
X96436819Y-98612416D01*
X98012416Y-97036819D01*
X98073739Y-97003334D01*
X98100097Y-97000500D01*
X100939903Y-97000500D01*
X101006942Y-97020185D01*
X101027584Y-97036819D01*
X103231171Y-99240406D01*
X103264656Y-99301729D01*
X103259672Y-99371421D01*
X103258051Y-99375540D01*
X103226293Y-99452209D01*
X103226290Y-99452219D01*
X103168597Y-99667534D01*
X103168594Y-99667547D01*
X103139501Y-99888533D01*
X103139500Y-99888549D01*
X103139500Y-100111450D01*
X103139501Y-100111466D01*
X103168594Y-100332452D01*
X103168595Y-100332457D01*
X103168596Y-100332463D01*
X103226290Y-100547780D01*
X103226293Y-100547790D01*
X103311593Y-100753722D01*
X103311595Y-100753726D01*
X103423052Y-100946774D01*
X103423057Y-100946780D01*
X103423058Y-100946782D01*
X103558751Y-101123622D01*
X103558757Y-101123629D01*
X103716370Y-101281242D01*
X103716377Y-101281248D01*
X103799397Y-101344951D01*
X103893226Y-101416948D01*
X104086274Y-101528405D01*
X104156622Y-101557544D01*
X104291074Y-101613236D01*
X104292219Y-101613710D01*
X104507537Y-101671404D01*
X104728543Y-101700500D01*
X104728550Y-101700500D01*
X104951450Y-101700500D01*
X104951457Y-101700500D01*
X105172463Y-101671404D01*
X105387781Y-101613710D01*
X105593726Y-101528405D01*
X105786774Y-101416948D01*
X105963624Y-101281247D01*
X105963629Y-101281242D01*
X106014550Y-101230322D01*
X106121242Y-101123629D01*
X106121247Y-101123624D01*
X106256948Y-100946774D01*
X106368405Y-100753726D01*
X106453710Y-100547781D01*
X106511404Y-100332463D01*
X106540500Y-100111457D01*
X106540500Y-99888575D01*
X108220000Y-99888575D01*
X108220000Y-100111424D01*
X108249085Y-100332354D01*
X108249088Y-100332367D01*
X108306763Y-100547618D01*
X108392045Y-100753502D01*
X108392054Y-100753520D01*
X108503464Y-100946491D01*
X108503473Y-100946504D01*
X108554040Y-101012403D01*
X108554043Y-101012403D01*
X109204152Y-100362293D01*
X109211049Y-100378942D01*
X109298599Y-100509970D01*
X109410030Y-100621401D01*
X109541058Y-100708951D01*
X109557705Y-100715846D01*
X108907595Y-101365955D01*
X108907595Y-101365956D01*
X108973507Y-101416533D01*
X109166485Y-101527949D01*
X109166497Y-101527954D01*
X109372381Y-101613236D01*
X109587632Y-101670911D01*
X109587645Y-101670914D01*
X109808575Y-101700000D01*
X110031425Y-101700000D01*
X110252354Y-101670914D01*
X110252367Y-101670911D01*
X110467618Y-101613236D01*
X110673502Y-101527954D01*
X110673514Y-101527949D01*
X110866498Y-101416530D01*
X110932403Y-101365957D01*
X110932404Y-101365956D01*
X110282294Y-100715846D01*
X110298942Y-100708951D01*
X110429970Y-100621401D01*
X110541401Y-100509970D01*
X110628951Y-100378942D01*
X110635846Y-100362294D01*
X111285956Y-101012404D01*
X111285957Y-101012403D01*
X111336530Y-100946498D01*
X111447949Y-100753514D01*
X111447954Y-100753502D01*
X111533236Y-100547618D01*
X111590911Y-100332367D01*
X111590914Y-100332354D01*
X111620000Y-100111424D01*
X111620000Y-99888575D01*
X111619997Y-99888549D01*
X113299500Y-99888549D01*
X113299500Y-100111450D01*
X113299501Y-100111466D01*
X113328594Y-100332452D01*
X113328595Y-100332457D01*
X113328596Y-100332463D01*
X113386290Y-100547780D01*
X113386293Y-100547790D01*
X113471593Y-100753722D01*
X113471595Y-100753726D01*
X113583052Y-100946774D01*
X113583057Y-100946780D01*
X113583058Y-100946782D01*
X113718751Y-101123622D01*
X113718757Y-101123629D01*
X113876370Y-101281242D01*
X113876377Y-101281248D01*
X113959397Y-101344951D01*
X114053226Y-101416948D01*
X114246274Y-101528405D01*
X114316622Y-101557544D01*
X114451074Y-101613236D01*
X114452219Y-101613710D01*
X114667537Y-101671404D01*
X114888543Y-101700500D01*
X114888550Y-101700500D01*
X115111450Y-101700500D01*
X115111457Y-101700500D01*
X115332463Y-101671404D01*
X115547781Y-101613710D01*
X115753726Y-101528405D01*
X115946774Y-101416948D01*
X116123624Y-101281247D01*
X116281247Y-101123624D01*
X116416948Y-100946774D01*
X116528405Y-100753726D01*
X116613710Y-100547781D01*
X116671404Y-100332463D01*
X116700500Y-100111457D01*
X116700500Y-99888543D01*
X116671404Y-99667537D01*
X116613710Y-99452219D01*
X116528405Y-99246274D01*
X116416948Y-99053226D01*
X116281247Y-98876376D01*
X116281242Y-98876370D01*
X116123629Y-98718757D01*
X116123622Y-98718751D01*
X115946782Y-98583058D01*
X115946780Y-98583057D01*
X115946774Y-98583052D01*
X115753726Y-98471595D01*
X115753722Y-98471593D01*
X115547790Y-98386293D01*
X115547783Y-98386291D01*
X115547781Y-98386290D01*
X115332463Y-98328596D01*
X115332457Y-98328595D01*
X115332452Y-98328594D01*
X115111466Y-98299501D01*
X115111463Y-98299500D01*
X115111457Y-98299500D01*
X114888543Y-98299500D01*
X114888537Y-98299500D01*
X114888533Y-98299501D01*
X114667547Y-98328594D01*
X114667540Y-98328595D01*
X114667537Y-98328596D01*
X114564502Y-98356204D01*
X114452219Y-98386290D01*
X114452209Y-98386293D01*
X114246277Y-98471593D01*
X114246273Y-98471595D01*
X114053226Y-98583052D01*
X114053217Y-98583058D01*
X113876377Y-98718751D01*
X113876370Y-98718757D01*
X113718757Y-98876370D01*
X113718751Y-98876377D01*
X113583058Y-99053217D01*
X113583052Y-99053226D01*
X113471595Y-99246273D01*
X113471593Y-99246277D01*
X113386293Y-99452209D01*
X113386290Y-99452219D01*
X113328597Y-99667534D01*
X113328594Y-99667547D01*
X113299501Y-99888533D01*
X113299500Y-99888549D01*
X111619997Y-99888549D01*
X111590914Y-99667645D01*
X111590911Y-99667632D01*
X111533236Y-99452381D01*
X111447954Y-99246497D01*
X111447949Y-99246485D01*
X111336533Y-99053507D01*
X111285956Y-98987595D01*
X111285955Y-98987595D01*
X110635846Y-99637704D01*
X110628951Y-99621058D01*
X110541401Y-99490030D01*
X110429970Y-99378599D01*
X110298942Y-99291049D01*
X110282293Y-99284152D01*
X110932403Y-98634043D01*
X110932403Y-98634040D01*
X110866504Y-98583473D01*
X110866491Y-98583464D01*
X110673520Y-98472054D01*
X110673502Y-98472045D01*
X110467618Y-98386763D01*
X110252367Y-98329088D01*
X110252354Y-98329085D01*
X110031425Y-98300000D01*
X109808575Y-98300000D01*
X109587645Y-98329085D01*
X109587632Y-98329088D01*
X109372381Y-98386763D01*
X109166497Y-98472045D01*
X109166479Y-98472054D01*
X108973511Y-98583462D01*
X108907595Y-98634042D01*
X109557706Y-99284152D01*
X109541058Y-99291049D01*
X109410030Y-99378599D01*
X109298599Y-99490030D01*
X109211049Y-99621058D01*
X109204153Y-99637706D01*
X108554042Y-98987595D01*
X108503462Y-99053511D01*
X108392054Y-99246479D01*
X108392045Y-99246497D01*
X108306763Y-99452381D01*
X108249088Y-99667632D01*
X108249085Y-99667645D01*
X108220000Y-99888575D01*
X106540500Y-99888575D01*
X106540500Y-99888543D01*
X106511404Y-99667537D01*
X106453710Y-99452219D01*
X106368405Y-99246274D01*
X106256948Y-99053226D01*
X106121247Y-98876376D01*
X106121242Y-98876370D01*
X105963629Y-98718757D01*
X105963622Y-98718751D01*
X105786782Y-98583058D01*
X105786780Y-98583057D01*
X105786774Y-98583052D01*
X105593726Y-98471595D01*
X105593722Y-98471593D01*
X105387790Y-98386293D01*
X105387783Y-98386291D01*
X105387781Y-98386290D01*
X105172463Y-98328596D01*
X105172457Y-98328595D01*
X105172452Y-98328594D01*
X104951466Y-98299501D01*
X104951463Y-98299500D01*
X104951457Y-98299500D01*
X104728543Y-98299500D01*
X104728537Y-98299500D01*
X104728533Y-98299501D01*
X104507547Y-98328594D01*
X104507540Y-98328595D01*
X104507537Y-98328596D01*
X104404502Y-98356204D01*
X104292219Y-98386290D01*
X104292209Y-98386293D01*
X104215540Y-98418051D01*
X104146070Y-98425520D01*
X104083591Y-98394245D01*
X104080406Y-98391171D01*
X101727590Y-96038355D01*
X101727588Y-96038352D01*
X101608717Y-95919481D01*
X101608716Y-95919480D01*
X101521904Y-95869360D01*
X101521904Y-95869359D01*
X101521900Y-95869358D01*
X101471785Y-95840423D01*
X101319057Y-95799499D01*
X101160943Y-95799499D01*
X101153347Y-95799499D01*
X101153331Y-95799500D01*
X97879057Y-95799500D01*
X97720943Y-95799500D01*
X97568215Y-95840423D01*
X97568214Y-95840423D01*
X97568212Y-95840424D01*
X97568209Y-95840425D01*
X97518096Y-95869359D01*
X97518095Y-95869360D01*
X97474689Y-95894420D01*
X97431285Y-95919479D01*
X97431282Y-95919481D01*
X95319481Y-98031282D01*
X95319479Y-98031285D01*
X95269361Y-98118094D01*
X95269359Y-98118096D01*
X95240425Y-98168209D01*
X95240424Y-98168210D01*
X95240423Y-98168215D01*
X95199499Y-98320943D01*
X95199499Y-98479057D01*
X95199499Y-98479059D01*
X95199500Y-98489053D01*
X95199500Y-101013330D01*
X95199499Y-101013348D01*
X95199499Y-101179054D01*
X95199498Y-101179054D01*
X93500500Y-101179054D01*
X93500500Y-74879054D01*
X143199498Y-74879054D01*
X143240424Y-75031789D01*
X143240425Y-75031790D01*
X143266538Y-75077018D01*
X143266539Y-75077020D01*
X143319475Y-75168709D01*
X143319481Y-75168717D01*
X143438349Y-75287585D01*
X143438355Y-75287590D01*
X146308531Y-78157766D01*
X146342016Y-78219089D01*
X146338998Y-78279446D01*
X146339725Y-78279621D01*
X146338796Y-78283489D01*
X146338783Y-78283759D01*
X146338587Y-78284361D01*
X146307500Y-78480639D01*
X146307500Y-78679360D01*
X146338587Y-78875637D01*
X146399993Y-79064629D01*
X146399994Y-79064632D01*
X146449315Y-79161428D01*
X146490213Y-79241694D01*
X146607019Y-79402464D01*
X146747536Y-79542981D01*
X146908306Y-79659787D01*
X147026832Y-79720179D01*
X147064780Y-79739515D01*
X147115576Y-79787490D01*
X147132371Y-79855311D01*
X147109833Y-79921446D01*
X147064780Y-79960485D01*
X146908305Y-80040213D01*
X146747533Y-80157021D01*
X146607021Y-80297533D01*
X146490213Y-80458305D01*
X146399994Y-80635367D01*
X146399993Y-80635370D01*
X146338587Y-80824362D01*
X146307500Y-81020639D01*
X146307500Y-81219360D01*
X146338587Y-81415637D01*
X146399993Y-81604629D01*
X146399994Y-81604632D01*
X146449315Y-81701428D01*
X146490213Y-81781694D01*
X146607019Y-81942464D01*
X146747536Y-82082981D01*
X146908306Y-82199787D01*
X147065332Y-82279796D01*
X147116127Y-82327769D01*
X147132922Y-82395590D01*
X147110385Y-82461725D01*
X147065332Y-82500764D01*
X146908566Y-82580641D01*
X146871283Y-82607729D01*
X146871282Y-82607730D01*
X147434058Y-83170504D01*
X147373919Y-83186619D01*
X147258080Y-83253498D01*
X147163498Y-83348080D01*
X147096619Y-83463919D01*
X147080504Y-83524057D01*
X146517730Y-82961282D01*
X146517729Y-82961283D01*
X146490643Y-82998564D01*
X146400457Y-83175562D01*
X146339075Y-83364476D01*
X146339075Y-83364479D01*
X146308000Y-83560678D01*
X146308000Y-83759321D01*
X146339075Y-83955520D01*
X146339075Y-83955523D01*
X146400457Y-84144437D01*
X146490641Y-84321432D01*
X146517730Y-84358715D01*
X146517731Y-84358716D01*
X147080504Y-83795942D01*
X147096619Y-83856081D01*
X147163498Y-83971920D01*
X147258080Y-84066502D01*
X147373919Y-84133381D01*
X147434057Y-84149494D01*
X146871283Y-84712268D01*
X146871283Y-84712269D01*
X146908567Y-84739358D01*
X147065331Y-84819234D01*
X147116127Y-84867209D01*
X147132922Y-84935030D01*
X147110384Y-85001165D01*
X147065331Y-85040204D01*
X146908305Y-85120213D01*
X146747533Y-85237021D01*
X146607021Y-85377533D01*
X146490213Y-85538305D01*
X146399994Y-85715367D01*
X146399993Y-85715370D01*
X146338587Y-85904362D01*
X146307500Y-86100639D01*
X146307500Y-86299360D01*
X146338587Y-86495637D01*
X146399993Y-86684629D01*
X146399994Y-86684632D01*
X146490213Y-86861694D01*
X146607019Y-87022464D01*
X146747536Y-87162981D01*
X146908306Y-87279787D01*
X147026832Y-87340179D01*
X147064780Y-87359515D01*
X147115576Y-87407490D01*
X147132371Y-87475311D01*
X147109833Y-87541446D01*
X147064780Y-87580485D01*
X146908305Y-87660213D01*
X146747533Y-87777021D01*
X146607021Y-87917533D01*
X146490213Y-88078305D01*
X146399994Y-88255367D01*
X146399993Y-88255370D01*
X146338587Y-88444362D01*
X146307500Y-88640639D01*
X146307500Y-88839360D01*
X146338587Y-89035637D01*
X146399993Y-89224629D01*
X146399994Y-89224632D01*
X146490213Y-89401694D01*
X146607019Y-89562464D01*
X146747536Y-89702981D01*
X146908306Y-89819787D01*
X147026832Y-89880179D01*
X147064780Y-89899515D01*
X147115576Y-89947490D01*
X147132371Y-90015311D01*
X147109833Y-90081446D01*
X147064780Y-90120485D01*
X146908305Y-90200213D01*
X146747533Y-90317021D01*
X146607021Y-90457533D01*
X146490213Y-90618305D01*
X146399994Y-90795367D01*
X146399993Y-90795370D01*
X146338587Y-90984362D01*
X146307500Y-91180639D01*
X146307500Y-91379360D01*
X146338587Y-91575637D01*
X146399993Y-91764629D01*
X146399994Y-91764632D01*
X146490213Y-91941694D01*
X146607019Y-92102464D01*
X146747536Y-92242981D01*
X146908306Y-92359787D01*
X147026832Y-92420179D01*
X147064780Y-92439515D01*
X147115576Y-92487490D01*
X147132371Y-92555311D01*
X147109833Y-92621446D01*
X147064780Y-92660485D01*
X146908305Y-92740213D01*
X146747533Y-92857021D01*
X146607021Y-92997533D01*
X146490213Y-93158305D01*
X146399994Y-93335367D01*
X146399993Y-93335370D01*
X146338587Y-93524362D01*
X146307500Y-93720639D01*
X146307500Y-93919360D01*
X146338587Y-94115637D01*
X146399993Y-94304629D01*
X146399994Y-94304632D01*
X146490213Y-94481694D01*
X146607019Y-94642464D01*
X146747536Y-94782981D01*
X146908306Y-94899787D01*
X147026832Y-94960179D01*
X147064780Y-94979515D01*
X147115576Y-95027490D01*
X147132371Y-95095311D01*
X147109833Y-95161446D01*
X147064780Y-95200485D01*
X146908305Y-95280213D01*
X146747533Y-95397021D01*
X146607021Y-95537533D01*
X146490213Y-95698305D01*
X146399994Y-95875367D01*
X146399993Y-95875370D01*
X146338587Y-96064362D01*
X146307500Y-96260639D01*
X146307500Y-96459360D01*
X146338587Y-96655637D01*
X146399993Y-96844629D01*
X146399994Y-96844632D01*
X146479414Y-97000500D01*
X146490213Y-97021694D01*
X146607019Y-97182464D01*
X146747536Y-97322981D01*
X146908306Y-97439787D01*
X146995149Y-97484035D01*
X147085367Y-97530005D01*
X147085370Y-97530006D01*
X147179866Y-97560709D01*
X147274364Y-97591413D01*
X147470639Y-97622500D01*
X147470640Y-97622500D01*
X147669360Y-97622500D01*
X147669361Y-97622500D01*
X147865636Y-97591413D01*
X148054632Y-97530005D01*
X148231694Y-97439787D01*
X148392464Y-97322981D01*
X148532981Y-97182464D01*
X148649787Y-97021694D01*
X148740005Y-96844632D01*
X148801413Y-96655636D01*
X148832500Y-96459361D01*
X148832500Y-96260639D01*
X148801413Y-96064364D01*
X148754338Y-95919480D01*
X148740006Y-95875370D01*
X148740005Y-95875367D01*
X148649786Y-95698305D01*
X148532981Y-95537536D01*
X148392464Y-95397019D01*
X148231694Y-95280213D01*
X148075218Y-95200484D01*
X148024423Y-95152510D01*
X148007628Y-95084689D01*
X148030165Y-95018554D01*
X148075218Y-94979515D01*
X148231694Y-94899787D01*
X148392464Y-94782981D01*
X148532981Y-94642464D01*
X148649787Y-94481694D01*
X148740005Y-94304632D01*
X148801413Y-94115636D01*
X148832500Y-93919361D01*
X148832500Y-93720639D01*
X148801413Y-93524364D01*
X148740005Y-93335368D01*
X148740005Y-93335367D01*
X148649786Y-93158305D01*
X148532981Y-92997536D01*
X148392464Y-92857019D01*
X148231694Y-92740213D01*
X148075218Y-92660484D01*
X148024423Y-92612510D01*
X148007628Y-92544689D01*
X148030165Y-92478554D01*
X148075218Y-92439515D01*
X148231694Y-92359787D01*
X148392464Y-92242981D01*
X148532981Y-92102464D01*
X148649787Y-91941694D01*
X148740005Y-91764632D01*
X148801413Y-91575636D01*
X148832500Y-91379361D01*
X148832500Y-91180639D01*
X148801413Y-90984364D01*
X148740005Y-90795368D01*
X148740005Y-90795367D01*
X148649786Y-90618305D01*
X148532981Y-90457536D01*
X148392464Y-90317019D01*
X148231694Y-90200213D01*
X148075218Y-90120484D01*
X148024423Y-90072510D01*
X148007628Y-90004689D01*
X148030165Y-89938554D01*
X148075218Y-89899515D01*
X148231694Y-89819787D01*
X148392464Y-89702981D01*
X148532981Y-89562464D01*
X148649787Y-89401694D01*
X148740005Y-89224632D01*
X148801413Y-89035636D01*
X148832500Y-88839361D01*
X148832500Y-88640639D01*
X148801413Y-88444364D01*
X148740005Y-88255368D01*
X148740005Y-88255367D01*
X148649786Y-88078305D01*
X148532981Y-87917536D01*
X148392464Y-87777019D01*
X148231694Y-87660213D01*
X148075218Y-87580484D01*
X148024423Y-87532510D01*
X148007628Y-87464689D01*
X148030165Y-87398554D01*
X148075218Y-87359515D01*
X148231694Y-87279787D01*
X148392464Y-87162981D01*
X148532981Y-87022464D01*
X148649787Y-86861694D01*
X148740005Y-86684632D01*
X148801413Y-86495636D01*
X148832500Y-86299361D01*
X148832500Y-86100639D01*
X148801413Y-85904364D01*
X148740005Y-85715368D01*
X148740005Y-85715367D01*
X148649786Y-85538305D01*
X148532981Y-85377536D01*
X148392464Y-85237019D01*
X148231694Y-85120213D01*
X148074667Y-85040203D01*
X148023872Y-84992229D01*
X148007077Y-84924408D01*
X148029614Y-84858273D01*
X148074669Y-84819234D01*
X148231422Y-84739364D01*
X148268716Y-84712268D01*
X147705942Y-84149494D01*
X147766081Y-84133381D01*
X147881920Y-84066502D01*
X147976502Y-83971920D01*
X148043381Y-83856081D01*
X148059495Y-83795942D01*
X148622268Y-84358715D01*
X148649362Y-84321425D01*
X148739542Y-84144437D01*
X148800924Y-83955523D01*
X148800924Y-83955520D01*
X148832000Y-83759321D01*
X148832000Y-83560678D01*
X148800924Y-83364479D01*
X148800924Y-83364476D01*
X148739542Y-83175562D01*
X148649358Y-82998567D01*
X148622268Y-82961283D01*
X148059494Y-83524057D01*
X148043381Y-83463919D01*
X147976502Y-83348080D01*
X147881920Y-83253498D01*
X147766081Y-83186619D01*
X147705942Y-83170504D01*
X148268716Y-82607731D01*
X148268715Y-82607730D01*
X148231432Y-82580641D01*
X148074668Y-82500765D01*
X148023872Y-82452790D01*
X148007077Y-82384969D01*
X148029615Y-82318834D01*
X148074667Y-82279796D01*
X148231694Y-82199787D01*
X148392464Y-82082981D01*
X148532981Y-81942464D01*
X148649787Y-81781694D01*
X148740005Y-81604632D01*
X148741479Y-81600097D01*
X148753776Y-81562248D01*
X148801413Y-81415636D01*
X148832500Y-81219361D01*
X148832500Y-81020639D01*
X148801413Y-80824364D01*
X148740005Y-80635368D01*
X148740005Y-80635367D01*
X148649786Y-80458305D01*
X148647220Y-80454773D01*
X148532981Y-80297536D01*
X148392464Y-80157019D01*
X148231694Y-80040213D01*
X148075218Y-79960484D01*
X148024423Y-79912510D01*
X148007628Y-79844689D01*
X148030165Y-79778554D01*
X148075218Y-79739515D01*
X148231694Y-79659787D01*
X148392464Y-79542981D01*
X148532981Y-79402464D01*
X148649787Y-79241694D01*
X148740005Y-79064632D01*
X148801413Y-78875636D01*
X148832500Y-78679361D01*
X148832500Y-78480639D01*
X148801413Y-78284364D01*
X148740005Y-78095368D01*
X148740005Y-78095367D01*
X148649786Y-77918305D01*
X148647220Y-77914773D01*
X148532981Y-77757536D01*
X148392464Y-77617019D01*
X148231694Y-77500213D01*
X148075218Y-77420484D01*
X148024423Y-77372510D01*
X148007628Y-77304689D01*
X148030165Y-77238554D01*
X148075218Y-77199515D01*
X148231694Y-77119787D01*
X148392464Y-77002981D01*
X148532981Y-76862464D01*
X148649787Y-76701694D01*
X148740005Y-76524632D01*
X148801413Y-76335636D01*
X148832500Y-76139361D01*
X148832500Y-75940639D01*
X148801413Y-75744364D01*
X148740005Y-75555368D01*
X148740005Y-75555367D01*
X148649786Y-75378305D01*
X148578741Y-75280520D01*
X148532981Y-75217536D01*
X148392464Y-75077019D01*
X148231694Y-74960213D01*
X148075218Y-74880484D01*
X148024423Y-74832510D01*
X148007628Y-74764689D01*
X148030165Y-74698554D01*
X148075218Y-74659515D01*
X148231694Y-74579787D01*
X148392464Y-74462981D01*
X148532981Y-74322464D01*
X148649787Y-74161694D01*
X148740005Y-73984632D01*
X148801413Y-73795636D01*
X148832500Y-73599361D01*
X148832500Y-73400639D01*
X148801413Y-73204364D01*
X148740005Y-73015368D01*
X148740005Y-73015367D01*
X148694035Y-72925149D01*
X148649787Y-72838306D01*
X148532981Y-72677536D01*
X148392464Y-72537019D01*
X148231694Y-72420213D01*
X148075218Y-72340484D01*
X148024423Y-72292510D01*
X148007628Y-72224689D01*
X148030165Y-72158554D01*
X148075218Y-72119515D01*
X148231694Y-72039787D01*
X148392464Y-71922981D01*
X148532981Y-71782464D01*
X148649787Y-71621694D01*
X148649791Y-71621684D01*
X148651004Y-71619708D01*
X148651663Y-71619111D01*
X148652651Y-71617752D01*
X148652936Y-71617959D01*
X148702818Y-71572834D01*
X148756730Y-71560501D01*
X148919054Y-71560501D01*
X148919057Y-71560501D01*
X149071785Y-71519577D01*
X149121904Y-71490639D01*
X149208716Y-71440520D01*
X149320520Y-71328716D01*
X149320520Y-71328714D01*
X149330728Y-71318507D01*
X149330729Y-71318504D01*
X150480520Y-70168716D01*
X150559577Y-70031784D01*
X150600501Y-69879057D01*
X150600501Y-69720942D01*
X150600501Y-69713347D01*
X150600500Y-69713329D01*
X150600500Y-49318206D01*
X155299500Y-49318206D01*
X155299500Y-49681794D01*
X155299694Y-49683760D01*
X155335137Y-50043630D01*
X155406064Y-50400212D01*
X155406067Y-50400223D01*
X155511614Y-50748165D01*
X155650754Y-51084078D01*
X155650756Y-51084083D01*
X155822140Y-51404720D01*
X155822151Y-51404738D01*
X156024140Y-51707035D01*
X156024150Y-51707049D01*
X156254807Y-51988106D01*
X156511893Y-52245192D01*
X156511898Y-52245196D01*
X156511899Y-52245197D01*
X156792956Y-52475854D01*
X157095268Y-52677853D01*
X157095277Y-52677858D01*
X157095279Y-52677859D01*
X157415916Y-52849243D01*
X157415918Y-52849243D01*
X157415924Y-52849247D01*
X157751836Y-52988386D01*
X158099767Y-53093930D01*
X158099773Y-53093931D01*
X158099776Y-53093932D01*
X158099787Y-53093935D01*
X158456369Y-53164862D01*
X158818206Y-53200500D01*
X158818209Y-53200500D01*
X159181791Y-53200500D01*
X159181794Y-53200500D01*
X159543631Y-53164862D01*
X159613045Y-53151054D01*
X159900212Y-53093935D01*
X159900223Y-53093932D01*
X159900223Y-53093931D01*
X159900233Y-53093930D01*
X160248164Y-52988386D01*
X160584076Y-52849247D01*
X160904732Y-52677853D01*
X161207044Y-52475854D01*
X161488101Y-52245197D01*
X161745197Y-51988101D01*
X161975854Y-51707044D01*
X162177853Y-51404732D01*
X162349247Y-51084076D01*
X162488386Y-50748164D01*
X162593930Y-50400233D01*
X162593932Y-50400223D01*
X162593935Y-50400212D01*
X162664862Y-50043630D01*
X162671270Y-49978567D01*
X162700500Y-49681794D01*
X162700500Y-49318206D01*
X162664862Y-48956369D01*
X162593935Y-48599787D01*
X162593932Y-48599776D01*
X162593931Y-48599773D01*
X162593930Y-48599767D01*
X162488386Y-48251836D01*
X162349247Y-47915924D01*
X162177853Y-47595268D01*
X161975854Y-47292956D01*
X161745197Y-47011899D01*
X161745196Y-47011898D01*
X161745192Y-47011893D01*
X161488106Y-46754807D01*
X161207049Y-46524150D01*
X161207048Y-46524149D01*
X161207044Y-46524146D01*
X160904732Y-46322147D01*
X160904727Y-46322144D01*
X160904720Y-46322140D01*
X160584083Y-46150756D01*
X160584078Y-46150754D01*
X160248165Y-46011614D01*
X159900223Y-45906067D01*
X159900212Y-45906064D01*
X159543630Y-45835137D01*
X159271111Y-45808296D01*
X159181794Y-45799500D01*
X158818206Y-45799500D01*
X158735679Y-45807628D01*
X158456369Y-45835137D01*
X158099787Y-45906064D01*
X158099776Y-45906067D01*
X157751834Y-46011614D01*
X157415921Y-46150754D01*
X157415916Y-46150756D01*
X157095279Y-46322140D01*
X157095261Y-46322151D01*
X156792964Y-46524140D01*
X156792950Y-46524150D01*
X156511893Y-46754807D01*
X156254807Y-47011893D01*
X156024150Y-47292950D01*
X156024140Y-47292964D01*
X155822151Y-47595261D01*
X155822140Y-47595279D01*
X155650756Y-47915916D01*
X155650754Y-47915921D01*
X155511614Y-48251834D01*
X155406067Y-48599776D01*
X155406064Y-48599787D01*
X155335137Y-48956369D01*
X155307628Y-49235679D01*
X155299500Y-49318206D01*
X150600500Y-49318206D01*
X150600500Y-46300097D01*
X150620185Y-46233058D01*
X150636819Y-46212416D01*
X153012416Y-43836819D01*
X153073739Y-43803334D01*
X153100097Y-43800500D01*
X176279903Y-43800500D01*
X176346942Y-43820185D01*
X176367584Y-43836819D01*
X180968584Y-48437819D01*
X181002069Y-48499142D01*
X180997085Y-48568834D01*
X180955213Y-48624767D01*
X180889749Y-48649184D01*
X180880903Y-48649500D01*
X180733713Y-48649500D01*
X180685042Y-48657208D01*
X180523760Y-48682753D01*
X180321585Y-48748444D01*
X180132179Y-48844951D01*
X179960215Y-48969889D01*
X179846673Y-49083431D01*
X179785350Y-49116915D01*
X179715658Y-49111931D01*
X179659725Y-49070059D01*
X179642810Y-49039082D01*
X179593797Y-48907671D01*
X179593793Y-48907664D01*
X179507547Y-48792455D01*
X179507544Y-48792452D01*
X179392335Y-48706206D01*
X179392328Y-48706202D01*
X179257482Y-48655908D01*
X179257483Y-48655908D01*
X179197883Y-48649501D01*
X179197881Y-48649500D01*
X179197873Y-48649500D01*
X179197864Y-48649500D01*
X177402129Y-48649500D01*
X177402123Y-48649501D01*
X177342516Y-48655908D01*
X177207671Y-48706202D01*
X177207664Y-48706206D01*
X177092455Y-48792452D01*
X177092452Y-48792455D01*
X177006206Y-48907664D01*
X177006202Y-48907671D01*
X176955908Y-49042517D01*
X176949501Y-49102116D01*
X176949500Y-49102135D01*
X176949500Y-50897870D01*
X176949501Y-50897876D01*
X176955908Y-50957483D01*
X177006202Y-51092328D01*
X177006206Y-51092335D01*
X177092452Y-51207544D01*
X177092455Y-51207547D01*
X177207664Y-51293793D01*
X177207671Y-51293797D01*
X177342517Y-51344091D01*
X177342516Y-51344091D01*
X177349444Y-51344835D01*
X177402127Y-51350500D01*
X179197872Y-51350499D01*
X179257483Y-51344091D01*
X179392331Y-51293796D01*
X179507546Y-51207546D01*
X179593796Y-51092331D01*
X179642810Y-50960916D01*
X179684681Y-50904984D01*
X179750145Y-50880566D01*
X179818418Y-50895417D01*
X179846673Y-50916569D01*
X179960213Y-51030109D01*
X180132179Y-51155048D01*
X180132181Y-51155049D01*
X180132184Y-51155051D01*
X180321588Y-51251557D01*
X180523757Y-51317246D01*
X180733713Y-51350500D01*
X180733714Y-51350500D01*
X180946286Y-51350500D01*
X180946287Y-51350500D01*
X181156243Y-51317246D01*
X181358412Y-51251557D01*
X181547816Y-51155051D01*
X181569789Y-51139086D01*
X181719786Y-51030109D01*
X181719788Y-51030106D01*
X181719792Y-51030104D01*
X181870104Y-50879792D01*
X181870106Y-50879788D01*
X181870109Y-50879786D01*
X181995048Y-50707820D01*
X181995047Y-50707820D01*
X181995051Y-50707816D01*
X181999514Y-50699054D01*
X182047488Y-50648259D01*
X182115308Y-50631463D01*
X182181444Y-50653999D01*
X182220486Y-50699056D01*
X182224951Y-50707820D01*
X182349890Y-50879786D01*
X182500213Y-51030109D01*
X182672179Y-51155048D01*
X182672181Y-51155049D01*
X182672184Y-51155051D01*
X182861588Y-51251557D01*
X183063757Y-51317246D01*
X183273713Y-51350500D01*
X183273714Y-51350500D01*
X183486286Y-51350500D01*
X183486287Y-51350500D01*
X183696243Y-51317246D01*
X183898412Y-51251557D01*
X184087816Y-51155051D01*
X184109789Y-51139086D01*
X184259786Y-51030109D01*
X184259788Y-51030106D01*
X184259792Y-51030104D01*
X184410104Y-50879792D01*
X184410106Y-50879788D01*
X184410109Y-50879786D01*
X184535048Y-50707820D01*
X184535047Y-50707820D01*
X184535051Y-50707816D01*
X184539514Y-50699054D01*
X184587488Y-50648259D01*
X184655308Y-50631463D01*
X184721444Y-50653999D01*
X184760486Y-50699056D01*
X184764951Y-50707820D01*
X184889890Y-50879786D01*
X185040213Y-51030109D01*
X185212179Y-51155048D01*
X185212181Y-51155049D01*
X185212184Y-51155051D01*
X185401588Y-51251557D01*
X185603757Y-51317246D01*
X185813713Y-51350500D01*
X185813714Y-51350500D01*
X186026286Y-51350500D01*
X186026287Y-51350500D01*
X186236243Y-51317246D01*
X186438412Y-51251557D01*
X186627816Y-51155051D01*
X186649789Y-51139086D01*
X186799786Y-51030109D01*
X186799788Y-51030106D01*
X186799792Y-51030104D01*
X186950104Y-50879792D01*
X186950106Y-50879788D01*
X186950109Y-50879786D01*
X187075048Y-50707820D01*
X187075047Y-50707820D01*
X187075051Y-50707816D01*
X187079514Y-50699054D01*
X187127488Y-50648259D01*
X187195308Y-50631463D01*
X187261444Y-50653999D01*
X187300486Y-50699056D01*
X187304951Y-50707820D01*
X187429890Y-50879786D01*
X187580213Y-51030109D01*
X187752179Y-51155048D01*
X187752181Y-51155049D01*
X187752184Y-51155051D01*
X187941588Y-51251557D01*
X188143757Y-51317246D01*
X188353713Y-51350500D01*
X188353714Y-51350500D01*
X188566286Y-51350500D01*
X188566287Y-51350500D01*
X188776243Y-51317246D01*
X188978412Y-51251557D01*
X189167816Y-51155051D01*
X189189789Y-51139086D01*
X189339786Y-51030109D01*
X189339788Y-51030106D01*
X189339792Y-51030104D01*
X189490104Y-50879792D01*
X189490106Y-50879788D01*
X189490109Y-50879786D01*
X189615048Y-50707820D01*
X189615047Y-50707820D01*
X189615051Y-50707816D01*
X189619514Y-50699054D01*
X189667488Y-50648259D01*
X189735308Y-50631463D01*
X189801444Y-50653999D01*
X189840486Y-50699056D01*
X189844951Y-50707820D01*
X189969890Y-50879786D01*
X190120213Y-51030109D01*
X190292179Y-51155048D01*
X190292181Y-51155049D01*
X190292184Y-51155051D01*
X190481588Y-51251557D01*
X190683757Y-51317246D01*
X190893713Y-51350500D01*
X190893714Y-51350500D01*
X191106286Y-51350500D01*
X191106287Y-51350500D01*
X191316243Y-51317246D01*
X191518412Y-51251557D01*
X191707816Y-51155051D01*
X191729789Y-51139086D01*
X191879786Y-51030109D01*
X191879788Y-51030106D01*
X191879792Y-51030104D01*
X192030104Y-50879792D01*
X192030106Y-50879788D01*
X192030109Y-50879786D01*
X192097515Y-50787007D01*
X192155051Y-50707816D01*
X192159793Y-50698508D01*
X192207763Y-50647711D01*
X192275583Y-50630911D01*
X192341719Y-50653445D01*
X192380763Y-50698500D01*
X192385373Y-50707547D01*
X192424728Y-50761716D01*
X193057037Y-50129408D01*
X193074075Y-50192993D01*
X193139901Y-50307007D01*
X193232993Y-50400099D01*
X193347007Y-50465925D01*
X193410590Y-50482962D01*
X192778282Y-51115269D01*
X192778282Y-51115270D01*
X192832449Y-51154624D01*
X193021782Y-51251095D01*
X193223869Y-51316757D01*
X193223873Y-51316758D01*
X193335107Y-51334375D01*
X193398242Y-51364304D01*
X193435174Y-51423615D01*
X193434176Y-51493477D01*
X193403391Y-51544529D01*
X182949368Y-61998554D01*
X179489711Y-65458211D01*
X179433960Y-65513962D01*
X179378209Y-65569712D01*
X179290609Y-65700814D01*
X179290602Y-65700827D01*
X179230264Y-65846498D01*
X179230261Y-65846510D01*
X179199500Y-66001153D01*
X179199500Y-98175500D01*
X179179815Y-98242539D01*
X179127011Y-98288294D01*
X179075500Y-98299500D01*
X178752130Y-98299500D01*
X178752123Y-98299501D01*
X178692516Y-98305908D01*
X178557671Y-98356202D01*
X178557664Y-98356206D01*
X178442455Y-98442452D01*
X178442452Y-98442455D01*
X178356206Y-98557664D01*
X178356202Y-98557671D01*
X178305908Y-98692517D01*
X178299501Y-98752116D01*
X178299501Y-98752123D01*
X178299500Y-98752135D01*
X178299500Y-101247870D01*
X178299501Y-101247876D01*
X178305908Y-101307483D01*
X178356202Y-101442328D01*
X178356206Y-101442335D01*
X178442452Y-101557544D01*
X178442455Y-101557547D01*
X178557664Y-101643793D01*
X178557671Y-101643797D01*
X178692517Y-101694091D01*
X178692516Y-101694091D01*
X178699444Y-101694835D01*
X178752127Y-101700500D01*
X181247872Y-101700499D01*
X181307483Y-101694091D01*
X181442331Y-101643796D01*
X181557546Y-101557546D01*
X181643796Y-101442331D01*
X181694091Y-101307483D01*
X181700500Y-101247873D01*
X181700499Y-99888575D01*
X183380000Y-99888575D01*
X183380000Y-100111424D01*
X183409085Y-100332354D01*
X183409088Y-100332367D01*
X183466763Y-100547618D01*
X183552045Y-100753502D01*
X183552054Y-100753520D01*
X183663464Y-100946491D01*
X183663473Y-100946504D01*
X183714040Y-101012403D01*
X183714043Y-101012403D01*
X184364152Y-100362293D01*
X184371049Y-100378942D01*
X184458599Y-100509970D01*
X184570030Y-100621401D01*
X184701058Y-100708951D01*
X184717705Y-100715846D01*
X184067595Y-101365955D01*
X184067595Y-101365956D01*
X184133507Y-101416533D01*
X184326485Y-101527949D01*
X184326497Y-101527954D01*
X184532381Y-101613236D01*
X184747632Y-101670911D01*
X184747645Y-101670914D01*
X184968575Y-101700000D01*
X185191425Y-101700000D01*
X185412354Y-101670914D01*
X185412367Y-101670911D01*
X185627618Y-101613236D01*
X185833502Y-101527954D01*
X185833514Y-101527949D01*
X186026498Y-101416530D01*
X186092403Y-101365957D01*
X186092404Y-101365956D01*
X185442294Y-100715846D01*
X185458942Y-100708951D01*
X185589970Y-100621401D01*
X185701401Y-100509970D01*
X185788951Y-100378942D01*
X185795846Y-100362294D01*
X186445956Y-101012404D01*
X186445957Y-101012403D01*
X186496530Y-100946498D01*
X186607949Y-100753514D01*
X186607954Y-100753502D01*
X186693236Y-100547618D01*
X186750911Y-100332367D01*
X186750914Y-100332354D01*
X186780000Y-100111424D01*
X186780000Y-99888575D01*
X186779997Y-99888549D01*
X188459500Y-99888549D01*
X188459500Y-100111450D01*
X188459501Y-100111466D01*
X188488594Y-100332452D01*
X188488595Y-100332457D01*
X188488596Y-100332463D01*
X188546290Y-100547780D01*
X188546293Y-100547790D01*
X188631593Y-100753722D01*
X188631595Y-100753726D01*
X188743052Y-100946774D01*
X188743057Y-100946780D01*
X188743058Y-100946782D01*
X188878751Y-101123622D01*
X188878757Y-101123629D01*
X189036370Y-101281242D01*
X189036377Y-101281248D01*
X189119397Y-101344951D01*
X189213226Y-101416948D01*
X189406274Y-101528405D01*
X189476622Y-101557544D01*
X189611074Y-101613236D01*
X189612219Y-101613710D01*
X189827537Y-101671404D01*
X190048543Y-101700500D01*
X190048550Y-101700500D01*
X190271450Y-101700500D01*
X190271457Y-101700500D01*
X190492463Y-101671404D01*
X190707781Y-101613710D01*
X190913726Y-101528405D01*
X191106774Y-101416948D01*
X191283624Y-101281247D01*
X191441247Y-101123624D01*
X191576948Y-100946774D01*
X191688405Y-100753726D01*
X191773710Y-100547781D01*
X191831404Y-100332463D01*
X191860500Y-100111457D01*
X191860500Y-99888549D01*
X193539500Y-99888549D01*
X193539500Y-100111450D01*
X193539501Y-100111466D01*
X193568594Y-100332452D01*
X193568595Y-100332457D01*
X193568596Y-100332463D01*
X193626290Y-100547780D01*
X193626293Y-100547790D01*
X193711593Y-100753722D01*
X193711595Y-100753726D01*
X193823052Y-100946774D01*
X193823057Y-100946780D01*
X193823058Y-100946782D01*
X193958751Y-101123622D01*
X193958757Y-101123629D01*
X194116370Y-101281242D01*
X194116377Y-101281248D01*
X194199397Y-101344951D01*
X194293226Y-101416948D01*
X194486274Y-101528405D01*
X194556622Y-101557544D01*
X194691074Y-101613236D01*
X194692219Y-101613710D01*
X194907537Y-101671404D01*
X195128543Y-101700500D01*
X195128550Y-101700500D01*
X195351450Y-101700500D01*
X195351457Y-101700500D01*
X195572463Y-101671404D01*
X195787781Y-101613710D01*
X195993726Y-101528405D01*
X196186774Y-101416948D01*
X196363624Y-101281247D01*
X196521247Y-101123624D01*
X196656948Y-100946774D01*
X196768405Y-100753726D01*
X196853710Y-100547781D01*
X196911404Y-100332463D01*
X196940500Y-100111457D01*
X196940500Y-99888543D01*
X196911404Y-99667537D01*
X196853710Y-99452219D01*
X196768405Y-99246274D01*
X196656948Y-99053226D01*
X196521247Y-98876376D01*
X196521242Y-98876370D01*
X196363629Y-98718757D01*
X196363622Y-98718751D01*
X196186782Y-98583058D01*
X196186780Y-98583057D01*
X196186774Y-98583052D01*
X195993726Y-98471595D01*
X195993722Y-98471593D01*
X195787790Y-98386293D01*
X195787783Y-98386291D01*
X195787781Y-98386290D01*
X195572463Y-98328596D01*
X195572457Y-98328595D01*
X195572452Y-98328594D01*
X195351466Y-98299501D01*
X195351463Y-98299500D01*
X195351457Y-98299500D01*
X195128543Y-98299500D01*
X195128537Y-98299500D01*
X195128533Y-98299501D01*
X194907547Y-98328594D01*
X194907540Y-98328595D01*
X194907537Y-98328596D01*
X194804502Y-98356204D01*
X194692219Y-98386290D01*
X194692209Y-98386293D01*
X194486277Y-98471593D01*
X194486273Y-98471595D01*
X194293226Y-98583052D01*
X194293217Y-98583058D01*
X194116377Y-98718751D01*
X194116370Y-98718757D01*
X193958757Y-98876370D01*
X193958751Y-98876377D01*
X193823058Y-99053217D01*
X193823052Y-99053226D01*
X193711595Y-99246273D01*
X193711593Y-99246277D01*
X193626293Y-99452209D01*
X193626290Y-99452219D01*
X193568597Y-99667534D01*
X193568594Y-99667547D01*
X193539501Y-99888533D01*
X193539500Y-99888549D01*
X191860500Y-99888549D01*
X191860500Y-99888543D01*
X191831404Y-99667537D01*
X191773710Y-99452219D01*
X191688405Y-99246274D01*
X191576948Y-99053226D01*
X191441247Y-98876376D01*
X191441242Y-98876370D01*
X191283629Y-98718757D01*
X191283622Y-98718751D01*
X191106782Y-98583058D01*
X191106780Y-98583057D01*
X191106774Y-98583052D01*
X190913726Y-98471595D01*
X190913722Y-98471593D01*
X190707790Y-98386293D01*
X190707783Y-98386291D01*
X190707781Y-98386290D01*
X190492463Y-98328596D01*
X190492457Y-98328595D01*
X190492452Y-98328594D01*
X190271466Y-98299501D01*
X190271463Y-98299500D01*
X190271457Y-98299500D01*
X190048543Y-98299500D01*
X190048537Y-98299500D01*
X190048533Y-98299501D01*
X189827547Y-98328594D01*
X189827540Y-98328595D01*
X189827537Y-98328596D01*
X189724502Y-98356204D01*
X189612219Y-98386290D01*
X189612209Y-98386293D01*
X189406277Y-98471593D01*
X189406273Y-98471595D01*
X189213226Y-98583052D01*
X189213217Y-98583058D01*
X189036377Y-98718751D01*
X189036370Y-98718757D01*
X188878757Y-98876370D01*
X188878751Y-98876377D01*
X188743058Y-99053217D01*
X188743052Y-99053226D01*
X188631595Y-99246273D01*
X188631593Y-99246277D01*
X188546293Y-99452209D01*
X188546290Y-99452219D01*
X188488597Y-99667534D01*
X188488594Y-99667547D01*
X188459501Y-99888533D01*
X188459500Y-99888549D01*
X186779997Y-99888549D01*
X186750914Y-99667645D01*
X186750911Y-99667632D01*
X186693236Y-99452381D01*
X186607954Y-99246497D01*
X186607949Y-99246485D01*
X186496533Y-99053507D01*
X186445956Y-98987595D01*
X186445955Y-98987595D01*
X185795846Y-99637704D01*
X185788951Y-99621058D01*
X185701401Y-99490030D01*
X185589970Y-99378599D01*
X185458942Y-99291049D01*
X185442293Y-99284152D01*
X186092403Y-98634043D01*
X186092403Y-98634040D01*
X186026504Y-98583473D01*
X186026491Y-98583464D01*
X185833520Y-98472054D01*
X185833502Y-98472045D01*
X185627618Y-98386763D01*
X185412367Y-98329088D01*
X185412354Y-98329085D01*
X185191425Y-98300000D01*
X184968575Y-98300000D01*
X184747645Y-98329085D01*
X184747632Y-98329088D01*
X184532381Y-98386763D01*
X184326497Y-98472045D01*
X184326479Y-98472054D01*
X184133511Y-98583462D01*
X184067595Y-98634042D01*
X184717706Y-99284152D01*
X184701058Y-99291049D01*
X184570030Y-99378599D01*
X184458599Y-99490030D01*
X184371049Y-99621058D01*
X184364153Y-99637706D01*
X183714042Y-98987595D01*
X183663462Y-99053511D01*
X183552054Y-99246479D01*
X183552045Y-99246497D01*
X183466763Y-99452381D01*
X183409088Y-99667632D01*
X183409085Y-99667645D01*
X183380000Y-99888575D01*
X181700499Y-99888575D01*
X181700499Y-98752128D01*
X181694385Y-98695248D01*
X181694385Y-98695246D01*
X181694092Y-98692519D01*
X181643797Y-98557671D01*
X181643793Y-98557664D01*
X181557547Y-98442455D01*
X181557544Y-98442452D01*
X181442335Y-98356206D01*
X181442328Y-98356202D01*
X181307482Y-98305908D01*
X181307483Y-98305908D01*
X181247883Y-98299501D01*
X181247881Y-98299500D01*
X181247873Y-98299500D01*
X181247865Y-98299500D01*
X180924500Y-98299500D01*
X180857461Y-98279815D01*
X180811706Y-98227011D01*
X180800500Y-98175500D01*
X180800500Y-66462939D01*
X180820185Y-66395900D01*
X180836814Y-66375263D01*
X181802900Y-65409177D01*
X184717900Y-65409177D01*
X184717900Y-65606022D01*
X184748690Y-65800426D01*
X184809517Y-65987629D01*
X184854586Y-66076081D01*
X184898876Y-66163005D01*
X185014572Y-66322246D01*
X185153754Y-66461428D01*
X185264230Y-66541694D01*
X185312996Y-66577125D01*
X185490163Y-66667395D01*
X185540960Y-66715369D01*
X185557755Y-66783190D01*
X185535218Y-66849325D01*
X185490164Y-66888365D01*
X185313256Y-66978504D01*
X185154078Y-67094155D01*
X185014955Y-67233278D01*
X184899304Y-67392456D01*
X184809981Y-67567762D01*
X184749181Y-67754883D01*
X184742416Y-67797600D01*
X186285388Y-67797600D01*
X186252475Y-67854607D01*
X186218400Y-67981774D01*
X186218400Y-68113426D01*
X186252475Y-68240593D01*
X186285388Y-68297600D01*
X184742416Y-68297600D01*
X184749181Y-68340316D01*
X184809981Y-68527437D01*
X184899304Y-68702743D01*
X185014955Y-68861921D01*
X185154078Y-69001044D01*
X185313256Y-69116695D01*
X185490164Y-69206834D01*
X185540960Y-69254808D01*
X185557755Y-69322629D01*
X185535218Y-69388764D01*
X185490164Y-69427804D01*
X185312994Y-69518076D01*
X185245740Y-69566940D01*
X185153754Y-69633772D01*
X185153752Y-69633774D01*
X185153751Y-69633774D01*
X185014574Y-69772951D01*
X185014574Y-69772952D01*
X185014572Y-69772954D01*
X184964885Y-69841341D01*
X184898876Y-69932194D01*
X184809517Y-70107570D01*
X184748690Y-70294773D01*
X184717900Y-70489177D01*
X184717900Y-70686022D01*
X184748690Y-70880426D01*
X184809517Y-71067629D01*
X184866930Y-71180307D01*
X184898876Y-71243005D01*
X185014572Y-71402246D01*
X185153754Y-71541428D01*
X185312995Y-71657124D01*
X185436392Y-71719997D01*
X185489613Y-71747115D01*
X185540409Y-71795089D01*
X185557204Y-71862910D01*
X185534667Y-71929045D01*
X185489613Y-71968085D01*
X185312994Y-72058076D01*
X185228432Y-72119515D01*
X185153754Y-72173772D01*
X185153752Y-72173774D01*
X185153751Y-72173774D01*
X185014574Y-72312951D01*
X185014574Y-72312952D01*
X185014572Y-72312954D01*
X184964885Y-72381341D01*
X184898876Y-72472194D01*
X184809517Y-72647570D01*
X184748690Y-72834773D01*
X184717900Y-73029177D01*
X184717900Y-73226022D01*
X184748690Y-73420426D01*
X184809517Y-73607629D01*
X184866930Y-73720307D01*
X184898876Y-73783005D01*
X185014572Y-73942246D01*
X185153754Y-74081428D01*
X185312995Y-74197124D01*
X185436392Y-74259997D01*
X185489613Y-74287115D01*
X185540409Y-74335089D01*
X185557204Y-74402910D01*
X185534667Y-74469045D01*
X185489613Y-74508085D01*
X185312994Y-74598076D01*
X185228432Y-74659515D01*
X185153754Y-74713772D01*
X185153752Y-74713774D01*
X185153751Y-74713774D01*
X185014574Y-74852951D01*
X185014574Y-74852952D01*
X185014572Y-74852954D01*
X184964885Y-74921341D01*
X184898876Y-75012194D01*
X184809517Y-75187570D01*
X184748690Y-75374773D01*
X184717900Y-75569177D01*
X184717900Y-75766022D01*
X184748690Y-75960426D01*
X184809517Y-76147629D01*
X184898876Y-76323005D01*
X185014572Y-76482246D01*
X185153754Y-76621428D01*
X185312995Y-76737124D01*
X185436392Y-76799997D01*
X185489613Y-76827115D01*
X185540409Y-76875089D01*
X185557204Y-76942910D01*
X185534667Y-77009045D01*
X185489613Y-77048085D01*
X185312994Y-77138076D01*
X185251354Y-77182861D01*
X185153754Y-77253772D01*
X185153752Y-77253774D01*
X185153751Y-77253774D01*
X185014574Y-77392951D01*
X185014574Y-77392952D01*
X185014572Y-77392954D01*
X184964885Y-77461341D01*
X184898876Y-77552194D01*
X184809517Y-77727570D01*
X184748690Y-77914773D01*
X184717900Y-78109177D01*
X184717900Y-78306022D01*
X184748690Y-78500426D01*
X184809517Y-78687629D01*
X184898876Y-78863005D01*
X185014572Y-79022246D01*
X185153754Y-79161428D01*
X185312995Y-79277124D01*
X185436392Y-79339997D01*
X185489613Y-79367115D01*
X185540409Y-79415089D01*
X185557204Y-79482910D01*
X185534667Y-79549045D01*
X185489613Y-79588085D01*
X185312994Y-79678076D01*
X185228432Y-79739515D01*
X185153754Y-79793772D01*
X185153752Y-79793774D01*
X185153751Y-79793774D01*
X185014574Y-79932951D01*
X185014574Y-79932952D01*
X185014572Y-79932954D01*
X184964885Y-80001341D01*
X184898876Y-80092194D01*
X184809517Y-80267570D01*
X184748690Y-80454773D01*
X184717900Y-80649177D01*
X184717900Y-80846022D01*
X184748690Y-81040426D01*
X184809517Y-81227629D01*
X184891770Y-81389059D01*
X184898876Y-81403005D01*
X185014572Y-81562246D01*
X185153754Y-81701428D01*
X185312995Y-81817124D01*
X185436392Y-81879997D01*
X185489613Y-81907115D01*
X185540409Y-81955089D01*
X185557204Y-82022910D01*
X185534667Y-82089045D01*
X185489613Y-82128085D01*
X185312994Y-82218076D01*
X185222141Y-82284085D01*
X185153754Y-82333772D01*
X185153752Y-82333774D01*
X185153751Y-82333774D01*
X185014574Y-82472951D01*
X185014574Y-82472952D01*
X185014572Y-82472954D01*
X184994367Y-82500764D01*
X184898876Y-82632194D01*
X184809517Y-82807570D01*
X184748690Y-82994773D01*
X184717900Y-83189177D01*
X184717900Y-83386022D01*
X184748690Y-83580426D01*
X184809517Y-83767629D01*
X184854586Y-83856081D01*
X184898876Y-83943005D01*
X185014572Y-84102246D01*
X185153754Y-84241428D01*
X185312995Y-84357124D01*
X185395855Y-84399343D01*
X185488370Y-84446482D01*
X185488372Y-84446482D01*
X185488375Y-84446484D01*
X185588717Y-84479087D01*
X185675573Y-84507309D01*
X185869978Y-84538100D01*
X185869983Y-84538100D01*
X187566822Y-84538100D01*
X187761226Y-84507309D01*
X187837684Y-84482466D01*
X187948425Y-84446484D01*
X188123805Y-84357124D01*
X188283046Y-84241428D01*
X188422228Y-84102246D01*
X188537924Y-83943005D01*
X188627284Y-83767625D01*
X188688109Y-83580426D01*
X188706562Y-83463919D01*
X188718900Y-83386022D01*
X188718900Y-83189177D01*
X188688109Y-82994773D01*
X188627282Y-82807570D01*
X188537923Y-82632194D01*
X188422228Y-82472954D01*
X188283046Y-82333772D01*
X188203425Y-82275924D01*
X188123803Y-82218074D01*
X187947187Y-82128085D01*
X187896390Y-82080111D01*
X187879595Y-82012290D01*
X187902132Y-81946155D01*
X187947187Y-81907115D01*
X188123803Y-81817125D01*
X188123802Y-81817125D01*
X188123805Y-81817124D01*
X188283046Y-81701428D01*
X188422228Y-81562246D01*
X188537924Y-81403005D01*
X188627284Y-81227625D01*
X188688109Y-81040426D01*
X188705395Y-80931285D01*
X188718900Y-80846022D01*
X188718900Y-80649177D01*
X188688109Y-80454773D01*
X188627282Y-80267570D01*
X188537923Y-80092194D01*
X188422228Y-79932954D01*
X188283046Y-79793772D01*
X188203425Y-79735924D01*
X188123803Y-79678074D01*
X187947187Y-79588085D01*
X187896390Y-79540111D01*
X187879595Y-79472290D01*
X187902132Y-79406155D01*
X187947187Y-79367115D01*
X188123803Y-79277125D01*
X188123802Y-79277125D01*
X188123805Y-79277124D01*
X188283046Y-79161428D01*
X188422228Y-79022246D01*
X188537924Y-78863005D01*
X188627284Y-78687625D01*
X188688109Y-78500426D01*
X188691243Y-78480639D01*
X188718900Y-78306022D01*
X188718900Y-78109177D01*
X188688109Y-77914773D01*
X188627282Y-77727570D01*
X188537923Y-77552194D01*
X188422228Y-77392954D01*
X188283046Y-77253772D01*
X188185446Y-77182861D01*
X188123803Y-77138074D01*
X187947187Y-77048085D01*
X187896390Y-77000111D01*
X187879595Y-76932290D01*
X187902132Y-76866155D01*
X187947187Y-76827115D01*
X188123803Y-76737125D01*
X188123802Y-76737125D01*
X188123805Y-76737124D01*
X188283046Y-76621428D01*
X188422228Y-76482246D01*
X188537924Y-76323005D01*
X188627284Y-76147625D01*
X188688109Y-75960426D01*
X188691243Y-75940639D01*
X188718900Y-75766022D01*
X188718900Y-75569177D01*
X188688109Y-75374773D01*
X188627282Y-75187570D01*
X188547908Y-75031790D01*
X188537924Y-75012195D01*
X188422228Y-74852954D01*
X188283046Y-74713772D01*
X188171148Y-74632473D01*
X188123803Y-74598074D01*
X187947187Y-74508085D01*
X187896390Y-74460111D01*
X187879595Y-74392290D01*
X187902132Y-74326155D01*
X187947187Y-74287115D01*
X188123803Y-74197125D01*
X188123802Y-74197125D01*
X188123805Y-74197124D01*
X188283046Y-74081428D01*
X188422228Y-73942246D01*
X188537924Y-73783005D01*
X188627284Y-73607625D01*
X188688109Y-73420426D01*
X188691243Y-73400639D01*
X188718900Y-73226022D01*
X188718900Y-73029177D01*
X188688109Y-72834773D01*
X188627282Y-72647570D01*
X188537923Y-72472194D01*
X188422228Y-72312954D01*
X188283046Y-72173772D01*
X188171148Y-72092473D01*
X188123803Y-72058074D01*
X187947187Y-71968085D01*
X187896390Y-71920111D01*
X187879595Y-71852290D01*
X187902132Y-71786155D01*
X187947187Y-71747115D01*
X188123803Y-71657125D01*
X188123802Y-71657125D01*
X188123805Y-71657124D01*
X188283046Y-71541428D01*
X188422228Y-71402246D01*
X188537924Y-71243005D01*
X188627284Y-71067625D01*
X188688109Y-70880426D01*
X188691243Y-70860639D01*
X188718900Y-70686022D01*
X188718900Y-70489177D01*
X188688109Y-70294773D01*
X188627282Y-70107570D01*
X188537923Y-69932194D01*
X188422228Y-69772954D01*
X188283046Y-69633772D01*
X188123805Y-69518076D01*
X187948425Y-69428716D01*
X187948424Y-69428715D01*
X187946635Y-69427804D01*
X187895839Y-69379830D01*
X187879044Y-69312009D01*
X187901581Y-69245874D01*
X187946636Y-69206834D01*
X188123541Y-69116697D01*
X188282721Y-69001044D01*
X188421844Y-68861921D01*
X188537495Y-68702743D01*
X188626818Y-68527437D01*
X188687618Y-68340316D01*
X188694384Y-68297600D01*
X187151412Y-68297600D01*
X187184325Y-68240593D01*
X187218400Y-68113426D01*
X187218400Y-67981774D01*
X187184325Y-67854607D01*
X187151412Y-67797600D01*
X188694384Y-67797600D01*
X188687618Y-67754883D01*
X188626818Y-67567762D01*
X188537495Y-67392456D01*
X188421844Y-67233278D01*
X188282721Y-67094155D01*
X188123543Y-66978504D01*
X187946635Y-66888365D01*
X187895839Y-66840390D01*
X187879044Y-66772569D01*
X187901581Y-66706435D01*
X187946636Y-66667395D01*
X187948422Y-66666484D01*
X187948425Y-66666484D01*
X188123805Y-66577124D01*
X188283046Y-66461428D01*
X188422228Y-66322246D01*
X188537924Y-66163005D01*
X188627284Y-65987625D01*
X188688109Y-65800426D01*
X188706562Y-65683919D01*
X188718900Y-65606022D01*
X188718900Y-65409177D01*
X188688109Y-65214773D01*
X188627282Y-65027570D01*
X188537923Y-64852194D01*
X188422228Y-64692954D01*
X188283046Y-64553772D01*
X188123805Y-64438076D01*
X188087909Y-64419786D01*
X187948429Y-64348717D01*
X187761226Y-64287890D01*
X187566822Y-64257100D01*
X187566817Y-64257100D01*
X185869983Y-64257100D01*
X185869978Y-64257100D01*
X185675573Y-64287890D01*
X185488370Y-64348717D01*
X185312994Y-64438076D01*
X185222141Y-64504085D01*
X185153754Y-64553772D01*
X185153752Y-64553774D01*
X185153751Y-64553774D01*
X185014574Y-64692951D01*
X185014574Y-64692952D01*
X185014572Y-64692954D01*
X184994367Y-64720764D01*
X184898876Y-64852194D01*
X184809517Y-65027570D01*
X184748690Y-65214773D01*
X184717900Y-65409177D01*
X181802900Y-65409177D01*
X195832235Y-51379841D01*
X195893556Y-51346358D01*
X195939311Y-51345051D01*
X195973713Y-51350500D01*
X195973714Y-51350500D01*
X196186286Y-51350500D01*
X196186287Y-51350500D01*
X196396243Y-51317246D01*
X196598412Y-51251557D01*
X196787816Y-51155051D01*
X196809789Y-51139086D01*
X196959786Y-51030109D01*
X196959788Y-51030106D01*
X196959792Y-51030104D01*
X197110104Y-50879792D01*
X197110106Y-50879788D01*
X197110109Y-50879786D01*
X197235048Y-50707820D01*
X197235047Y-50707820D01*
X197235051Y-50707816D01*
X197331557Y-50518412D01*
X197397246Y-50316243D01*
X197430500Y-50106287D01*
X197430500Y-49893713D01*
X197397246Y-49683757D01*
X197331557Y-49481588D01*
X197235051Y-49292184D01*
X197235049Y-49292181D01*
X197235048Y-49292179D01*
X197110109Y-49120213D01*
X196959786Y-48969890D01*
X196787820Y-48844951D01*
X196598414Y-48748444D01*
X196598413Y-48748443D01*
X196598412Y-48748443D01*
X196396243Y-48682754D01*
X196396241Y-48682753D01*
X196396240Y-48682753D01*
X196234957Y-48657208D01*
X196186287Y-48649500D01*
X195973713Y-48649500D01*
X195925042Y-48657208D01*
X195763760Y-48682753D01*
X195561585Y-48748444D01*
X195372179Y-48844951D01*
X195200213Y-48969890D01*
X195049890Y-49120213D01*
X194924949Y-49292182D01*
X194920202Y-49301499D01*
X194872227Y-49352293D01*
X194804405Y-49369087D01*
X194738271Y-49346548D01*
X194699234Y-49301495D01*
X194694626Y-49292452D01*
X194655270Y-49238282D01*
X194655269Y-49238282D01*
X194022962Y-49870590D01*
X194005925Y-49807007D01*
X193940099Y-49692993D01*
X193847007Y-49599901D01*
X193732993Y-49534075D01*
X193669409Y-49517037D01*
X194301716Y-48884728D01*
X194247550Y-48845375D01*
X194058217Y-48748904D01*
X193856129Y-48683242D01*
X193646246Y-48650000D01*
X193433754Y-48650000D01*
X193223872Y-48683242D01*
X193223869Y-48683242D01*
X193021782Y-48748904D01*
X192832439Y-48845380D01*
X192778282Y-48884727D01*
X192778282Y-48884728D01*
X193410591Y-49517037D01*
X193347007Y-49534075D01*
X193232993Y-49599901D01*
X193139901Y-49692993D01*
X193074075Y-49807007D01*
X193057037Y-49870591D01*
X192424728Y-49238282D01*
X192424727Y-49238282D01*
X192385380Y-49292440D01*
X192385376Y-49292446D01*
X192380760Y-49301505D01*
X192332781Y-49352297D01*
X192264959Y-49369087D01*
X192198826Y-49346543D01*
X192159794Y-49301493D01*
X192155051Y-49292184D01*
X192155049Y-49292181D01*
X192155048Y-49292179D01*
X192030109Y-49120213D01*
X191879786Y-48969890D01*
X191707820Y-48844951D01*
X191518414Y-48748444D01*
X191518413Y-48748443D01*
X191518412Y-48748443D01*
X191316243Y-48682754D01*
X191316241Y-48682753D01*
X191316240Y-48682753D01*
X191154957Y-48657208D01*
X191106287Y-48649500D01*
X190893713Y-48649500D01*
X190865006Y-48654046D01*
X190683757Y-48682753D01*
X190641473Y-48696492D01*
X190571632Y-48698486D01*
X190515476Y-48666241D01*
X181487590Y-39638355D01*
X181487588Y-39638352D01*
X181368717Y-39519481D01*
X181368716Y-39519480D01*
X181281904Y-39469360D01*
X181281904Y-39469359D01*
X181281900Y-39469358D01*
X181231785Y-39440423D01*
X181079057Y-39399499D01*
X180920943Y-39399499D01*
X180913347Y-39399499D01*
X180913331Y-39399500D01*
X150020940Y-39399500D01*
X149980019Y-39410464D01*
X149980019Y-39410465D01*
X149942751Y-39420451D01*
X149868214Y-39440423D01*
X149868209Y-39440426D01*
X149731290Y-39519475D01*
X149731282Y-39519481D01*
X143319481Y-45931282D01*
X143319479Y-45931285D01*
X143282723Y-45994950D01*
X143282722Y-45994952D01*
X143240423Y-46068214D01*
X143240423Y-46068215D01*
X143199499Y-46220943D01*
X143199499Y-46379057D01*
X143199499Y-46379059D01*
X143199500Y-46389053D01*
X143199500Y-74713330D01*
X143199499Y-74713348D01*
X143199499Y-74879054D01*
X143199498Y-74879054D01*
X93500500Y-74879054D01*
X93500500Y-50752135D01*
X100219500Y-50752135D01*
X100219500Y-53247870D01*
X100219501Y-53247876D01*
X100225908Y-53307483D01*
X100276202Y-53442328D01*
X100276206Y-53442335D01*
X100362452Y-53557544D01*
X100362455Y-53557547D01*
X100477664Y-53643793D01*
X100477671Y-53643797D01*
X100612517Y-53694091D01*
X100612516Y-53694091D01*
X100619444Y-53694835D01*
X100672127Y-53700500D01*
X103167872Y-53700499D01*
X103227483Y-53694091D01*
X103362331Y-53643796D01*
X103477546Y-53557546D01*
X103563796Y-53442331D01*
X103614091Y-53307483D01*
X103620500Y-53247873D01*
X103620499Y-51888575D01*
X105300000Y-51888575D01*
X105300000Y-52111424D01*
X105329085Y-52332354D01*
X105329088Y-52332367D01*
X105386763Y-52547618D01*
X105472045Y-52753502D01*
X105472054Y-52753520D01*
X105583464Y-52946491D01*
X105583473Y-52946504D01*
X105634040Y-53012403D01*
X105634043Y-53012403D01*
X106284152Y-52362293D01*
X106291049Y-52378942D01*
X106378599Y-52509970D01*
X106490030Y-52621401D01*
X106621058Y-52708951D01*
X106637705Y-52715846D01*
X105987595Y-53365955D01*
X105987595Y-53365956D01*
X106053507Y-53416533D01*
X106246485Y-53527949D01*
X106246497Y-53527954D01*
X106452381Y-53613236D01*
X106667632Y-53670911D01*
X106667645Y-53670914D01*
X106888575Y-53700000D01*
X107111425Y-53700000D01*
X107332354Y-53670914D01*
X107332367Y-53670911D01*
X107547618Y-53613236D01*
X107753502Y-53527954D01*
X107753514Y-53527949D01*
X107946498Y-53416530D01*
X108012403Y-53365957D01*
X108012404Y-53365956D01*
X107362294Y-52715846D01*
X107378942Y-52708951D01*
X107509970Y-52621401D01*
X107621401Y-52509970D01*
X107708951Y-52378942D01*
X107715846Y-52362294D01*
X108365956Y-53012404D01*
X108365957Y-53012403D01*
X108416530Y-52946498D01*
X108527949Y-52753514D01*
X108527954Y-52753502D01*
X108613236Y-52547618D01*
X108670911Y-52332367D01*
X108670914Y-52332354D01*
X108700000Y-52111424D01*
X108700000Y-51888575D01*
X108670914Y-51667645D01*
X108670911Y-51667632D01*
X108613236Y-51452381D01*
X108527954Y-51246497D01*
X108527949Y-51246485D01*
X108416533Y-51053507D01*
X108365956Y-50987595D01*
X108365955Y-50987595D01*
X107715846Y-51637704D01*
X107708951Y-51621058D01*
X107621401Y-51490030D01*
X107509970Y-51378599D01*
X107378942Y-51291049D01*
X107362293Y-51284152D01*
X108012403Y-50634043D01*
X108012403Y-50634040D01*
X107946504Y-50583473D01*
X107946491Y-50583464D01*
X107753520Y-50472054D01*
X107753502Y-50472045D01*
X107547618Y-50386763D01*
X107332367Y-50329088D01*
X107332354Y-50329085D01*
X107111425Y-50300000D01*
X106888575Y-50300000D01*
X106667645Y-50329085D01*
X106667632Y-50329088D01*
X106452381Y-50386763D01*
X106246497Y-50472045D01*
X106246479Y-50472054D01*
X106053511Y-50583462D01*
X105987595Y-50634042D01*
X106637706Y-51284152D01*
X106621058Y-51291049D01*
X106490030Y-51378599D01*
X106378599Y-51490030D01*
X106291049Y-51621058D01*
X106284153Y-51637706D01*
X105634042Y-50987595D01*
X105583462Y-51053511D01*
X105472054Y-51246479D01*
X105472045Y-51246497D01*
X105386763Y-51452381D01*
X105329088Y-51667632D01*
X105329085Y-51667645D01*
X105300000Y-51888575D01*
X103620499Y-51888575D01*
X103620499Y-50752128D01*
X103614794Y-50699056D01*
X103614385Y-50695248D01*
X103614385Y-50695246D01*
X103614092Y-50692519D01*
X103563797Y-50557671D01*
X103563793Y-50557664D01*
X103477547Y-50442455D01*
X103477544Y-50442452D01*
X103362335Y-50356206D01*
X103362328Y-50356202D01*
X103227482Y-50305908D01*
X103227483Y-50305908D01*
X103167883Y-50299501D01*
X103167881Y-50299500D01*
X103167873Y-50299500D01*
X103167864Y-50299500D01*
X100672129Y-50299500D01*
X100672123Y-50299501D01*
X100612516Y-50305908D01*
X100477671Y-50356202D01*
X100477664Y-50356206D01*
X100362455Y-50442452D01*
X100362452Y-50442455D01*
X100276206Y-50557664D01*
X100276202Y-50557671D01*
X100225908Y-50692517D01*
X100219926Y-50748164D01*
X100219501Y-50752123D01*
X100219500Y-50752135D01*
X93500500Y-50752135D01*
X93500500Y-49318206D01*
X125299500Y-49318206D01*
X125299500Y-49681794D01*
X125299694Y-49683760D01*
X125335137Y-50043630D01*
X125406064Y-50400212D01*
X125406067Y-50400223D01*
X125511614Y-50748165D01*
X125650754Y-51084078D01*
X125650756Y-51084083D01*
X125822140Y-51404720D01*
X125822151Y-51404738D01*
X126024140Y-51707035D01*
X126024150Y-51707049D01*
X126254807Y-51988106D01*
X126511893Y-52245192D01*
X126511898Y-52245196D01*
X126511899Y-52245197D01*
X126792956Y-52475854D01*
X127095268Y-52677853D01*
X127095277Y-52677858D01*
X127095279Y-52677859D01*
X127415916Y-52849243D01*
X127415918Y-52849243D01*
X127415924Y-52849247D01*
X127751836Y-52988386D01*
X128099767Y-53093930D01*
X128099773Y-53093931D01*
X128099776Y-53093932D01*
X128099787Y-53093935D01*
X128456369Y-53164862D01*
X128818206Y-53200500D01*
X128818209Y-53200500D01*
X129181791Y-53200500D01*
X129181794Y-53200500D01*
X129543631Y-53164862D01*
X129613045Y-53151054D01*
X129900212Y-53093935D01*
X129900223Y-53093932D01*
X129900223Y-53093931D01*
X129900233Y-53093930D01*
X130248164Y-52988386D01*
X130584076Y-52849247D01*
X130904732Y-52677853D01*
X131207044Y-52475854D01*
X131488101Y-52245197D01*
X131745197Y-51988101D01*
X131975854Y-51707044D01*
X132177853Y-51404732D01*
X132349247Y-51084076D01*
X132488386Y-50748164D01*
X132593930Y-50400233D01*
X132593932Y-50400223D01*
X132593935Y-50400212D01*
X132664862Y-50043630D01*
X132671270Y-49978567D01*
X132700500Y-49681794D01*
X132700500Y-49318206D01*
X132664862Y-48956369D01*
X132593935Y-48599787D01*
X132593932Y-48599776D01*
X132593931Y-48599773D01*
X132593930Y-48599767D01*
X132488386Y-48251836D01*
X132349247Y-47915924D01*
X132177853Y-47595268D01*
X131975854Y-47292956D01*
X131745197Y-47011899D01*
X131745196Y-47011898D01*
X131745192Y-47011893D01*
X131488106Y-46754807D01*
X131207049Y-46524150D01*
X131207048Y-46524149D01*
X131207044Y-46524146D01*
X130904732Y-46322147D01*
X130868207Y-46302624D01*
X130584083Y-46150756D01*
X130584078Y-46150754D01*
X130248165Y-46011614D01*
X129900223Y-45906067D01*
X129900212Y-45906064D01*
X129543630Y-45835137D01*
X129271111Y-45808296D01*
X129181794Y-45799500D01*
X128818206Y-45799500D01*
X128735679Y-45807628D01*
X128456369Y-45835137D01*
X128099787Y-45906064D01*
X128099776Y-45906067D01*
X127751834Y-46011614D01*
X127415921Y-46150754D01*
X127415916Y-46150756D01*
X127095279Y-46322140D01*
X127095261Y-46322151D01*
X126792964Y-46524140D01*
X126792950Y-46524150D01*
X126511893Y-46754807D01*
X126254807Y-47011893D01*
X126024150Y-47292950D01*
X126024140Y-47292964D01*
X125822151Y-47595261D01*
X125822140Y-47595279D01*
X125650756Y-47915916D01*
X125650754Y-47915921D01*
X125511614Y-48251834D01*
X125406067Y-48599776D01*
X125406064Y-48599787D01*
X125335137Y-48956369D01*
X125307628Y-49235679D01*
X125299500Y-49318206D01*
X93500500Y-49318206D01*
X93500500Y-46704875D01*
X93500882Y-46695146D01*
X93505686Y-46634108D01*
X93514502Y-46522078D01*
X93517544Y-46502873D01*
X93556932Y-46338812D01*
X93562938Y-46320327D01*
X93627505Y-46164449D01*
X93636338Y-46147115D01*
X93678043Y-46079060D01*
X93724485Y-46003271D01*
X93735920Y-45987533D01*
X93783961Y-45931284D01*
X93845492Y-45859239D01*
X93859239Y-45845492D01*
X93987535Y-45735917D01*
X94003274Y-45724484D01*
X94147118Y-45636336D01*
X94164449Y-45627505D01*
X94320327Y-45562938D01*
X94338812Y-45556932D01*
X94502873Y-45517544D01*
X94522078Y-45514502D01*
X94695146Y-45500881D01*
X94704875Y-45500500D01*
X94765892Y-45500500D01*
X100439384Y-45500500D01*
X100444510Y-45501760D01*
X100505209Y-45500500D01*
X100565892Y-45500500D01*
X100565893Y-45500500D01*
X100570456Y-45499899D01*
X100570618Y-45499886D01*
X100571731Y-45499717D01*
X100571733Y-45499717D01*
X100576259Y-45499025D01*
X100576265Y-45499025D01*
X100633441Y-45482424D01*
X100635691Y-45481796D01*
X100693186Y-45466392D01*
X100693193Y-45466387D01*
X100697449Y-45464626D01*
X100697458Y-45464622D01*
X100698446Y-45464212D01*
X100698611Y-45464129D01*
X100702811Y-45462285D01*
X100702824Y-45462282D01*
X100754753Y-45430845D01*
X100807314Y-45400500D01*
X100811044Y-45396769D01*
X100815560Y-45394036D01*
X100857579Y-45350234D01*
X100900500Y-45307314D01*
X100903139Y-45302742D01*
X100906791Y-45298936D01*
X100925551Y-45264825D01*
X100935421Y-45246881D01*
X100936648Y-45244700D01*
X100966392Y-45193186D01*
X100966393Y-45193180D01*
X100968158Y-45188921D01*
X100974069Y-45176610D01*
X106260599Y-35564742D01*
X106310155Y-35515487D01*
X106369250Y-35500500D01*
X185630750Y-35500500D01*
X185697789Y-35520185D01*
G37*
G04 #@! TD.AperFunction*
M02*
