M48
; DRILL file {KiCad 9.0.4} date 2025-09-11T10:43:26+0700
; FORMAT={-:-/ absolute / metric / decimal}
; #@! TF.CreationDate,2025-09-11T10:43:26+07:00
; #@! TF.GenerationSoftware,Kicad,Pcbnew,9.0.4
; #@! TF.FileFunction,Plated,1,4,PTH
FMAT,2
METRIC
; #@! TA.AperFunction,Plated,PTH,ComponentDrill
T1C1.000
; #@! TA.AperFunction,Plated,PTH,ComponentDrill
T2C1.016
; #@! TA.AperFunction,Plated,PTH,ComponentDrill
T3C1.600
; #@! TA.AperFunction,Plated,PTH,ComponentDrill
T4C3.200
%
G90
G05
T1
X140.5Y-102.5
X143.04Y-102.5
X178.3Y-50.0
X180.84Y-50.0
X183.38Y-50.0
X185.92Y-50.0
X186.718Y-65.508
X186.718Y-68.048
X186.718Y-70.588
X186.718Y-73.128
X186.718Y-75.668
X186.718Y-78.208
X186.718Y-80.748
X186.718Y-83.288
X188.46Y-50.0
X191.0Y-50.0
X193.54Y-50.0
X196.08Y-50.0
T2
X147.57Y-50.64
X147.57Y-53.18
X147.57Y-55.72
X147.57Y-58.26
X147.57Y-60.8
X147.57Y-63.34
X147.57Y-65.88
X147.57Y-68.42
X147.57Y-70.96
X147.57Y-73.5
X147.57Y-76.04
X147.57Y-78.58
X147.57Y-81.12
X147.57Y-83.66
X147.57Y-86.2
X147.57Y-88.74
X147.57Y-91.28
X147.57Y-93.82
X147.57Y-96.36
X170.43Y-50.64
X170.43Y-53.18
X170.43Y-55.72
X170.43Y-58.26
X170.43Y-60.8
X170.43Y-63.34
X170.43Y-65.88
X170.43Y-68.42
X170.43Y-70.96
X170.43Y-73.5
X170.43Y-76.04
X170.43Y-78.58
X170.43Y-81.12
X170.43Y-83.66
X170.43Y-86.2
X170.43Y-88.74
X170.43Y-91.28
X170.43Y-93.82
X170.43Y-96.36
T3
X99.76Y-100.0
X101.92Y-52.0
X104.84Y-100.0
X107.0Y-52.0
X109.92Y-100.0
X115.0Y-100.0
X180.0Y-100.0
X185.08Y-100.0
X190.16Y-100.0
X195.24Y-100.0
T4
X129.0Y-49.5
X129.0Y-104.5
X159.0Y-49.5
X159.0Y-104.5
M30
