%TF.GenerationSoftware,KiCad,Pcbnew,9.0.4*%
%TF.CreationDate,2025-09-11T10:43:26+07:00*%
%TF.ProjectId,BreakoutBoard,42726561-6b6f-4757-9442-6f6172642e6b,rev?*%
%TF.SameCoordinates,Original*%
%TF.FileFunction,Drillmap*%
%TF.FilePolarity,Positive*%
%FSLAX45Y45*%
G04 Gerber Fmt 4.5, Leading zero omitted, Abs format (unit mm)*
G04 Created by KiCad (PCBNEW 9.0.4) date 2025-09-11 10:43:26*
%MOMM*%
%LPD*%
G01*
G04 APERTURE LIST*
%ADD10C,0.038100*%
%ADD11C,0.200000*%
%ADD12C,0.100000*%
%ADD13C,0.101600*%
%ADD14C,0.160000*%
%ADD15C,0.320000*%
G04 APERTURE END LIST*
D10*
X10526923Y-11900000D02*
X18473077Y-11900000D01*
X20300000Y-10730000D02*
X20300000Y-4670000D01*
X18600000Y-3500000D02*
X19150000Y-4500000D01*
X18473077Y-11900000D02*
X19050000Y-10900000D01*
X10600000Y-3500000D02*
X18600000Y-3500000D01*
X16085000Y-10450000D02*
G75*
G02*
X15715000Y-10450000I-185000J0D01*
G01*
X15715000Y-10450000D02*
G75*
G02*
X16085000Y-10450000I185000J0D01*
G01*
X10050000Y-4500000D02*
X9470000Y-4500000D01*
X20130000Y-4500000D02*
G75*
G02*
X20300000Y-4670000I0J-170000D01*
G01*
X9470000Y-10900000D02*
G75*
G02*
X9300000Y-10730000I0J170000D01*
G01*
X9470000Y-10900000D02*
X9950000Y-10900000D01*
X9300000Y-4670000D02*
X9300000Y-10730000D01*
X9950000Y-10900000D02*
X10526923Y-11900000D01*
X20300000Y-10730000D02*
G75*
G02*
X20130000Y-10900000I-170000J0D01*
G01*
X9300000Y-4670000D02*
G75*
G02*
X9470000Y-4500000I170000J0D01*
G01*
X20130000Y-4500000D02*
X19150000Y-4500000D01*
X19050000Y-10900000D02*
X20130000Y-10900000D01*
X10050000Y-4500000D02*
X10600000Y-3500000D01*
D11*
D12*
X14000000Y-10200000D02*
X14100000Y-10300000D01*
X14100000Y-10200000D02*
X14000000Y-10300000D01*
X14254000Y-10200000D02*
X14354000Y-10300000D01*
X14354000Y-10200000D02*
X14254000Y-10300000D01*
X17780000Y-4950000D02*
X17880000Y-5050000D01*
X17880000Y-4950000D02*
X17780000Y-5050000D01*
X18034000Y-4950000D02*
X18134000Y-5050000D01*
X18134000Y-4950000D02*
X18034000Y-5050000D01*
X18288000Y-4950000D02*
X18388000Y-5050000D01*
X18388000Y-4950000D02*
X18288000Y-5050000D01*
X18542000Y-4950000D02*
X18642000Y-5050000D01*
X18642000Y-4950000D02*
X18542000Y-5050000D01*
X18621840Y-6500760D02*
X18721840Y-6600760D01*
X18721840Y-6500760D02*
X18621840Y-6600760D01*
X18621840Y-6754760D02*
X18721840Y-6854760D01*
X18721840Y-6754760D02*
X18621840Y-6854760D01*
X18621840Y-7008760D02*
X18721840Y-7108760D01*
X18721840Y-7008760D02*
X18621840Y-7108760D01*
X18621840Y-7262760D02*
X18721840Y-7362760D01*
X18721840Y-7262760D02*
X18621840Y-7362760D01*
X18621840Y-7516760D02*
X18721840Y-7616760D01*
X18721840Y-7516760D02*
X18621840Y-7616760D01*
X18621840Y-7770760D02*
X18721840Y-7870760D01*
X18721840Y-7770760D02*
X18621840Y-7870760D01*
X18621840Y-8024760D02*
X18721840Y-8124760D01*
X18721840Y-8024760D02*
X18621840Y-8124760D01*
X18621840Y-8278760D02*
X18721840Y-8378760D01*
X18721840Y-8278760D02*
X18621840Y-8378760D01*
X18796000Y-4950000D02*
X18896000Y-5050000D01*
X18896000Y-4950000D02*
X18796000Y-5050000D01*
X19050000Y-4950000D02*
X19150000Y-5050000D01*
X19150000Y-4950000D02*
X19050000Y-5050000D01*
X19304000Y-4950000D02*
X19404000Y-5050000D01*
X19404000Y-4950000D02*
X19304000Y-5050000D01*
X19558000Y-4950000D02*
X19658000Y-5050000D01*
X19658000Y-4950000D02*
X19558000Y-5050000D01*
D13*
X14807800Y-5064000D02*
G75*
G02*
X14706200Y-5064000I-50800J0D01*
G01*
X14706200Y-5064000D02*
G75*
G02*
X14807800Y-5064000I50800J0D01*
G01*
X14807800Y-5318000D02*
G75*
G02*
X14706200Y-5318000I-50800J0D01*
G01*
X14706200Y-5318000D02*
G75*
G02*
X14807800Y-5318000I50800J0D01*
G01*
X14807800Y-5572000D02*
G75*
G02*
X14706200Y-5572000I-50800J0D01*
G01*
X14706200Y-5572000D02*
G75*
G02*
X14807800Y-5572000I50800J0D01*
G01*
X14807800Y-5826000D02*
G75*
G02*
X14706200Y-5826000I-50800J0D01*
G01*
X14706200Y-5826000D02*
G75*
G02*
X14807800Y-5826000I50800J0D01*
G01*
X14807800Y-6080000D02*
G75*
G02*
X14706200Y-6080000I-50800J0D01*
G01*
X14706200Y-6080000D02*
G75*
G02*
X14807800Y-6080000I50800J0D01*
G01*
X14807800Y-6334000D02*
G75*
G02*
X14706200Y-6334000I-50800J0D01*
G01*
X14706200Y-6334000D02*
G75*
G02*
X14807800Y-6334000I50800J0D01*
G01*
X14807800Y-6588000D02*
G75*
G02*
X14706200Y-6588000I-50800J0D01*
G01*
X14706200Y-6588000D02*
G75*
G02*
X14807800Y-6588000I50800J0D01*
G01*
X14807800Y-6842000D02*
G75*
G02*
X14706200Y-6842000I-50800J0D01*
G01*
X14706200Y-6842000D02*
G75*
G02*
X14807800Y-6842000I50800J0D01*
G01*
X14807800Y-7096000D02*
G75*
G02*
X14706200Y-7096000I-50800J0D01*
G01*
X14706200Y-7096000D02*
G75*
G02*
X14807800Y-7096000I50800J0D01*
G01*
X14807800Y-7350000D02*
G75*
G02*
X14706200Y-7350000I-50800J0D01*
G01*
X14706200Y-7350000D02*
G75*
G02*
X14807800Y-7350000I50800J0D01*
G01*
X14807800Y-7604000D02*
G75*
G02*
X14706200Y-7604000I-50800J0D01*
G01*
X14706200Y-7604000D02*
G75*
G02*
X14807800Y-7604000I50800J0D01*
G01*
X14807800Y-7858000D02*
G75*
G02*
X14706200Y-7858000I-50800J0D01*
G01*
X14706200Y-7858000D02*
G75*
G02*
X14807800Y-7858000I50800J0D01*
G01*
X14807800Y-8112000D02*
G75*
G02*
X14706200Y-8112000I-50800J0D01*
G01*
X14706200Y-8112000D02*
G75*
G02*
X14807800Y-8112000I50800J0D01*
G01*
X14807800Y-8366000D02*
G75*
G02*
X14706200Y-8366000I-50800J0D01*
G01*
X14706200Y-8366000D02*
G75*
G02*
X14807800Y-8366000I50800J0D01*
G01*
X14807800Y-8620000D02*
G75*
G02*
X14706200Y-8620000I-50800J0D01*
G01*
X14706200Y-8620000D02*
G75*
G02*
X14807800Y-8620000I50800J0D01*
G01*
X14807800Y-8874000D02*
G75*
G02*
X14706200Y-8874000I-50800J0D01*
G01*
X14706200Y-8874000D02*
G75*
G02*
X14807800Y-8874000I50800J0D01*
G01*
X14807800Y-9128000D02*
G75*
G02*
X14706200Y-9128000I-50800J0D01*
G01*
X14706200Y-9128000D02*
G75*
G02*
X14807800Y-9128000I50800J0D01*
G01*
X14807800Y-9382000D02*
G75*
G02*
X14706200Y-9382000I-50800J0D01*
G01*
X14706200Y-9382000D02*
G75*
G02*
X14807800Y-9382000I50800J0D01*
G01*
X14807800Y-9636000D02*
G75*
G02*
X14706200Y-9636000I-50800J0D01*
G01*
X14706200Y-9636000D02*
G75*
G02*
X14807800Y-9636000I50800J0D01*
G01*
X17093800Y-5064000D02*
G75*
G02*
X16992200Y-5064000I-50800J0D01*
G01*
X16992200Y-5064000D02*
G75*
G02*
X17093800Y-5064000I50800J0D01*
G01*
X17093800Y-5318000D02*
G75*
G02*
X16992200Y-5318000I-50800J0D01*
G01*
X16992200Y-5318000D02*
G75*
G02*
X17093800Y-5318000I50800J0D01*
G01*
X17093800Y-5572000D02*
G75*
G02*
X16992200Y-5572000I-50800J0D01*
G01*
X16992200Y-5572000D02*
G75*
G02*
X17093800Y-5572000I50800J0D01*
G01*
X17093800Y-5826000D02*
G75*
G02*
X16992200Y-5826000I-50800J0D01*
G01*
X16992200Y-5826000D02*
G75*
G02*
X17093800Y-5826000I50800J0D01*
G01*
X17093800Y-6080000D02*
G75*
G02*
X16992200Y-6080000I-50800J0D01*
G01*
X16992200Y-6080000D02*
G75*
G02*
X17093800Y-6080000I50800J0D01*
G01*
X17093800Y-6334000D02*
G75*
G02*
X16992200Y-6334000I-50800J0D01*
G01*
X16992200Y-6334000D02*
G75*
G02*
X17093800Y-6334000I50800J0D01*
G01*
X17093800Y-6588000D02*
G75*
G02*
X16992200Y-6588000I-50800J0D01*
G01*
X16992200Y-6588000D02*
G75*
G02*
X17093800Y-6588000I50800J0D01*
G01*
X17093800Y-6842000D02*
G75*
G02*
X16992200Y-6842000I-50800J0D01*
G01*
X16992200Y-6842000D02*
G75*
G02*
X17093800Y-6842000I50800J0D01*
G01*
X17093800Y-7096000D02*
G75*
G02*
X16992200Y-7096000I-50800J0D01*
G01*
X16992200Y-7096000D02*
G75*
G02*
X17093800Y-7096000I50800J0D01*
G01*
X17093800Y-7350000D02*
G75*
G02*
X16992200Y-7350000I-50800J0D01*
G01*
X16992200Y-7350000D02*
G75*
G02*
X17093800Y-7350000I50800J0D01*
G01*
X17093800Y-7604000D02*
G75*
G02*
X16992200Y-7604000I-50800J0D01*
G01*
X16992200Y-7604000D02*
G75*
G02*
X17093800Y-7604000I50800J0D01*
G01*
X17093800Y-7858000D02*
G75*
G02*
X16992200Y-7858000I-50800J0D01*
G01*
X16992200Y-7858000D02*
G75*
G02*
X17093800Y-7858000I50800J0D01*
G01*
X17093800Y-8112000D02*
G75*
G02*
X16992200Y-8112000I-50800J0D01*
G01*
X16992200Y-8112000D02*
G75*
G02*
X17093800Y-8112000I50800J0D01*
G01*
X17093800Y-8366000D02*
G75*
G02*
X16992200Y-8366000I-50800J0D01*
G01*
X16992200Y-8366000D02*
G75*
G02*
X17093800Y-8366000I50800J0D01*
G01*
X17093800Y-8620000D02*
G75*
G02*
X16992200Y-8620000I-50800J0D01*
G01*
X16992200Y-8620000D02*
G75*
G02*
X17093800Y-8620000I50800J0D01*
G01*
X17093800Y-8874000D02*
G75*
G02*
X16992200Y-8874000I-50800J0D01*
G01*
X16992200Y-8874000D02*
G75*
G02*
X17093800Y-8874000I50800J0D01*
G01*
X17093800Y-9128000D02*
G75*
G02*
X16992200Y-9128000I-50800J0D01*
G01*
X16992200Y-9128000D02*
G75*
G02*
X17093800Y-9128000I50800J0D01*
G01*
X17093800Y-9382000D02*
G75*
G02*
X16992200Y-9382000I-50800J0D01*
G01*
X16992200Y-9382000D02*
G75*
G02*
X17093800Y-9382000I50800J0D01*
G01*
X17093800Y-9636000D02*
G75*
G02*
X16992200Y-9636000I-50800J0D01*
G01*
X16992200Y-9636000D02*
G75*
G02*
X17093800Y-9636000I50800J0D01*
G01*
D14*
X9976000Y-9920000D02*
X9976000Y-10080000D01*
X9896000Y-10000000D02*
X10056000Y-10000000D01*
X10192000Y-5120000D02*
X10192000Y-5280000D01*
X10112000Y-5200000D02*
X10272000Y-5200000D01*
X10484000Y-9920000D02*
X10484000Y-10080000D01*
X10404000Y-10000000D02*
X10564000Y-10000000D01*
X10700000Y-5120000D02*
X10700000Y-5280000D01*
X10620000Y-5200000D02*
X10780000Y-5200000D01*
X10992000Y-9920000D02*
X10992000Y-10080000D01*
X10912000Y-10000000D02*
X11072000Y-10000000D01*
X11500000Y-9920000D02*
X11500000Y-10080000D01*
X11420000Y-10000000D02*
X11580000Y-10000000D01*
X18000000Y-9920000D02*
X18000000Y-10080000D01*
X17920000Y-10000000D02*
X18080000Y-10000000D01*
X18508000Y-9920000D02*
X18508000Y-10080000D01*
X18428000Y-10000000D02*
X18588000Y-10000000D01*
X19016000Y-9920000D02*
X19016000Y-10080000D01*
X18936000Y-10000000D02*
X19096000Y-10000000D01*
X19524000Y-9920000D02*
X19524000Y-10080000D01*
X19444000Y-10000000D02*
X19604000Y-10000000D01*
D15*
X13013138Y-5063138D02*
X13013138Y-4836862D01*
X12786862Y-4836862D01*
X12786862Y-5063138D01*
X13013138Y-5063138D01*
X13013138Y-10563138D02*
X13013138Y-10336862D01*
X12786862Y-10336862D01*
X12786862Y-10563138D01*
X13013138Y-10563138D01*
X16013138Y-5063138D02*
X16013138Y-4836862D01*
X15786862Y-4836862D01*
X15786862Y-5063138D01*
X16013138Y-5063138D01*
X16013138Y-10563138D02*
X16013138Y-10336862D01*
X15786862Y-10336862D01*
X15786862Y-10563138D01*
X16013138Y-10563138D01*
D11*
X9558872Y-12213389D02*
X9558872Y-12013389D01*
X9558872Y-12013389D02*
X9606491Y-12013389D01*
X9606491Y-12013389D02*
X9635062Y-12022913D01*
X9635062Y-12022913D02*
X9654110Y-12041960D01*
X9654110Y-12041960D02*
X9663634Y-12061008D01*
X9663634Y-12061008D02*
X9673158Y-12099103D01*
X9673158Y-12099103D02*
X9673158Y-12127674D01*
X9673158Y-12127674D02*
X9663634Y-12165770D01*
X9663634Y-12165770D02*
X9654110Y-12184817D01*
X9654110Y-12184817D02*
X9635062Y-12203865D01*
X9635062Y-12203865D02*
X9606491Y-12213389D01*
X9606491Y-12213389D02*
X9558872Y-12213389D01*
X9758872Y-12213389D02*
X9758872Y-12080055D01*
X9758872Y-12118151D02*
X9768396Y-12099103D01*
X9768396Y-12099103D02*
X9777919Y-12089579D01*
X9777919Y-12089579D02*
X9796967Y-12080055D01*
X9796967Y-12080055D02*
X9816015Y-12080055D01*
X9882681Y-12213389D02*
X9882681Y-12080055D01*
X9882681Y-12013389D02*
X9873158Y-12022913D01*
X9873158Y-12022913D02*
X9882681Y-12032436D01*
X9882681Y-12032436D02*
X9892205Y-12022913D01*
X9892205Y-12022913D02*
X9882681Y-12013389D01*
X9882681Y-12013389D02*
X9882681Y-12032436D01*
X10006491Y-12213389D02*
X9987443Y-12203865D01*
X9987443Y-12203865D02*
X9977919Y-12184817D01*
X9977919Y-12184817D02*
X9977919Y-12013389D01*
X10111253Y-12213389D02*
X10092205Y-12203865D01*
X10092205Y-12203865D02*
X10082681Y-12184817D01*
X10082681Y-12184817D02*
X10082681Y-12013389D01*
X10339824Y-12213389D02*
X10339824Y-12013389D01*
X10339824Y-12013389D02*
X10406491Y-12156246D01*
X10406491Y-12156246D02*
X10473158Y-12013389D01*
X10473158Y-12013389D02*
X10473158Y-12213389D01*
X10654110Y-12213389D02*
X10654110Y-12108627D01*
X10654110Y-12108627D02*
X10644586Y-12089579D01*
X10644586Y-12089579D02*
X10625539Y-12080055D01*
X10625539Y-12080055D02*
X10587443Y-12080055D01*
X10587443Y-12080055D02*
X10568396Y-12089579D01*
X10654110Y-12203865D02*
X10635062Y-12213389D01*
X10635062Y-12213389D02*
X10587443Y-12213389D01*
X10587443Y-12213389D02*
X10568396Y-12203865D01*
X10568396Y-12203865D02*
X10558872Y-12184817D01*
X10558872Y-12184817D02*
X10558872Y-12165770D01*
X10558872Y-12165770D02*
X10568396Y-12146722D01*
X10568396Y-12146722D02*
X10587443Y-12137198D01*
X10587443Y-12137198D02*
X10635062Y-12137198D01*
X10635062Y-12137198D02*
X10654110Y-12127674D01*
X10749348Y-12080055D02*
X10749348Y-12280055D01*
X10749348Y-12089579D02*
X10768396Y-12080055D01*
X10768396Y-12080055D02*
X10806491Y-12080055D01*
X10806491Y-12080055D02*
X10825539Y-12089579D01*
X10825539Y-12089579D02*
X10835062Y-12099103D01*
X10835062Y-12099103D02*
X10844586Y-12118151D01*
X10844586Y-12118151D02*
X10844586Y-12175293D01*
X10844586Y-12175293D02*
X10835062Y-12194341D01*
X10835062Y-12194341D02*
X10825539Y-12203865D01*
X10825539Y-12203865D02*
X10806491Y-12213389D01*
X10806491Y-12213389D02*
X10768396Y-12213389D01*
X10768396Y-12213389D02*
X10749348Y-12203865D01*
X10930300Y-12194341D02*
X10939824Y-12203865D01*
X10939824Y-12203865D02*
X10930300Y-12213389D01*
X10930300Y-12213389D02*
X10920777Y-12203865D01*
X10920777Y-12203865D02*
X10930300Y-12194341D01*
X10930300Y-12194341D02*
X10930300Y-12213389D01*
X10930300Y-12089579D02*
X10939824Y-12099103D01*
X10939824Y-12099103D02*
X10930300Y-12108627D01*
X10930300Y-12108627D02*
X10920777Y-12099103D01*
X10920777Y-12099103D02*
X10930300Y-12089579D01*
X10930300Y-12089579D02*
X10930300Y-12108627D01*
D12*
X9198095Y-12491905D02*
X9298095Y-12591905D01*
X9298095Y-12491905D02*
X9198095Y-12591905D01*
D11*
X9663634Y-12633389D02*
X9549348Y-12633389D01*
X9606491Y-12633389D02*
X9606491Y-12433389D01*
X9606491Y-12433389D02*
X9587443Y-12461960D01*
X9587443Y-12461960D02*
X9568396Y-12481008D01*
X9568396Y-12481008D02*
X9549348Y-12490532D01*
X9749348Y-12614341D02*
X9758872Y-12623865D01*
X9758872Y-12623865D02*
X9749348Y-12633389D01*
X9749348Y-12633389D02*
X9739824Y-12623865D01*
X9739824Y-12623865D02*
X9749348Y-12614341D01*
X9749348Y-12614341D02*
X9749348Y-12633389D01*
X9882681Y-12433389D02*
X9901729Y-12433389D01*
X9901729Y-12433389D02*
X9920777Y-12442913D01*
X9920777Y-12442913D02*
X9930300Y-12452436D01*
X9930300Y-12452436D02*
X9939824Y-12471484D01*
X9939824Y-12471484D02*
X9949348Y-12509579D01*
X9949348Y-12509579D02*
X9949348Y-12557198D01*
X9949348Y-12557198D02*
X9939824Y-12595293D01*
X9939824Y-12595293D02*
X9930300Y-12614341D01*
X9930300Y-12614341D02*
X9920777Y-12623865D01*
X9920777Y-12623865D02*
X9901729Y-12633389D01*
X9901729Y-12633389D02*
X9882681Y-12633389D01*
X9882681Y-12633389D02*
X9863634Y-12623865D01*
X9863634Y-12623865D02*
X9854110Y-12614341D01*
X9854110Y-12614341D02*
X9844586Y-12595293D01*
X9844586Y-12595293D02*
X9835062Y-12557198D01*
X9835062Y-12557198D02*
X9835062Y-12509579D01*
X9835062Y-12509579D02*
X9844586Y-12471484D01*
X9844586Y-12471484D02*
X9854110Y-12452436D01*
X9854110Y-12452436D02*
X9863634Y-12442913D01*
X9863634Y-12442913D02*
X9882681Y-12433389D01*
X10073158Y-12433389D02*
X10092205Y-12433389D01*
X10092205Y-12433389D02*
X10111253Y-12442913D01*
X10111253Y-12442913D02*
X10120777Y-12452436D01*
X10120777Y-12452436D02*
X10130300Y-12471484D01*
X10130300Y-12471484D02*
X10139824Y-12509579D01*
X10139824Y-12509579D02*
X10139824Y-12557198D01*
X10139824Y-12557198D02*
X10130300Y-12595293D01*
X10130300Y-12595293D02*
X10120777Y-12614341D01*
X10120777Y-12614341D02*
X10111253Y-12623865D01*
X10111253Y-12623865D02*
X10092205Y-12633389D01*
X10092205Y-12633389D02*
X10073158Y-12633389D01*
X10073158Y-12633389D02*
X10054110Y-12623865D01*
X10054110Y-12623865D02*
X10044586Y-12614341D01*
X10044586Y-12614341D02*
X10035062Y-12595293D01*
X10035062Y-12595293D02*
X10025539Y-12557198D01*
X10025539Y-12557198D02*
X10025539Y-12509579D01*
X10025539Y-12509579D02*
X10035062Y-12471484D01*
X10035062Y-12471484D02*
X10044586Y-12452436D01*
X10044586Y-12452436D02*
X10054110Y-12442913D01*
X10054110Y-12442913D02*
X10073158Y-12433389D01*
X10263634Y-12433389D02*
X10282681Y-12433389D01*
X10282681Y-12433389D02*
X10301729Y-12442913D01*
X10301729Y-12442913D02*
X10311253Y-12452436D01*
X10311253Y-12452436D02*
X10320777Y-12471484D01*
X10320777Y-12471484D02*
X10330300Y-12509579D01*
X10330300Y-12509579D02*
X10330300Y-12557198D01*
X10330300Y-12557198D02*
X10320777Y-12595293D01*
X10320777Y-12595293D02*
X10311253Y-12614341D01*
X10311253Y-12614341D02*
X10301729Y-12623865D01*
X10301729Y-12623865D02*
X10282681Y-12633389D01*
X10282681Y-12633389D02*
X10263634Y-12633389D01*
X10263634Y-12633389D02*
X10244586Y-12623865D01*
X10244586Y-12623865D02*
X10235062Y-12614341D01*
X10235062Y-12614341D02*
X10225539Y-12595293D01*
X10225539Y-12595293D02*
X10216015Y-12557198D01*
X10216015Y-12557198D02*
X10216015Y-12509579D01*
X10216015Y-12509579D02*
X10225539Y-12471484D01*
X10225539Y-12471484D02*
X10235062Y-12452436D01*
X10235062Y-12452436D02*
X10244586Y-12442913D01*
X10244586Y-12442913D02*
X10263634Y-12433389D01*
X10416015Y-12633389D02*
X10416015Y-12500055D01*
X10416015Y-12519103D02*
X10425539Y-12509579D01*
X10425539Y-12509579D02*
X10444586Y-12500055D01*
X10444586Y-12500055D02*
X10473158Y-12500055D01*
X10473158Y-12500055D02*
X10492205Y-12509579D01*
X10492205Y-12509579D02*
X10501729Y-12528627D01*
X10501729Y-12528627D02*
X10501729Y-12633389D01*
X10501729Y-12528627D02*
X10511253Y-12509579D01*
X10511253Y-12509579D02*
X10530300Y-12500055D01*
X10530300Y-12500055D02*
X10558872Y-12500055D01*
X10558872Y-12500055D02*
X10577920Y-12509579D01*
X10577920Y-12509579D02*
X10587443Y-12528627D01*
X10587443Y-12528627D02*
X10587443Y-12633389D01*
X10682681Y-12633389D02*
X10682681Y-12500055D01*
X10682681Y-12519103D02*
X10692205Y-12509579D01*
X10692205Y-12509579D02*
X10711253Y-12500055D01*
X10711253Y-12500055D02*
X10739824Y-12500055D01*
X10739824Y-12500055D02*
X10758872Y-12509579D01*
X10758872Y-12509579D02*
X10768396Y-12528627D01*
X10768396Y-12528627D02*
X10768396Y-12633389D01*
X10768396Y-12528627D02*
X10777920Y-12509579D01*
X10777920Y-12509579D02*
X10796967Y-12500055D01*
X10796967Y-12500055D02*
X10825539Y-12500055D01*
X10825539Y-12500055D02*
X10844586Y-12509579D01*
X10844586Y-12509579D02*
X10854110Y-12528627D01*
X10854110Y-12528627D02*
X10854110Y-12633389D01*
X11244586Y-12423865D02*
X11073158Y-12681008D01*
X11501729Y-12433389D02*
X11520777Y-12433389D01*
X11520777Y-12433389D02*
X11539824Y-12442913D01*
X11539824Y-12442913D02*
X11549348Y-12452436D01*
X11549348Y-12452436D02*
X11558872Y-12471484D01*
X11558872Y-12471484D02*
X11568396Y-12509579D01*
X11568396Y-12509579D02*
X11568396Y-12557198D01*
X11568396Y-12557198D02*
X11558872Y-12595293D01*
X11558872Y-12595293D02*
X11549348Y-12614341D01*
X11549348Y-12614341D02*
X11539824Y-12623865D01*
X11539824Y-12623865D02*
X11520777Y-12633389D01*
X11520777Y-12633389D02*
X11501729Y-12633389D01*
X11501729Y-12633389D02*
X11482681Y-12623865D01*
X11482681Y-12623865D02*
X11473158Y-12614341D01*
X11473158Y-12614341D02*
X11463634Y-12595293D01*
X11463634Y-12595293D02*
X11454110Y-12557198D01*
X11454110Y-12557198D02*
X11454110Y-12509579D01*
X11454110Y-12509579D02*
X11463634Y-12471484D01*
X11463634Y-12471484D02*
X11473158Y-12452436D01*
X11473158Y-12452436D02*
X11482681Y-12442913D01*
X11482681Y-12442913D02*
X11501729Y-12433389D01*
X11654110Y-12614341D02*
X11663634Y-12623865D01*
X11663634Y-12623865D02*
X11654110Y-12633389D01*
X11654110Y-12633389D02*
X11644586Y-12623865D01*
X11644586Y-12623865D02*
X11654110Y-12614341D01*
X11654110Y-12614341D02*
X11654110Y-12633389D01*
X11787443Y-12433389D02*
X11806491Y-12433389D01*
X11806491Y-12433389D02*
X11825539Y-12442913D01*
X11825539Y-12442913D02*
X11835062Y-12452436D01*
X11835062Y-12452436D02*
X11844586Y-12471484D01*
X11844586Y-12471484D02*
X11854110Y-12509579D01*
X11854110Y-12509579D02*
X11854110Y-12557198D01*
X11854110Y-12557198D02*
X11844586Y-12595293D01*
X11844586Y-12595293D02*
X11835062Y-12614341D01*
X11835062Y-12614341D02*
X11825539Y-12623865D01*
X11825539Y-12623865D02*
X11806491Y-12633389D01*
X11806491Y-12633389D02*
X11787443Y-12633389D01*
X11787443Y-12633389D02*
X11768396Y-12623865D01*
X11768396Y-12623865D02*
X11758872Y-12614341D01*
X11758872Y-12614341D02*
X11749348Y-12595293D01*
X11749348Y-12595293D02*
X11739824Y-12557198D01*
X11739824Y-12557198D02*
X11739824Y-12509579D01*
X11739824Y-12509579D02*
X11749348Y-12471484D01*
X11749348Y-12471484D02*
X11758872Y-12452436D01*
X11758872Y-12452436D02*
X11768396Y-12442913D01*
X11768396Y-12442913D02*
X11787443Y-12433389D01*
X11920777Y-12433389D02*
X12044586Y-12433389D01*
X12044586Y-12433389D02*
X11977920Y-12509579D01*
X11977920Y-12509579D02*
X12006491Y-12509579D01*
X12006491Y-12509579D02*
X12025539Y-12519103D01*
X12025539Y-12519103D02*
X12035062Y-12528627D01*
X12035062Y-12528627D02*
X12044586Y-12547674D01*
X12044586Y-12547674D02*
X12044586Y-12595293D01*
X12044586Y-12595293D02*
X12035062Y-12614341D01*
X12035062Y-12614341D02*
X12025539Y-12623865D01*
X12025539Y-12623865D02*
X12006491Y-12633389D01*
X12006491Y-12633389D02*
X11949348Y-12633389D01*
X11949348Y-12633389D02*
X11930301Y-12623865D01*
X11930301Y-12623865D02*
X11920777Y-12614341D01*
X12139824Y-12633389D02*
X12177920Y-12633389D01*
X12177920Y-12633389D02*
X12196967Y-12623865D01*
X12196967Y-12623865D02*
X12206491Y-12614341D01*
X12206491Y-12614341D02*
X12225539Y-12585770D01*
X12225539Y-12585770D02*
X12235062Y-12547674D01*
X12235062Y-12547674D02*
X12235062Y-12471484D01*
X12235062Y-12471484D02*
X12225539Y-12452436D01*
X12225539Y-12452436D02*
X12216015Y-12442913D01*
X12216015Y-12442913D02*
X12196967Y-12433389D01*
X12196967Y-12433389D02*
X12158872Y-12433389D01*
X12158872Y-12433389D02*
X12139824Y-12442913D01*
X12139824Y-12442913D02*
X12130301Y-12452436D01*
X12130301Y-12452436D02*
X12120777Y-12471484D01*
X12120777Y-12471484D02*
X12120777Y-12519103D01*
X12120777Y-12519103D02*
X12130301Y-12538151D01*
X12130301Y-12538151D02*
X12139824Y-12547674D01*
X12139824Y-12547674D02*
X12158872Y-12557198D01*
X12158872Y-12557198D02*
X12196967Y-12557198D01*
X12196967Y-12557198D02*
X12216015Y-12547674D01*
X12216015Y-12547674D02*
X12225539Y-12538151D01*
X12225539Y-12538151D02*
X12235062Y-12519103D01*
X12406491Y-12500055D02*
X12406491Y-12633389D01*
X12358872Y-12423865D02*
X12311253Y-12566722D01*
X12311253Y-12566722D02*
X12435062Y-12566722D01*
X12501729Y-12433389D02*
X12501729Y-12471484D01*
X12577920Y-12433389D02*
X12577920Y-12471484D01*
X12873158Y-12709579D02*
X12863634Y-12700055D01*
X12863634Y-12700055D02*
X12844586Y-12671484D01*
X12844586Y-12671484D02*
X12835063Y-12652436D01*
X12835063Y-12652436D02*
X12825539Y-12623865D01*
X12825539Y-12623865D02*
X12816015Y-12576246D01*
X12816015Y-12576246D02*
X12816015Y-12538151D01*
X12816015Y-12538151D02*
X12825539Y-12490532D01*
X12825539Y-12490532D02*
X12835063Y-12461960D01*
X12835063Y-12461960D02*
X12844586Y-12442913D01*
X12844586Y-12442913D02*
X12863634Y-12414341D01*
X12863634Y-12414341D02*
X12873158Y-12404817D01*
X13054110Y-12633389D02*
X12939824Y-12633389D01*
X12996967Y-12633389D02*
X12996967Y-12433389D01*
X12996967Y-12433389D02*
X12977920Y-12461960D01*
X12977920Y-12461960D02*
X12958872Y-12481008D01*
X12958872Y-12481008D02*
X12939824Y-12490532D01*
X13168396Y-12519103D02*
X13149348Y-12509579D01*
X13149348Y-12509579D02*
X13139824Y-12500055D01*
X13139824Y-12500055D02*
X13130301Y-12481008D01*
X13130301Y-12481008D02*
X13130301Y-12471484D01*
X13130301Y-12471484D02*
X13139824Y-12452436D01*
X13139824Y-12452436D02*
X13149348Y-12442913D01*
X13149348Y-12442913D02*
X13168396Y-12433389D01*
X13168396Y-12433389D02*
X13206491Y-12433389D01*
X13206491Y-12433389D02*
X13225539Y-12442913D01*
X13225539Y-12442913D02*
X13235063Y-12452436D01*
X13235063Y-12452436D02*
X13244586Y-12471484D01*
X13244586Y-12471484D02*
X13244586Y-12481008D01*
X13244586Y-12481008D02*
X13235063Y-12500055D01*
X13235063Y-12500055D02*
X13225539Y-12509579D01*
X13225539Y-12509579D02*
X13206491Y-12519103D01*
X13206491Y-12519103D02*
X13168396Y-12519103D01*
X13168396Y-12519103D02*
X13149348Y-12528627D01*
X13149348Y-12528627D02*
X13139824Y-12538151D01*
X13139824Y-12538151D02*
X13130301Y-12557198D01*
X13130301Y-12557198D02*
X13130301Y-12595293D01*
X13130301Y-12595293D02*
X13139824Y-12614341D01*
X13139824Y-12614341D02*
X13149348Y-12623865D01*
X13149348Y-12623865D02*
X13168396Y-12633389D01*
X13168396Y-12633389D02*
X13206491Y-12633389D01*
X13206491Y-12633389D02*
X13225539Y-12623865D01*
X13225539Y-12623865D02*
X13235063Y-12614341D01*
X13235063Y-12614341D02*
X13244586Y-12595293D01*
X13244586Y-12595293D02*
X13244586Y-12557198D01*
X13244586Y-12557198D02*
X13235063Y-12538151D01*
X13235063Y-12538151D02*
X13225539Y-12528627D01*
X13225539Y-12528627D02*
X13206491Y-12519103D01*
X13482682Y-12633389D02*
X13482682Y-12433389D01*
X13568396Y-12633389D02*
X13568396Y-12528627D01*
X13568396Y-12528627D02*
X13558872Y-12509579D01*
X13558872Y-12509579D02*
X13539825Y-12500055D01*
X13539825Y-12500055D02*
X13511253Y-12500055D01*
X13511253Y-12500055D02*
X13492205Y-12509579D01*
X13492205Y-12509579D02*
X13482682Y-12519103D01*
X13692205Y-12633389D02*
X13673158Y-12623865D01*
X13673158Y-12623865D02*
X13663634Y-12614341D01*
X13663634Y-12614341D02*
X13654110Y-12595293D01*
X13654110Y-12595293D02*
X13654110Y-12538151D01*
X13654110Y-12538151D02*
X13663634Y-12519103D01*
X13663634Y-12519103D02*
X13673158Y-12509579D01*
X13673158Y-12509579D02*
X13692205Y-12500055D01*
X13692205Y-12500055D02*
X13720777Y-12500055D01*
X13720777Y-12500055D02*
X13739825Y-12509579D01*
X13739825Y-12509579D02*
X13749348Y-12519103D01*
X13749348Y-12519103D02*
X13758872Y-12538151D01*
X13758872Y-12538151D02*
X13758872Y-12595293D01*
X13758872Y-12595293D02*
X13749348Y-12614341D01*
X13749348Y-12614341D02*
X13739825Y-12623865D01*
X13739825Y-12623865D02*
X13720777Y-12633389D01*
X13720777Y-12633389D02*
X13692205Y-12633389D01*
X13873158Y-12633389D02*
X13854110Y-12623865D01*
X13854110Y-12623865D02*
X13844586Y-12604817D01*
X13844586Y-12604817D02*
X13844586Y-12433389D01*
X14025539Y-12623865D02*
X14006491Y-12633389D01*
X14006491Y-12633389D02*
X13968396Y-12633389D01*
X13968396Y-12633389D02*
X13949348Y-12623865D01*
X13949348Y-12623865D02*
X13939825Y-12604817D01*
X13939825Y-12604817D02*
X13939825Y-12528627D01*
X13939825Y-12528627D02*
X13949348Y-12509579D01*
X13949348Y-12509579D02*
X13968396Y-12500055D01*
X13968396Y-12500055D02*
X14006491Y-12500055D01*
X14006491Y-12500055D02*
X14025539Y-12509579D01*
X14025539Y-12509579D02*
X14035063Y-12528627D01*
X14035063Y-12528627D02*
X14035063Y-12547674D01*
X14035063Y-12547674D02*
X13939825Y-12566722D01*
X14111253Y-12623865D02*
X14130301Y-12633389D01*
X14130301Y-12633389D02*
X14168396Y-12633389D01*
X14168396Y-12633389D02*
X14187444Y-12623865D01*
X14187444Y-12623865D02*
X14196967Y-12604817D01*
X14196967Y-12604817D02*
X14196967Y-12595293D01*
X14196967Y-12595293D02*
X14187444Y-12576246D01*
X14187444Y-12576246D02*
X14168396Y-12566722D01*
X14168396Y-12566722D02*
X14139825Y-12566722D01*
X14139825Y-12566722D02*
X14120777Y-12557198D01*
X14120777Y-12557198D02*
X14111253Y-12538151D01*
X14111253Y-12538151D02*
X14111253Y-12528627D01*
X14111253Y-12528627D02*
X14120777Y-12509579D01*
X14120777Y-12509579D02*
X14139825Y-12500055D01*
X14139825Y-12500055D02*
X14168396Y-12500055D01*
X14168396Y-12500055D02*
X14187444Y-12509579D01*
X14263634Y-12709579D02*
X14273158Y-12700055D01*
X14273158Y-12700055D02*
X14292206Y-12671484D01*
X14292206Y-12671484D02*
X14301729Y-12652436D01*
X14301729Y-12652436D02*
X14311253Y-12623865D01*
X14311253Y-12623865D02*
X14320777Y-12576246D01*
X14320777Y-12576246D02*
X14320777Y-12538151D01*
X14320777Y-12538151D02*
X14311253Y-12490532D01*
X14311253Y-12490532D02*
X14301729Y-12461960D01*
X14301729Y-12461960D02*
X14292206Y-12442913D01*
X14292206Y-12442913D02*
X14273158Y-12414341D01*
X14273158Y-12414341D02*
X14263634Y-12404817D01*
D13*
X9298095Y-12805905D02*
G75*
G02*
X9196495Y-12805905I-50800J0D01*
G01*
X9196495Y-12805905D02*
G75*
G02*
X9298095Y-12805905I50800J0D01*
G01*
D11*
X9663634Y-12897389D02*
X9549348Y-12897389D01*
X9606491Y-12897389D02*
X9606491Y-12697389D01*
X9606491Y-12697389D02*
X9587443Y-12725960D01*
X9587443Y-12725960D02*
X9568396Y-12745008D01*
X9568396Y-12745008D02*
X9549348Y-12754532D01*
X9749348Y-12878341D02*
X9758872Y-12887865D01*
X9758872Y-12887865D02*
X9749348Y-12897389D01*
X9749348Y-12897389D02*
X9739824Y-12887865D01*
X9739824Y-12887865D02*
X9749348Y-12878341D01*
X9749348Y-12878341D02*
X9749348Y-12897389D01*
X9882681Y-12697389D02*
X9901729Y-12697389D01*
X9901729Y-12697389D02*
X9920777Y-12706913D01*
X9920777Y-12706913D02*
X9930300Y-12716436D01*
X9930300Y-12716436D02*
X9939824Y-12735484D01*
X9939824Y-12735484D02*
X9949348Y-12773579D01*
X9949348Y-12773579D02*
X9949348Y-12821198D01*
X9949348Y-12821198D02*
X9939824Y-12859293D01*
X9939824Y-12859293D02*
X9930300Y-12878341D01*
X9930300Y-12878341D02*
X9920777Y-12887865D01*
X9920777Y-12887865D02*
X9901729Y-12897389D01*
X9901729Y-12897389D02*
X9882681Y-12897389D01*
X9882681Y-12897389D02*
X9863634Y-12887865D01*
X9863634Y-12887865D02*
X9854110Y-12878341D01*
X9854110Y-12878341D02*
X9844586Y-12859293D01*
X9844586Y-12859293D02*
X9835062Y-12821198D01*
X9835062Y-12821198D02*
X9835062Y-12773579D01*
X9835062Y-12773579D02*
X9844586Y-12735484D01*
X9844586Y-12735484D02*
X9854110Y-12716436D01*
X9854110Y-12716436D02*
X9863634Y-12706913D01*
X9863634Y-12706913D02*
X9882681Y-12697389D01*
X10139824Y-12897389D02*
X10025539Y-12897389D01*
X10082681Y-12897389D02*
X10082681Y-12697389D01*
X10082681Y-12697389D02*
X10063634Y-12725960D01*
X10063634Y-12725960D02*
X10044586Y-12745008D01*
X10044586Y-12745008D02*
X10025539Y-12754532D01*
X10311253Y-12697389D02*
X10273158Y-12697389D01*
X10273158Y-12697389D02*
X10254110Y-12706913D01*
X10254110Y-12706913D02*
X10244586Y-12716436D01*
X10244586Y-12716436D02*
X10225539Y-12745008D01*
X10225539Y-12745008D02*
X10216015Y-12783103D01*
X10216015Y-12783103D02*
X10216015Y-12859293D01*
X10216015Y-12859293D02*
X10225539Y-12878341D01*
X10225539Y-12878341D02*
X10235062Y-12887865D01*
X10235062Y-12887865D02*
X10254110Y-12897389D01*
X10254110Y-12897389D02*
X10292205Y-12897389D01*
X10292205Y-12897389D02*
X10311253Y-12887865D01*
X10311253Y-12887865D02*
X10320777Y-12878341D01*
X10320777Y-12878341D02*
X10330300Y-12859293D01*
X10330300Y-12859293D02*
X10330300Y-12811674D01*
X10330300Y-12811674D02*
X10320777Y-12792627D01*
X10320777Y-12792627D02*
X10311253Y-12783103D01*
X10311253Y-12783103D02*
X10292205Y-12773579D01*
X10292205Y-12773579D02*
X10254110Y-12773579D01*
X10254110Y-12773579D02*
X10235062Y-12783103D01*
X10235062Y-12783103D02*
X10225539Y-12792627D01*
X10225539Y-12792627D02*
X10216015Y-12811674D01*
X10416015Y-12897389D02*
X10416015Y-12764055D01*
X10416015Y-12783103D02*
X10425539Y-12773579D01*
X10425539Y-12773579D02*
X10444586Y-12764055D01*
X10444586Y-12764055D02*
X10473158Y-12764055D01*
X10473158Y-12764055D02*
X10492205Y-12773579D01*
X10492205Y-12773579D02*
X10501729Y-12792627D01*
X10501729Y-12792627D02*
X10501729Y-12897389D01*
X10501729Y-12792627D02*
X10511253Y-12773579D01*
X10511253Y-12773579D02*
X10530300Y-12764055D01*
X10530300Y-12764055D02*
X10558872Y-12764055D01*
X10558872Y-12764055D02*
X10577920Y-12773579D01*
X10577920Y-12773579D02*
X10587443Y-12792627D01*
X10587443Y-12792627D02*
X10587443Y-12897389D01*
X10682681Y-12897389D02*
X10682681Y-12764055D01*
X10682681Y-12783103D02*
X10692205Y-12773579D01*
X10692205Y-12773579D02*
X10711253Y-12764055D01*
X10711253Y-12764055D02*
X10739824Y-12764055D01*
X10739824Y-12764055D02*
X10758872Y-12773579D01*
X10758872Y-12773579D02*
X10768396Y-12792627D01*
X10768396Y-12792627D02*
X10768396Y-12897389D01*
X10768396Y-12792627D02*
X10777920Y-12773579D01*
X10777920Y-12773579D02*
X10796967Y-12764055D01*
X10796967Y-12764055D02*
X10825539Y-12764055D01*
X10825539Y-12764055D02*
X10844586Y-12773579D01*
X10844586Y-12773579D02*
X10854110Y-12792627D01*
X10854110Y-12792627D02*
X10854110Y-12897389D01*
X11244586Y-12687865D02*
X11073158Y-12945008D01*
X11501729Y-12697389D02*
X11520777Y-12697389D01*
X11520777Y-12697389D02*
X11539824Y-12706913D01*
X11539824Y-12706913D02*
X11549348Y-12716436D01*
X11549348Y-12716436D02*
X11558872Y-12735484D01*
X11558872Y-12735484D02*
X11568396Y-12773579D01*
X11568396Y-12773579D02*
X11568396Y-12821198D01*
X11568396Y-12821198D02*
X11558872Y-12859293D01*
X11558872Y-12859293D02*
X11549348Y-12878341D01*
X11549348Y-12878341D02*
X11539824Y-12887865D01*
X11539824Y-12887865D02*
X11520777Y-12897389D01*
X11520777Y-12897389D02*
X11501729Y-12897389D01*
X11501729Y-12897389D02*
X11482681Y-12887865D01*
X11482681Y-12887865D02*
X11473158Y-12878341D01*
X11473158Y-12878341D02*
X11463634Y-12859293D01*
X11463634Y-12859293D02*
X11454110Y-12821198D01*
X11454110Y-12821198D02*
X11454110Y-12773579D01*
X11454110Y-12773579D02*
X11463634Y-12735484D01*
X11463634Y-12735484D02*
X11473158Y-12716436D01*
X11473158Y-12716436D02*
X11482681Y-12706913D01*
X11482681Y-12706913D02*
X11501729Y-12697389D01*
X11654110Y-12878341D02*
X11663634Y-12887865D01*
X11663634Y-12887865D02*
X11654110Y-12897389D01*
X11654110Y-12897389D02*
X11644586Y-12887865D01*
X11644586Y-12887865D02*
X11654110Y-12878341D01*
X11654110Y-12878341D02*
X11654110Y-12897389D01*
X11787443Y-12697389D02*
X11806491Y-12697389D01*
X11806491Y-12697389D02*
X11825539Y-12706913D01*
X11825539Y-12706913D02*
X11835062Y-12716436D01*
X11835062Y-12716436D02*
X11844586Y-12735484D01*
X11844586Y-12735484D02*
X11854110Y-12773579D01*
X11854110Y-12773579D02*
X11854110Y-12821198D01*
X11854110Y-12821198D02*
X11844586Y-12859293D01*
X11844586Y-12859293D02*
X11835062Y-12878341D01*
X11835062Y-12878341D02*
X11825539Y-12887865D01*
X11825539Y-12887865D02*
X11806491Y-12897389D01*
X11806491Y-12897389D02*
X11787443Y-12897389D01*
X11787443Y-12897389D02*
X11768396Y-12887865D01*
X11768396Y-12887865D02*
X11758872Y-12878341D01*
X11758872Y-12878341D02*
X11749348Y-12859293D01*
X11749348Y-12859293D02*
X11739824Y-12821198D01*
X11739824Y-12821198D02*
X11739824Y-12773579D01*
X11739824Y-12773579D02*
X11749348Y-12735484D01*
X11749348Y-12735484D02*
X11758872Y-12716436D01*
X11758872Y-12716436D02*
X11768396Y-12706913D01*
X11768396Y-12706913D02*
X11787443Y-12697389D01*
X12025539Y-12764055D02*
X12025539Y-12897389D01*
X11977920Y-12687865D02*
X11930301Y-12830722D01*
X11930301Y-12830722D02*
X12054110Y-12830722D01*
X12168396Y-12697389D02*
X12187443Y-12697389D01*
X12187443Y-12697389D02*
X12206491Y-12706913D01*
X12206491Y-12706913D02*
X12216015Y-12716436D01*
X12216015Y-12716436D02*
X12225539Y-12735484D01*
X12225539Y-12735484D02*
X12235062Y-12773579D01*
X12235062Y-12773579D02*
X12235062Y-12821198D01*
X12235062Y-12821198D02*
X12225539Y-12859293D01*
X12225539Y-12859293D02*
X12216015Y-12878341D01*
X12216015Y-12878341D02*
X12206491Y-12887865D01*
X12206491Y-12887865D02*
X12187443Y-12897389D01*
X12187443Y-12897389D02*
X12168396Y-12897389D01*
X12168396Y-12897389D02*
X12149348Y-12887865D01*
X12149348Y-12887865D02*
X12139824Y-12878341D01*
X12139824Y-12878341D02*
X12130301Y-12859293D01*
X12130301Y-12859293D02*
X12120777Y-12821198D01*
X12120777Y-12821198D02*
X12120777Y-12773579D01*
X12120777Y-12773579D02*
X12130301Y-12735484D01*
X12130301Y-12735484D02*
X12139824Y-12716436D01*
X12139824Y-12716436D02*
X12149348Y-12706913D01*
X12149348Y-12706913D02*
X12168396Y-12697389D01*
X12358872Y-12697389D02*
X12377920Y-12697389D01*
X12377920Y-12697389D02*
X12396967Y-12706913D01*
X12396967Y-12706913D02*
X12406491Y-12716436D01*
X12406491Y-12716436D02*
X12416015Y-12735484D01*
X12416015Y-12735484D02*
X12425539Y-12773579D01*
X12425539Y-12773579D02*
X12425539Y-12821198D01*
X12425539Y-12821198D02*
X12416015Y-12859293D01*
X12416015Y-12859293D02*
X12406491Y-12878341D01*
X12406491Y-12878341D02*
X12396967Y-12887865D01*
X12396967Y-12887865D02*
X12377920Y-12897389D01*
X12377920Y-12897389D02*
X12358872Y-12897389D01*
X12358872Y-12897389D02*
X12339824Y-12887865D01*
X12339824Y-12887865D02*
X12330301Y-12878341D01*
X12330301Y-12878341D02*
X12320777Y-12859293D01*
X12320777Y-12859293D02*
X12311253Y-12821198D01*
X12311253Y-12821198D02*
X12311253Y-12773579D01*
X12311253Y-12773579D02*
X12320777Y-12735484D01*
X12320777Y-12735484D02*
X12330301Y-12716436D01*
X12330301Y-12716436D02*
X12339824Y-12706913D01*
X12339824Y-12706913D02*
X12358872Y-12697389D01*
X12501729Y-12697389D02*
X12501729Y-12735484D01*
X12577920Y-12697389D02*
X12577920Y-12735484D01*
X12873158Y-12973579D02*
X12863634Y-12964055D01*
X12863634Y-12964055D02*
X12844586Y-12935484D01*
X12844586Y-12935484D02*
X12835063Y-12916436D01*
X12835063Y-12916436D02*
X12825539Y-12887865D01*
X12825539Y-12887865D02*
X12816015Y-12840246D01*
X12816015Y-12840246D02*
X12816015Y-12802151D01*
X12816015Y-12802151D02*
X12825539Y-12754532D01*
X12825539Y-12754532D02*
X12835063Y-12725960D01*
X12835063Y-12725960D02*
X12844586Y-12706913D01*
X12844586Y-12706913D02*
X12863634Y-12678341D01*
X12863634Y-12678341D02*
X12873158Y-12668817D01*
X12930301Y-12697389D02*
X13054110Y-12697389D01*
X13054110Y-12697389D02*
X12987443Y-12773579D01*
X12987443Y-12773579D02*
X13016015Y-12773579D01*
X13016015Y-12773579D02*
X13035063Y-12783103D01*
X13035063Y-12783103D02*
X13044586Y-12792627D01*
X13044586Y-12792627D02*
X13054110Y-12811674D01*
X13054110Y-12811674D02*
X13054110Y-12859293D01*
X13054110Y-12859293D02*
X13044586Y-12878341D01*
X13044586Y-12878341D02*
X13035063Y-12887865D01*
X13035063Y-12887865D02*
X13016015Y-12897389D01*
X13016015Y-12897389D02*
X12958872Y-12897389D01*
X12958872Y-12897389D02*
X12939824Y-12887865D01*
X12939824Y-12887865D02*
X12930301Y-12878341D01*
X13168396Y-12783103D02*
X13149348Y-12773579D01*
X13149348Y-12773579D02*
X13139824Y-12764055D01*
X13139824Y-12764055D02*
X13130301Y-12745008D01*
X13130301Y-12745008D02*
X13130301Y-12735484D01*
X13130301Y-12735484D02*
X13139824Y-12716436D01*
X13139824Y-12716436D02*
X13149348Y-12706913D01*
X13149348Y-12706913D02*
X13168396Y-12697389D01*
X13168396Y-12697389D02*
X13206491Y-12697389D01*
X13206491Y-12697389D02*
X13225539Y-12706913D01*
X13225539Y-12706913D02*
X13235063Y-12716436D01*
X13235063Y-12716436D02*
X13244586Y-12735484D01*
X13244586Y-12735484D02*
X13244586Y-12745008D01*
X13244586Y-12745008D02*
X13235063Y-12764055D01*
X13235063Y-12764055D02*
X13225539Y-12773579D01*
X13225539Y-12773579D02*
X13206491Y-12783103D01*
X13206491Y-12783103D02*
X13168396Y-12783103D01*
X13168396Y-12783103D02*
X13149348Y-12792627D01*
X13149348Y-12792627D02*
X13139824Y-12802151D01*
X13139824Y-12802151D02*
X13130301Y-12821198D01*
X13130301Y-12821198D02*
X13130301Y-12859293D01*
X13130301Y-12859293D02*
X13139824Y-12878341D01*
X13139824Y-12878341D02*
X13149348Y-12887865D01*
X13149348Y-12887865D02*
X13168396Y-12897389D01*
X13168396Y-12897389D02*
X13206491Y-12897389D01*
X13206491Y-12897389D02*
X13225539Y-12887865D01*
X13225539Y-12887865D02*
X13235063Y-12878341D01*
X13235063Y-12878341D02*
X13244586Y-12859293D01*
X13244586Y-12859293D02*
X13244586Y-12821198D01*
X13244586Y-12821198D02*
X13235063Y-12802151D01*
X13235063Y-12802151D02*
X13225539Y-12792627D01*
X13225539Y-12792627D02*
X13206491Y-12783103D01*
X13482682Y-12897389D02*
X13482682Y-12697389D01*
X13568396Y-12897389D02*
X13568396Y-12792627D01*
X13568396Y-12792627D02*
X13558872Y-12773579D01*
X13558872Y-12773579D02*
X13539825Y-12764055D01*
X13539825Y-12764055D02*
X13511253Y-12764055D01*
X13511253Y-12764055D02*
X13492205Y-12773579D01*
X13492205Y-12773579D02*
X13482682Y-12783103D01*
X13692205Y-12897389D02*
X13673158Y-12887865D01*
X13673158Y-12887865D02*
X13663634Y-12878341D01*
X13663634Y-12878341D02*
X13654110Y-12859293D01*
X13654110Y-12859293D02*
X13654110Y-12802151D01*
X13654110Y-12802151D02*
X13663634Y-12783103D01*
X13663634Y-12783103D02*
X13673158Y-12773579D01*
X13673158Y-12773579D02*
X13692205Y-12764055D01*
X13692205Y-12764055D02*
X13720777Y-12764055D01*
X13720777Y-12764055D02*
X13739825Y-12773579D01*
X13739825Y-12773579D02*
X13749348Y-12783103D01*
X13749348Y-12783103D02*
X13758872Y-12802151D01*
X13758872Y-12802151D02*
X13758872Y-12859293D01*
X13758872Y-12859293D02*
X13749348Y-12878341D01*
X13749348Y-12878341D02*
X13739825Y-12887865D01*
X13739825Y-12887865D02*
X13720777Y-12897389D01*
X13720777Y-12897389D02*
X13692205Y-12897389D01*
X13873158Y-12897389D02*
X13854110Y-12887865D01*
X13854110Y-12887865D02*
X13844586Y-12868817D01*
X13844586Y-12868817D02*
X13844586Y-12697389D01*
X14025539Y-12887865D02*
X14006491Y-12897389D01*
X14006491Y-12897389D02*
X13968396Y-12897389D01*
X13968396Y-12897389D02*
X13949348Y-12887865D01*
X13949348Y-12887865D02*
X13939825Y-12868817D01*
X13939825Y-12868817D02*
X13939825Y-12792627D01*
X13939825Y-12792627D02*
X13949348Y-12773579D01*
X13949348Y-12773579D02*
X13968396Y-12764055D01*
X13968396Y-12764055D02*
X14006491Y-12764055D01*
X14006491Y-12764055D02*
X14025539Y-12773579D01*
X14025539Y-12773579D02*
X14035063Y-12792627D01*
X14035063Y-12792627D02*
X14035063Y-12811674D01*
X14035063Y-12811674D02*
X13939825Y-12830722D01*
X14111253Y-12887865D02*
X14130301Y-12897389D01*
X14130301Y-12897389D02*
X14168396Y-12897389D01*
X14168396Y-12897389D02*
X14187444Y-12887865D01*
X14187444Y-12887865D02*
X14196967Y-12868817D01*
X14196967Y-12868817D02*
X14196967Y-12859293D01*
X14196967Y-12859293D02*
X14187444Y-12840246D01*
X14187444Y-12840246D02*
X14168396Y-12830722D01*
X14168396Y-12830722D02*
X14139825Y-12830722D01*
X14139825Y-12830722D02*
X14120777Y-12821198D01*
X14120777Y-12821198D02*
X14111253Y-12802151D01*
X14111253Y-12802151D02*
X14111253Y-12792627D01*
X14111253Y-12792627D02*
X14120777Y-12773579D01*
X14120777Y-12773579D02*
X14139825Y-12764055D01*
X14139825Y-12764055D02*
X14168396Y-12764055D01*
X14168396Y-12764055D02*
X14187444Y-12773579D01*
X14263634Y-12973579D02*
X14273158Y-12964055D01*
X14273158Y-12964055D02*
X14292206Y-12935484D01*
X14292206Y-12935484D02*
X14301729Y-12916436D01*
X14301729Y-12916436D02*
X14311253Y-12887865D01*
X14311253Y-12887865D02*
X14320777Y-12840246D01*
X14320777Y-12840246D02*
X14320777Y-12802151D01*
X14320777Y-12802151D02*
X14311253Y-12754532D01*
X14311253Y-12754532D02*
X14301729Y-12725960D01*
X14301729Y-12725960D02*
X14292206Y-12706913D01*
X14292206Y-12706913D02*
X14273158Y-12678341D01*
X14273158Y-12678341D02*
X14263634Y-12668817D01*
D14*
X9218095Y-12989905D02*
X9218095Y-13149905D01*
X9138095Y-13069905D02*
X9298095Y-13069905D01*
D11*
X9663634Y-13161389D02*
X9549348Y-13161389D01*
X9606491Y-13161389D02*
X9606491Y-12961389D01*
X9606491Y-12961389D02*
X9587443Y-12989960D01*
X9587443Y-12989960D02*
X9568396Y-13009008D01*
X9568396Y-13009008D02*
X9549348Y-13018532D01*
X9749348Y-13142341D02*
X9758872Y-13151865D01*
X9758872Y-13151865D02*
X9749348Y-13161389D01*
X9749348Y-13161389D02*
X9739824Y-13151865D01*
X9739824Y-13151865D02*
X9749348Y-13142341D01*
X9749348Y-13142341D02*
X9749348Y-13161389D01*
X9930300Y-12961389D02*
X9892205Y-12961389D01*
X9892205Y-12961389D02*
X9873158Y-12970913D01*
X9873158Y-12970913D02*
X9863634Y-12980436D01*
X9863634Y-12980436D02*
X9844586Y-13009008D01*
X9844586Y-13009008D02*
X9835062Y-13047103D01*
X9835062Y-13047103D02*
X9835062Y-13123293D01*
X9835062Y-13123293D02*
X9844586Y-13142341D01*
X9844586Y-13142341D02*
X9854110Y-13151865D01*
X9854110Y-13151865D02*
X9873158Y-13161389D01*
X9873158Y-13161389D02*
X9911253Y-13161389D01*
X9911253Y-13161389D02*
X9930300Y-13151865D01*
X9930300Y-13151865D02*
X9939824Y-13142341D01*
X9939824Y-13142341D02*
X9949348Y-13123293D01*
X9949348Y-13123293D02*
X9949348Y-13075674D01*
X9949348Y-13075674D02*
X9939824Y-13056627D01*
X9939824Y-13056627D02*
X9930300Y-13047103D01*
X9930300Y-13047103D02*
X9911253Y-13037579D01*
X9911253Y-13037579D02*
X9873158Y-13037579D01*
X9873158Y-13037579D02*
X9854110Y-13047103D01*
X9854110Y-13047103D02*
X9844586Y-13056627D01*
X9844586Y-13056627D02*
X9835062Y-13075674D01*
X10073158Y-12961389D02*
X10092205Y-12961389D01*
X10092205Y-12961389D02*
X10111253Y-12970913D01*
X10111253Y-12970913D02*
X10120777Y-12980436D01*
X10120777Y-12980436D02*
X10130300Y-12999484D01*
X10130300Y-12999484D02*
X10139824Y-13037579D01*
X10139824Y-13037579D02*
X10139824Y-13085198D01*
X10139824Y-13085198D02*
X10130300Y-13123293D01*
X10130300Y-13123293D02*
X10120777Y-13142341D01*
X10120777Y-13142341D02*
X10111253Y-13151865D01*
X10111253Y-13151865D02*
X10092205Y-13161389D01*
X10092205Y-13161389D02*
X10073158Y-13161389D01*
X10073158Y-13161389D02*
X10054110Y-13151865D01*
X10054110Y-13151865D02*
X10044586Y-13142341D01*
X10044586Y-13142341D02*
X10035062Y-13123293D01*
X10035062Y-13123293D02*
X10025539Y-13085198D01*
X10025539Y-13085198D02*
X10025539Y-13037579D01*
X10025539Y-13037579D02*
X10035062Y-12999484D01*
X10035062Y-12999484D02*
X10044586Y-12980436D01*
X10044586Y-12980436D02*
X10054110Y-12970913D01*
X10054110Y-12970913D02*
X10073158Y-12961389D01*
X10263634Y-12961389D02*
X10282681Y-12961389D01*
X10282681Y-12961389D02*
X10301729Y-12970913D01*
X10301729Y-12970913D02*
X10311253Y-12980436D01*
X10311253Y-12980436D02*
X10320777Y-12999484D01*
X10320777Y-12999484D02*
X10330300Y-13037579D01*
X10330300Y-13037579D02*
X10330300Y-13085198D01*
X10330300Y-13085198D02*
X10320777Y-13123293D01*
X10320777Y-13123293D02*
X10311253Y-13142341D01*
X10311253Y-13142341D02*
X10301729Y-13151865D01*
X10301729Y-13151865D02*
X10282681Y-13161389D01*
X10282681Y-13161389D02*
X10263634Y-13161389D01*
X10263634Y-13161389D02*
X10244586Y-13151865D01*
X10244586Y-13151865D02*
X10235062Y-13142341D01*
X10235062Y-13142341D02*
X10225539Y-13123293D01*
X10225539Y-13123293D02*
X10216015Y-13085198D01*
X10216015Y-13085198D02*
X10216015Y-13037579D01*
X10216015Y-13037579D02*
X10225539Y-12999484D01*
X10225539Y-12999484D02*
X10235062Y-12980436D01*
X10235062Y-12980436D02*
X10244586Y-12970913D01*
X10244586Y-12970913D02*
X10263634Y-12961389D01*
X10416015Y-13161389D02*
X10416015Y-13028055D01*
X10416015Y-13047103D02*
X10425539Y-13037579D01*
X10425539Y-13037579D02*
X10444586Y-13028055D01*
X10444586Y-13028055D02*
X10473158Y-13028055D01*
X10473158Y-13028055D02*
X10492205Y-13037579D01*
X10492205Y-13037579D02*
X10501729Y-13056627D01*
X10501729Y-13056627D02*
X10501729Y-13161389D01*
X10501729Y-13056627D02*
X10511253Y-13037579D01*
X10511253Y-13037579D02*
X10530300Y-13028055D01*
X10530300Y-13028055D02*
X10558872Y-13028055D01*
X10558872Y-13028055D02*
X10577920Y-13037579D01*
X10577920Y-13037579D02*
X10587443Y-13056627D01*
X10587443Y-13056627D02*
X10587443Y-13161389D01*
X10682681Y-13161389D02*
X10682681Y-13028055D01*
X10682681Y-13047103D02*
X10692205Y-13037579D01*
X10692205Y-13037579D02*
X10711253Y-13028055D01*
X10711253Y-13028055D02*
X10739824Y-13028055D01*
X10739824Y-13028055D02*
X10758872Y-13037579D01*
X10758872Y-13037579D02*
X10768396Y-13056627D01*
X10768396Y-13056627D02*
X10768396Y-13161389D01*
X10768396Y-13056627D02*
X10777920Y-13037579D01*
X10777920Y-13037579D02*
X10796967Y-13028055D01*
X10796967Y-13028055D02*
X10825539Y-13028055D01*
X10825539Y-13028055D02*
X10844586Y-13037579D01*
X10844586Y-13037579D02*
X10854110Y-13056627D01*
X10854110Y-13056627D02*
X10854110Y-13161389D01*
X11244586Y-12951865D02*
X11073158Y-13209008D01*
X11501729Y-12961389D02*
X11520777Y-12961389D01*
X11520777Y-12961389D02*
X11539824Y-12970913D01*
X11539824Y-12970913D02*
X11549348Y-12980436D01*
X11549348Y-12980436D02*
X11558872Y-12999484D01*
X11558872Y-12999484D02*
X11568396Y-13037579D01*
X11568396Y-13037579D02*
X11568396Y-13085198D01*
X11568396Y-13085198D02*
X11558872Y-13123293D01*
X11558872Y-13123293D02*
X11549348Y-13142341D01*
X11549348Y-13142341D02*
X11539824Y-13151865D01*
X11539824Y-13151865D02*
X11520777Y-13161389D01*
X11520777Y-13161389D02*
X11501729Y-13161389D01*
X11501729Y-13161389D02*
X11482681Y-13151865D01*
X11482681Y-13151865D02*
X11473158Y-13142341D01*
X11473158Y-13142341D02*
X11463634Y-13123293D01*
X11463634Y-13123293D02*
X11454110Y-13085198D01*
X11454110Y-13085198D02*
X11454110Y-13037579D01*
X11454110Y-13037579D02*
X11463634Y-12999484D01*
X11463634Y-12999484D02*
X11473158Y-12980436D01*
X11473158Y-12980436D02*
X11482681Y-12970913D01*
X11482681Y-12970913D02*
X11501729Y-12961389D01*
X11654110Y-13142341D02*
X11663634Y-13151865D01*
X11663634Y-13151865D02*
X11654110Y-13161389D01*
X11654110Y-13161389D02*
X11644586Y-13151865D01*
X11644586Y-13151865D02*
X11654110Y-13142341D01*
X11654110Y-13142341D02*
X11654110Y-13161389D01*
X11787443Y-12961389D02*
X11806491Y-12961389D01*
X11806491Y-12961389D02*
X11825539Y-12970913D01*
X11825539Y-12970913D02*
X11835062Y-12980436D01*
X11835062Y-12980436D02*
X11844586Y-12999484D01*
X11844586Y-12999484D02*
X11854110Y-13037579D01*
X11854110Y-13037579D02*
X11854110Y-13085198D01*
X11854110Y-13085198D02*
X11844586Y-13123293D01*
X11844586Y-13123293D02*
X11835062Y-13142341D01*
X11835062Y-13142341D02*
X11825539Y-13151865D01*
X11825539Y-13151865D02*
X11806491Y-13161389D01*
X11806491Y-13161389D02*
X11787443Y-13161389D01*
X11787443Y-13161389D02*
X11768396Y-13151865D01*
X11768396Y-13151865D02*
X11758872Y-13142341D01*
X11758872Y-13142341D02*
X11749348Y-13123293D01*
X11749348Y-13123293D02*
X11739824Y-13085198D01*
X11739824Y-13085198D02*
X11739824Y-13037579D01*
X11739824Y-13037579D02*
X11749348Y-12999484D01*
X11749348Y-12999484D02*
X11758872Y-12980436D01*
X11758872Y-12980436D02*
X11768396Y-12970913D01*
X11768396Y-12970913D02*
X11787443Y-12961389D01*
X12025539Y-12961389D02*
X11987443Y-12961389D01*
X11987443Y-12961389D02*
X11968396Y-12970913D01*
X11968396Y-12970913D02*
X11958872Y-12980436D01*
X11958872Y-12980436D02*
X11939824Y-13009008D01*
X11939824Y-13009008D02*
X11930301Y-13047103D01*
X11930301Y-13047103D02*
X11930301Y-13123293D01*
X11930301Y-13123293D02*
X11939824Y-13142341D01*
X11939824Y-13142341D02*
X11949348Y-13151865D01*
X11949348Y-13151865D02*
X11968396Y-13161389D01*
X11968396Y-13161389D02*
X12006491Y-13161389D01*
X12006491Y-13161389D02*
X12025539Y-13151865D01*
X12025539Y-13151865D02*
X12035062Y-13142341D01*
X12035062Y-13142341D02*
X12044586Y-13123293D01*
X12044586Y-13123293D02*
X12044586Y-13075674D01*
X12044586Y-13075674D02*
X12035062Y-13056627D01*
X12035062Y-13056627D02*
X12025539Y-13047103D01*
X12025539Y-13047103D02*
X12006491Y-13037579D01*
X12006491Y-13037579D02*
X11968396Y-13037579D01*
X11968396Y-13037579D02*
X11949348Y-13047103D01*
X11949348Y-13047103D02*
X11939824Y-13056627D01*
X11939824Y-13056627D02*
X11930301Y-13075674D01*
X12111253Y-12961389D02*
X12235062Y-12961389D01*
X12235062Y-12961389D02*
X12168396Y-13037579D01*
X12168396Y-13037579D02*
X12196967Y-13037579D01*
X12196967Y-13037579D02*
X12216015Y-13047103D01*
X12216015Y-13047103D02*
X12225539Y-13056627D01*
X12225539Y-13056627D02*
X12235062Y-13075674D01*
X12235062Y-13075674D02*
X12235062Y-13123293D01*
X12235062Y-13123293D02*
X12225539Y-13142341D01*
X12225539Y-13142341D02*
X12216015Y-13151865D01*
X12216015Y-13151865D02*
X12196967Y-13161389D01*
X12196967Y-13161389D02*
X12139824Y-13161389D01*
X12139824Y-13161389D02*
X12120777Y-13151865D01*
X12120777Y-13151865D02*
X12111253Y-13142341D01*
X12358872Y-12961389D02*
X12377920Y-12961389D01*
X12377920Y-12961389D02*
X12396967Y-12970913D01*
X12396967Y-12970913D02*
X12406491Y-12980436D01*
X12406491Y-12980436D02*
X12416015Y-12999484D01*
X12416015Y-12999484D02*
X12425539Y-13037579D01*
X12425539Y-13037579D02*
X12425539Y-13085198D01*
X12425539Y-13085198D02*
X12416015Y-13123293D01*
X12416015Y-13123293D02*
X12406491Y-13142341D01*
X12406491Y-13142341D02*
X12396967Y-13151865D01*
X12396967Y-13151865D02*
X12377920Y-13161389D01*
X12377920Y-13161389D02*
X12358872Y-13161389D01*
X12358872Y-13161389D02*
X12339824Y-13151865D01*
X12339824Y-13151865D02*
X12330301Y-13142341D01*
X12330301Y-13142341D02*
X12320777Y-13123293D01*
X12320777Y-13123293D02*
X12311253Y-13085198D01*
X12311253Y-13085198D02*
X12311253Y-13037579D01*
X12311253Y-13037579D02*
X12320777Y-12999484D01*
X12320777Y-12999484D02*
X12330301Y-12980436D01*
X12330301Y-12980436D02*
X12339824Y-12970913D01*
X12339824Y-12970913D02*
X12358872Y-12961389D01*
X12501729Y-12961389D02*
X12501729Y-12999484D01*
X12577920Y-12961389D02*
X12577920Y-12999484D01*
X12873158Y-13237579D02*
X12863634Y-13228055D01*
X12863634Y-13228055D02*
X12844586Y-13199484D01*
X12844586Y-13199484D02*
X12835063Y-13180436D01*
X12835063Y-13180436D02*
X12825539Y-13151865D01*
X12825539Y-13151865D02*
X12816015Y-13104246D01*
X12816015Y-13104246D02*
X12816015Y-13066151D01*
X12816015Y-13066151D02*
X12825539Y-13018532D01*
X12825539Y-13018532D02*
X12835063Y-12989960D01*
X12835063Y-12989960D02*
X12844586Y-12970913D01*
X12844586Y-12970913D02*
X12863634Y-12942341D01*
X12863634Y-12942341D02*
X12873158Y-12932817D01*
X13054110Y-13161389D02*
X12939824Y-13161389D01*
X12996967Y-13161389D02*
X12996967Y-12961389D01*
X12996967Y-12961389D02*
X12977920Y-12989960D01*
X12977920Y-12989960D02*
X12958872Y-13009008D01*
X12958872Y-13009008D02*
X12939824Y-13018532D01*
X13177920Y-12961389D02*
X13196967Y-12961389D01*
X13196967Y-12961389D02*
X13216015Y-12970913D01*
X13216015Y-12970913D02*
X13225539Y-12980436D01*
X13225539Y-12980436D02*
X13235063Y-12999484D01*
X13235063Y-12999484D02*
X13244586Y-13037579D01*
X13244586Y-13037579D02*
X13244586Y-13085198D01*
X13244586Y-13085198D02*
X13235063Y-13123293D01*
X13235063Y-13123293D02*
X13225539Y-13142341D01*
X13225539Y-13142341D02*
X13216015Y-13151865D01*
X13216015Y-13151865D02*
X13196967Y-13161389D01*
X13196967Y-13161389D02*
X13177920Y-13161389D01*
X13177920Y-13161389D02*
X13158872Y-13151865D01*
X13158872Y-13151865D02*
X13149348Y-13142341D01*
X13149348Y-13142341D02*
X13139824Y-13123293D01*
X13139824Y-13123293D02*
X13130301Y-13085198D01*
X13130301Y-13085198D02*
X13130301Y-13037579D01*
X13130301Y-13037579D02*
X13139824Y-12999484D01*
X13139824Y-12999484D02*
X13149348Y-12980436D01*
X13149348Y-12980436D02*
X13158872Y-12970913D01*
X13158872Y-12970913D02*
X13177920Y-12961389D01*
X13482682Y-13161389D02*
X13482682Y-12961389D01*
X13568396Y-13161389D02*
X13568396Y-13056627D01*
X13568396Y-13056627D02*
X13558872Y-13037579D01*
X13558872Y-13037579D02*
X13539825Y-13028055D01*
X13539825Y-13028055D02*
X13511253Y-13028055D01*
X13511253Y-13028055D02*
X13492205Y-13037579D01*
X13492205Y-13037579D02*
X13482682Y-13047103D01*
X13692205Y-13161389D02*
X13673158Y-13151865D01*
X13673158Y-13151865D02*
X13663634Y-13142341D01*
X13663634Y-13142341D02*
X13654110Y-13123293D01*
X13654110Y-13123293D02*
X13654110Y-13066151D01*
X13654110Y-13066151D02*
X13663634Y-13047103D01*
X13663634Y-13047103D02*
X13673158Y-13037579D01*
X13673158Y-13037579D02*
X13692205Y-13028055D01*
X13692205Y-13028055D02*
X13720777Y-13028055D01*
X13720777Y-13028055D02*
X13739825Y-13037579D01*
X13739825Y-13037579D02*
X13749348Y-13047103D01*
X13749348Y-13047103D02*
X13758872Y-13066151D01*
X13758872Y-13066151D02*
X13758872Y-13123293D01*
X13758872Y-13123293D02*
X13749348Y-13142341D01*
X13749348Y-13142341D02*
X13739825Y-13151865D01*
X13739825Y-13151865D02*
X13720777Y-13161389D01*
X13720777Y-13161389D02*
X13692205Y-13161389D01*
X13873158Y-13161389D02*
X13854110Y-13151865D01*
X13854110Y-13151865D02*
X13844586Y-13132817D01*
X13844586Y-13132817D02*
X13844586Y-12961389D01*
X14025539Y-13151865D02*
X14006491Y-13161389D01*
X14006491Y-13161389D02*
X13968396Y-13161389D01*
X13968396Y-13161389D02*
X13949348Y-13151865D01*
X13949348Y-13151865D02*
X13939825Y-13132817D01*
X13939825Y-13132817D02*
X13939825Y-13056627D01*
X13939825Y-13056627D02*
X13949348Y-13037579D01*
X13949348Y-13037579D02*
X13968396Y-13028055D01*
X13968396Y-13028055D02*
X14006491Y-13028055D01*
X14006491Y-13028055D02*
X14025539Y-13037579D01*
X14025539Y-13037579D02*
X14035063Y-13056627D01*
X14035063Y-13056627D02*
X14035063Y-13075674D01*
X14035063Y-13075674D02*
X13939825Y-13094722D01*
X14111253Y-13151865D02*
X14130301Y-13161389D01*
X14130301Y-13161389D02*
X14168396Y-13161389D01*
X14168396Y-13161389D02*
X14187444Y-13151865D01*
X14187444Y-13151865D02*
X14196967Y-13132817D01*
X14196967Y-13132817D02*
X14196967Y-13123293D01*
X14196967Y-13123293D02*
X14187444Y-13104246D01*
X14187444Y-13104246D02*
X14168396Y-13094722D01*
X14168396Y-13094722D02*
X14139825Y-13094722D01*
X14139825Y-13094722D02*
X14120777Y-13085198D01*
X14120777Y-13085198D02*
X14111253Y-13066151D01*
X14111253Y-13066151D02*
X14111253Y-13056627D01*
X14111253Y-13056627D02*
X14120777Y-13037579D01*
X14120777Y-13037579D02*
X14139825Y-13028055D01*
X14139825Y-13028055D02*
X14168396Y-13028055D01*
X14168396Y-13028055D02*
X14187444Y-13037579D01*
X14263634Y-13237579D02*
X14273158Y-13228055D01*
X14273158Y-13228055D02*
X14292206Y-13199484D01*
X14292206Y-13199484D02*
X14301729Y-13180436D01*
X14301729Y-13180436D02*
X14311253Y-13151865D01*
X14311253Y-13151865D02*
X14320777Y-13104246D01*
X14320777Y-13104246D02*
X14320777Y-13066151D01*
X14320777Y-13066151D02*
X14311253Y-13018532D01*
X14311253Y-13018532D02*
X14301729Y-12989960D01*
X14301729Y-12989960D02*
X14292206Y-12970913D01*
X14292206Y-12970913D02*
X14273158Y-12942341D01*
X14273158Y-12942341D02*
X14263634Y-12932817D01*
X9268806Y-13420616D02*
X9268806Y-13279194D01*
X9127384Y-13279194D01*
X9127384Y-13420616D01*
X9268806Y-13420616D01*
X9539824Y-13241389D02*
X9663634Y-13241389D01*
X9663634Y-13241389D02*
X9596967Y-13317579D01*
X9596967Y-13317579D02*
X9625539Y-13317579D01*
X9625539Y-13317579D02*
X9644586Y-13327103D01*
X9644586Y-13327103D02*
X9654110Y-13336627D01*
X9654110Y-13336627D02*
X9663634Y-13355674D01*
X9663634Y-13355674D02*
X9663634Y-13403293D01*
X9663634Y-13403293D02*
X9654110Y-13422341D01*
X9654110Y-13422341D02*
X9644586Y-13431865D01*
X9644586Y-13431865D02*
X9625539Y-13441389D01*
X9625539Y-13441389D02*
X9568396Y-13441389D01*
X9568396Y-13441389D02*
X9549348Y-13431865D01*
X9549348Y-13431865D02*
X9539824Y-13422341D01*
X9749348Y-13422341D02*
X9758872Y-13431865D01*
X9758872Y-13431865D02*
X9749348Y-13441389D01*
X9749348Y-13441389D02*
X9739824Y-13431865D01*
X9739824Y-13431865D02*
X9749348Y-13422341D01*
X9749348Y-13422341D02*
X9749348Y-13441389D01*
X9835062Y-13260436D02*
X9844586Y-13250913D01*
X9844586Y-13250913D02*
X9863634Y-13241389D01*
X9863634Y-13241389D02*
X9911253Y-13241389D01*
X9911253Y-13241389D02*
X9930300Y-13250913D01*
X9930300Y-13250913D02*
X9939824Y-13260436D01*
X9939824Y-13260436D02*
X9949348Y-13279484D01*
X9949348Y-13279484D02*
X9949348Y-13298532D01*
X9949348Y-13298532D02*
X9939824Y-13327103D01*
X9939824Y-13327103D02*
X9825539Y-13441389D01*
X9825539Y-13441389D02*
X9949348Y-13441389D01*
X10073158Y-13241389D02*
X10092205Y-13241389D01*
X10092205Y-13241389D02*
X10111253Y-13250913D01*
X10111253Y-13250913D02*
X10120777Y-13260436D01*
X10120777Y-13260436D02*
X10130300Y-13279484D01*
X10130300Y-13279484D02*
X10139824Y-13317579D01*
X10139824Y-13317579D02*
X10139824Y-13365198D01*
X10139824Y-13365198D02*
X10130300Y-13403293D01*
X10130300Y-13403293D02*
X10120777Y-13422341D01*
X10120777Y-13422341D02*
X10111253Y-13431865D01*
X10111253Y-13431865D02*
X10092205Y-13441389D01*
X10092205Y-13441389D02*
X10073158Y-13441389D01*
X10073158Y-13441389D02*
X10054110Y-13431865D01*
X10054110Y-13431865D02*
X10044586Y-13422341D01*
X10044586Y-13422341D02*
X10035062Y-13403293D01*
X10035062Y-13403293D02*
X10025539Y-13365198D01*
X10025539Y-13365198D02*
X10025539Y-13317579D01*
X10025539Y-13317579D02*
X10035062Y-13279484D01*
X10035062Y-13279484D02*
X10044586Y-13260436D01*
X10044586Y-13260436D02*
X10054110Y-13250913D01*
X10054110Y-13250913D02*
X10073158Y-13241389D01*
X10263634Y-13241389D02*
X10282681Y-13241389D01*
X10282681Y-13241389D02*
X10301729Y-13250913D01*
X10301729Y-13250913D02*
X10311253Y-13260436D01*
X10311253Y-13260436D02*
X10320777Y-13279484D01*
X10320777Y-13279484D02*
X10330300Y-13317579D01*
X10330300Y-13317579D02*
X10330300Y-13365198D01*
X10330300Y-13365198D02*
X10320777Y-13403293D01*
X10320777Y-13403293D02*
X10311253Y-13422341D01*
X10311253Y-13422341D02*
X10301729Y-13431865D01*
X10301729Y-13431865D02*
X10282681Y-13441389D01*
X10282681Y-13441389D02*
X10263634Y-13441389D01*
X10263634Y-13441389D02*
X10244586Y-13431865D01*
X10244586Y-13431865D02*
X10235062Y-13422341D01*
X10235062Y-13422341D02*
X10225539Y-13403293D01*
X10225539Y-13403293D02*
X10216015Y-13365198D01*
X10216015Y-13365198D02*
X10216015Y-13317579D01*
X10216015Y-13317579D02*
X10225539Y-13279484D01*
X10225539Y-13279484D02*
X10235062Y-13260436D01*
X10235062Y-13260436D02*
X10244586Y-13250913D01*
X10244586Y-13250913D02*
X10263634Y-13241389D01*
X10416015Y-13441389D02*
X10416015Y-13308055D01*
X10416015Y-13327103D02*
X10425539Y-13317579D01*
X10425539Y-13317579D02*
X10444586Y-13308055D01*
X10444586Y-13308055D02*
X10473158Y-13308055D01*
X10473158Y-13308055D02*
X10492205Y-13317579D01*
X10492205Y-13317579D02*
X10501729Y-13336627D01*
X10501729Y-13336627D02*
X10501729Y-13441389D01*
X10501729Y-13336627D02*
X10511253Y-13317579D01*
X10511253Y-13317579D02*
X10530300Y-13308055D01*
X10530300Y-13308055D02*
X10558872Y-13308055D01*
X10558872Y-13308055D02*
X10577920Y-13317579D01*
X10577920Y-13317579D02*
X10587443Y-13336627D01*
X10587443Y-13336627D02*
X10587443Y-13441389D01*
X10682681Y-13441389D02*
X10682681Y-13308055D01*
X10682681Y-13327103D02*
X10692205Y-13317579D01*
X10692205Y-13317579D02*
X10711253Y-13308055D01*
X10711253Y-13308055D02*
X10739824Y-13308055D01*
X10739824Y-13308055D02*
X10758872Y-13317579D01*
X10758872Y-13317579D02*
X10768396Y-13336627D01*
X10768396Y-13336627D02*
X10768396Y-13441389D01*
X10768396Y-13336627D02*
X10777920Y-13317579D01*
X10777920Y-13317579D02*
X10796967Y-13308055D01*
X10796967Y-13308055D02*
X10825539Y-13308055D01*
X10825539Y-13308055D02*
X10844586Y-13317579D01*
X10844586Y-13317579D02*
X10854110Y-13336627D01*
X10854110Y-13336627D02*
X10854110Y-13441389D01*
X11244586Y-13231865D02*
X11073158Y-13489008D01*
X11501729Y-13241389D02*
X11520777Y-13241389D01*
X11520777Y-13241389D02*
X11539824Y-13250913D01*
X11539824Y-13250913D02*
X11549348Y-13260436D01*
X11549348Y-13260436D02*
X11558872Y-13279484D01*
X11558872Y-13279484D02*
X11568396Y-13317579D01*
X11568396Y-13317579D02*
X11568396Y-13365198D01*
X11568396Y-13365198D02*
X11558872Y-13403293D01*
X11558872Y-13403293D02*
X11549348Y-13422341D01*
X11549348Y-13422341D02*
X11539824Y-13431865D01*
X11539824Y-13431865D02*
X11520777Y-13441389D01*
X11520777Y-13441389D02*
X11501729Y-13441389D01*
X11501729Y-13441389D02*
X11482681Y-13431865D01*
X11482681Y-13431865D02*
X11473158Y-13422341D01*
X11473158Y-13422341D02*
X11463634Y-13403293D01*
X11463634Y-13403293D02*
X11454110Y-13365198D01*
X11454110Y-13365198D02*
X11454110Y-13317579D01*
X11454110Y-13317579D02*
X11463634Y-13279484D01*
X11463634Y-13279484D02*
X11473158Y-13260436D01*
X11473158Y-13260436D02*
X11482681Y-13250913D01*
X11482681Y-13250913D02*
X11501729Y-13241389D01*
X11654110Y-13422341D02*
X11663634Y-13431865D01*
X11663634Y-13431865D02*
X11654110Y-13441389D01*
X11654110Y-13441389D02*
X11644586Y-13431865D01*
X11644586Y-13431865D02*
X11654110Y-13422341D01*
X11654110Y-13422341D02*
X11654110Y-13441389D01*
X11854110Y-13441389D02*
X11739824Y-13441389D01*
X11796967Y-13441389D02*
X11796967Y-13241389D01*
X11796967Y-13241389D02*
X11777920Y-13269960D01*
X11777920Y-13269960D02*
X11758872Y-13289008D01*
X11758872Y-13289008D02*
X11739824Y-13298532D01*
X11930301Y-13260436D02*
X11939824Y-13250913D01*
X11939824Y-13250913D02*
X11958872Y-13241389D01*
X11958872Y-13241389D02*
X12006491Y-13241389D01*
X12006491Y-13241389D02*
X12025539Y-13250913D01*
X12025539Y-13250913D02*
X12035062Y-13260436D01*
X12035062Y-13260436D02*
X12044586Y-13279484D01*
X12044586Y-13279484D02*
X12044586Y-13298532D01*
X12044586Y-13298532D02*
X12035062Y-13327103D01*
X12035062Y-13327103D02*
X11920777Y-13441389D01*
X11920777Y-13441389D02*
X12044586Y-13441389D01*
X12216015Y-13241389D02*
X12177920Y-13241389D01*
X12177920Y-13241389D02*
X12158872Y-13250913D01*
X12158872Y-13250913D02*
X12149348Y-13260436D01*
X12149348Y-13260436D02*
X12130301Y-13289008D01*
X12130301Y-13289008D02*
X12120777Y-13327103D01*
X12120777Y-13327103D02*
X12120777Y-13403293D01*
X12120777Y-13403293D02*
X12130301Y-13422341D01*
X12130301Y-13422341D02*
X12139824Y-13431865D01*
X12139824Y-13431865D02*
X12158872Y-13441389D01*
X12158872Y-13441389D02*
X12196967Y-13441389D01*
X12196967Y-13441389D02*
X12216015Y-13431865D01*
X12216015Y-13431865D02*
X12225539Y-13422341D01*
X12225539Y-13422341D02*
X12235062Y-13403293D01*
X12235062Y-13403293D02*
X12235062Y-13355674D01*
X12235062Y-13355674D02*
X12225539Y-13336627D01*
X12225539Y-13336627D02*
X12216015Y-13327103D01*
X12216015Y-13327103D02*
X12196967Y-13317579D01*
X12196967Y-13317579D02*
X12158872Y-13317579D01*
X12158872Y-13317579D02*
X12139824Y-13327103D01*
X12139824Y-13327103D02*
X12130301Y-13336627D01*
X12130301Y-13336627D02*
X12120777Y-13355674D01*
X12358872Y-13241389D02*
X12377920Y-13241389D01*
X12377920Y-13241389D02*
X12396967Y-13250913D01*
X12396967Y-13250913D02*
X12406491Y-13260436D01*
X12406491Y-13260436D02*
X12416015Y-13279484D01*
X12416015Y-13279484D02*
X12425539Y-13317579D01*
X12425539Y-13317579D02*
X12425539Y-13365198D01*
X12425539Y-13365198D02*
X12416015Y-13403293D01*
X12416015Y-13403293D02*
X12406491Y-13422341D01*
X12406491Y-13422341D02*
X12396967Y-13431865D01*
X12396967Y-13431865D02*
X12377920Y-13441389D01*
X12377920Y-13441389D02*
X12358872Y-13441389D01*
X12358872Y-13441389D02*
X12339824Y-13431865D01*
X12339824Y-13431865D02*
X12330301Y-13422341D01*
X12330301Y-13422341D02*
X12320777Y-13403293D01*
X12320777Y-13403293D02*
X12311253Y-13365198D01*
X12311253Y-13365198D02*
X12311253Y-13317579D01*
X12311253Y-13317579D02*
X12320777Y-13279484D01*
X12320777Y-13279484D02*
X12330301Y-13260436D01*
X12330301Y-13260436D02*
X12339824Y-13250913D01*
X12339824Y-13250913D02*
X12358872Y-13241389D01*
X12501729Y-13241389D02*
X12501729Y-13279484D01*
X12577920Y-13241389D02*
X12577920Y-13279484D01*
X12873158Y-13517579D02*
X12863634Y-13508055D01*
X12863634Y-13508055D02*
X12844586Y-13479484D01*
X12844586Y-13479484D02*
X12835063Y-13460436D01*
X12835063Y-13460436D02*
X12825539Y-13431865D01*
X12825539Y-13431865D02*
X12816015Y-13384246D01*
X12816015Y-13384246D02*
X12816015Y-13346151D01*
X12816015Y-13346151D02*
X12825539Y-13298532D01*
X12825539Y-13298532D02*
X12835063Y-13269960D01*
X12835063Y-13269960D02*
X12844586Y-13250913D01*
X12844586Y-13250913D02*
X12863634Y-13222341D01*
X12863634Y-13222341D02*
X12873158Y-13212817D01*
X13035063Y-13308055D02*
X13035063Y-13441389D01*
X12987443Y-13231865D02*
X12939824Y-13374722D01*
X12939824Y-13374722D02*
X13063634Y-13374722D01*
X13292205Y-13441389D02*
X13292205Y-13241389D01*
X13377920Y-13441389D02*
X13377920Y-13336627D01*
X13377920Y-13336627D02*
X13368396Y-13317579D01*
X13368396Y-13317579D02*
X13349348Y-13308055D01*
X13349348Y-13308055D02*
X13320777Y-13308055D01*
X13320777Y-13308055D02*
X13301729Y-13317579D01*
X13301729Y-13317579D02*
X13292205Y-13327103D01*
X13501729Y-13441389D02*
X13482682Y-13431865D01*
X13482682Y-13431865D02*
X13473158Y-13422341D01*
X13473158Y-13422341D02*
X13463634Y-13403293D01*
X13463634Y-13403293D02*
X13463634Y-13346151D01*
X13463634Y-13346151D02*
X13473158Y-13327103D01*
X13473158Y-13327103D02*
X13482682Y-13317579D01*
X13482682Y-13317579D02*
X13501729Y-13308055D01*
X13501729Y-13308055D02*
X13530301Y-13308055D01*
X13530301Y-13308055D02*
X13549348Y-13317579D01*
X13549348Y-13317579D02*
X13558872Y-13327103D01*
X13558872Y-13327103D02*
X13568396Y-13346151D01*
X13568396Y-13346151D02*
X13568396Y-13403293D01*
X13568396Y-13403293D02*
X13558872Y-13422341D01*
X13558872Y-13422341D02*
X13549348Y-13431865D01*
X13549348Y-13431865D02*
X13530301Y-13441389D01*
X13530301Y-13441389D02*
X13501729Y-13441389D01*
X13682682Y-13441389D02*
X13663634Y-13431865D01*
X13663634Y-13431865D02*
X13654110Y-13412817D01*
X13654110Y-13412817D02*
X13654110Y-13241389D01*
X13835063Y-13431865D02*
X13816015Y-13441389D01*
X13816015Y-13441389D02*
X13777920Y-13441389D01*
X13777920Y-13441389D02*
X13758872Y-13431865D01*
X13758872Y-13431865D02*
X13749348Y-13412817D01*
X13749348Y-13412817D02*
X13749348Y-13336627D01*
X13749348Y-13336627D02*
X13758872Y-13317579D01*
X13758872Y-13317579D02*
X13777920Y-13308055D01*
X13777920Y-13308055D02*
X13816015Y-13308055D01*
X13816015Y-13308055D02*
X13835063Y-13317579D01*
X13835063Y-13317579D02*
X13844586Y-13336627D01*
X13844586Y-13336627D02*
X13844586Y-13355674D01*
X13844586Y-13355674D02*
X13749348Y-13374722D01*
X13920777Y-13431865D02*
X13939825Y-13441389D01*
X13939825Y-13441389D02*
X13977920Y-13441389D01*
X13977920Y-13441389D02*
X13996967Y-13431865D01*
X13996967Y-13431865D02*
X14006491Y-13412817D01*
X14006491Y-13412817D02*
X14006491Y-13403293D01*
X14006491Y-13403293D02*
X13996967Y-13384246D01*
X13996967Y-13384246D02*
X13977920Y-13374722D01*
X13977920Y-13374722D02*
X13949348Y-13374722D01*
X13949348Y-13374722D02*
X13930301Y-13365198D01*
X13930301Y-13365198D02*
X13920777Y-13346151D01*
X13920777Y-13346151D02*
X13920777Y-13336627D01*
X13920777Y-13336627D02*
X13930301Y-13317579D01*
X13930301Y-13317579D02*
X13949348Y-13308055D01*
X13949348Y-13308055D02*
X13977920Y-13308055D01*
X13977920Y-13308055D02*
X13996967Y-13317579D01*
X14073158Y-13517579D02*
X14082682Y-13508055D01*
X14082682Y-13508055D02*
X14101729Y-13479484D01*
X14101729Y-13479484D02*
X14111253Y-13460436D01*
X14111253Y-13460436D02*
X14120777Y-13431865D01*
X14120777Y-13431865D02*
X14130301Y-13384246D01*
X14130301Y-13384246D02*
X14130301Y-13346151D01*
X14130301Y-13346151D02*
X14120777Y-13298532D01*
X14120777Y-13298532D02*
X14111253Y-13269960D01*
X14111253Y-13269960D02*
X14101729Y-13250913D01*
X14101729Y-13250913D02*
X14082682Y-13222341D01*
X14082682Y-13222341D02*
X14073158Y-13212817D01*
M02*
