G04 #@! TF.GenerationSoftware,KiCad,Pcbnew,9.0.4*
G04 #@! TF.CreationDate,2025-09-11T10:43:24+07:00*
G04 #@! TF.ProjectId,BreakoutBoard,42726561-6b6f-4757-9442-6f6172642e6b,rev?*
G04 #@! TF.SameCoordinates,Original*
G04 #@! TF.FileFunction,Soldermask,Top*
G04 #@! TF.FilePolarity,Negative*
%FSLAX46Y46*%
G04 Gerber Fmt 4.6, Leading zero omitted, Abs format (unit mm)*
G04 Created by KiCad (PCBNEW 9.0.4) date 2025-09-11 10:43:24*
%MOMM*%
%LPD*%
G01*
G04 APERTURE LIST*
G04 APERTURE END LIST*
G36*
X129168254Y-101305034D02*
G01*
X129179425Y-101305034D01*
X129257008Y-101313775D01*
X129469527Y-101334707D01*
X129504477Y-101341658D01*
X129536020Y-101345213D01*
X129628748Y-101366377D01*
X129777521Y-101395970D01*
X129835630Y-101413597D01*
X129885874Y-101425065D01*
X129966903Y-101453418D01*
X130078017Y-101487124D01*
X130158482Y-101520454D01*
X130224587Y-101543585D01*
X130287694Y-101573976D01*
X130368152Y-101607303D01*
X130470533Y-101662026D01*
X130547900Y-101699285D01*
X130591547Y-101726710D01*
X130645087Y-101755328D01*
X130771194Y-101839590D01*
X130851748Y-101890205D01*
X130876565Y-101909996D01*
X130906192Y-101929792D01*
X131071284Y-102065279D01*
X131132309Y-102113945D01*
X131140205Y-102121841D01*
X131148938Y-102129008D01*
X131370991Y-102351061D01*
X131378157Y-102359793D01*
X131386055Y-102367691D01*
X131434726Y-102428723D01*
X131570207Y-102593807D01*
X131590001Y-102623431D01*
X131609795Y-102648252D01*
X131660415Y-102728813D01*
X131744671Y-102854912D01*
X131773286Y-102908447D01*
X131800715Y-102952100D01*
X131837977Y-103029475D01*
X131892696Y-103131847D01*
X131926019Y-103212296D01*
X131956415Y-103275413D01*
X131979549Y-103341527D01*
X132012875Y-103421982D01*
X132046576Y-103533081D01*
X132074935Y-103614126D01*
X132086404Y-103664378D01*
X132104029Y-103722478D01*
X132133616Y-103871224D01*
X132154787Y-103963980D01*
X132158342Y-103995531D01*
X132165292Y-104030472D01*
X132186222Y-104242975D01*
X132194966Y-104320575D01*
X132194966Y-104331745D01*
X132196073Y-104342985D01*
X132196073Y-104657014D01*
X132194966Y-104668253D01*
X132194966Y-104679425D01*
X132186221Y-104757031D01*
X132165292Y-104969527D01*
X132158342Y-105004465D01*
X132154787Y-105036020D01*
X132133614Y-105128782D01*
X132104029Y-105277521D01*
X132086405Y-105335617D01*
X132074935Y-105385874D01*
X132046574Y-105466925D01*
X132012875Y-105578017D01*
X131979551Y-105658466D01*
X131956415Y-105724587D01*
X131926016Y-105787709D01*
X131892696Y-105868152D01*
X131837982Y-105970514D01*
X131800715Y-106047900D01*
X131773282Y-106091558D01*
X131744671Y-106145087D01*
X131660425Y-106271169D01*
X131609795Y-106351748D01*
X131589997Y-106376573D01*
X131570207Y-106406192D01*
X131434755Y-106571241D01*
X131386055Y-106632309D01*
X131378153Y-106640210D01*
X131370991Y-106648938D01*
X131148938Y-106870991D01*
X131140210Y-106878153D01*
X131132309Y-106886055D01*
X131071241Y-106934755D01*
X130906192Y-107070207D01*
X130876573Y-107089997D01*
X130851748Y-107109795D01*
X130771169Y-107160425D01*
X130645087Y-107244671D01*
X130591558Y-107273282D01*
X130547900Y-107300715D01*
X130470514Y-107337982D01*
X130368152Y-107392696D01*
X130287709Y-107426016D01*
X130224587Y-107456415D01*
X130158466Y-107479551D01*
X130078017Y-107512875D01*
X129966925Y-107546574D01*
X129885874Y-107574935D01*
X129835617Y-107586405D01*
X129777521Y-107604029D01*
X129628782Y-107633614D01*
X129536020Y-107654787D01*
X129504465Y-107658342D01*
X129469527Y-107665292D01*
X129257031Y-107686221D01*
X129179425Y-107694966D01*
X129168253Y-107694966D01*
X129157014Y-107696073D01*
X128842986Y-107696073D01*
X128831747Y-107694966D01*
X128820575Y-107694966D01*
X128742971Y-107686222D01*
X128530472Y-107665292D01*
X128495531Y-107658342D01*
X128463980Y-107654787D01*
X128371224Y-107633616D01*
X128222478Y-107604029D01*
X128164378Y-107586404D01*
X128114126Y-107574935D01*
X128033081Y-107546576D01*
X127921982Y-107512875D01*
X127841527Y-107479549D01*
X127775413Y-107456415D01*
X127712296Y-107426019D01*
X127631847Y-107392696D01*
X127529475Y-107337977D01*
X127452100Y-107300715D01*
X127408447Y-107273286D01*
X127354912Y-107244671D01*
X127228813Y-107160415D01*
X127148252Y-107109795D01*
X127123431Y-107090001D01*
X127093807Y-107070207D01*
X126928723Y-106934726D01*
X126867691Y-106886055D01*
X126859793Y-106878157D01*
X126851061Y-106870991D01*
X126629008Y-106648938D01*
X126621841Y-106640205D01*
X126613945Y-106632309D01*
X126565279Y-106571284D01*
X126429792Y-106406192D01*
X126409996Y-106376565D01*
X126390205Y-106351748D01*
X126339590Y-106271194D01*
X126255328Y-106145087D01*
X126226710Y-106091547D01*
X126199285Y-106047900D01*
X126162026Y-105970533D01*
X126107303Y-105868152D01*
X126073976Y-105787694D01*
X126043585Y-105724587D01*
X126020454Y-105658482D01*
X125987124Y-105578017D01*
X125953418Y-105466903D01*
X125925065Y-105385874D01*
X125913597Y-105335630D01*
X125895970Y-105277521D01*
X125866377Y-105128748D01*
X125845213Y-105036020D01*
X125841658Y-105004477D01*
X125834707Y-104969527D01*
X125813775Y-104757008D01*
X125805034Y-104679425D01*
X125805034Y-104668253D01*
X125803927Y-104657014D01*
X125803927Y-104342985D01*
X125805034Y-104331745D01*
X125805034Y-104320575D01*
X125813774Y-104242998D01*
X125834707Y-104030472D01*
X125841659Y-103995520D01*
X125845213Y-103963980D01*
X125866376Y-103871258D01*
X125895970Y-103722478D01*
X125913598Y-103664365D01*
X125925065Y-103614126D01*
X125953416Y-103533102D01*
X125987124Y-103421982D01*
X126020456Y-103341511D01*
X126043585Y-103275413D01*
X126073973Y-103212311D01*
X126107303Y-103131847D01*
X126162031Y-103029456D01*
X126199285Y-102952100D01*
X126226707Y-102908457D01*
X126255328Y-102854912D01*
X126339600Y-102728788D01*
X126390205Y-102648252D01*
X126409992Y-102623439D01*
X126429792Y-102593807D01*
X126565307Y-102428680D01*
X126613945Y-102367691D01*
X126621836Y-102359799D01*
X126629008Y-102351061D01*
X126851061Y-102129008D01*
X126859799Y-102121836D01*
X126867691Y-102113945D01*
X126928680Y-102065307D01*
X127093807Y-101929792D01*
X127123439Y-101909992D01*
X127148252Y-101890205D01*
X127228788Y-101839600D01*
X127354912Y-101755328D01*
X127408457Y-101726707D01*
X127452100Y-101699285D01*
X127529456Y-101662031D01*
X127631847Y-101607303D01*
X127712311Y-101573973D01*
X127775413Y-101543585D01*
X127841511Y-101520456D01*
X127921982Y-101487124D01*
X128033102Y-101453416D01*
X128114126Y-101425065D01*
X128164365Y-101413598D01*
X128222478Y-101395970D01*
X128371258Y-101366376D01*
X128463980Y-101345213D01*
X128495520Y-101341659D01*
X128530472Y-101334707D01*
X128742993Y-101313775D01*
X128820575Y-101305034D01*
X128831746Y-101305034D01*
X128842986Y-101303927D01*
X129157014Y-101303927D01*
X129168254Y-101305034D01*
G37*
G36*
X159168254Y-101305034D02*
G01*
X159179425Y-101305034D01*
X159257008Y-101313775D01*
X159469527Y-101334707D01*
X159504477Y-101341658D01*
X159536020Y-101345213D01*
X159628748Y-101366377D01*
X159777521Y-101395970D01*
X159835630Y-101413597D01*
X159885874Y-101425065D01*
X159966903Y-101453418D01*
X160078017Y-101487124D01*
X160158482Y-101520454D01*
X160224587Y-101543585D01*
X160287694Y-101573976D01*
X160368152Y-101607303D01*
X160470533Y-101662026D01*
X160547900Y-101699285D01*
X160591547Y-101726710D01*
X160645087Y-101755328D01*
X160771194Y-101839590D01*
X160851748Y-101890205D01*
X160876565Y-101909996D01*
X160906192Y-101929792D01*
X161071284Y-102065279D01*
X161132309Y-102113945D01*
X161140205Y-102121841D01*
X161148938Y-102129008D01*
X161370991Y-102351061D01*
X161378157Y-102359793D01*
X161386055Y-102367691D01*
X161434726Y-102428723D01*
X161570207Y-102593807D01*
X161590001Y-102623431D01*
X161609795Y-102648252D01*
X161660415Y-102728813D01*
X161744671Y-102854912D01*
X161773286Y-102908447D01*
X161800715Y-102952100D01*
X161837977Y-103029475D01*
X161892696Y-103131847D01*
X161926019Y-103212296D01*
X161956415Y-103275413D01*
X161979549Y-103341527D01*
X162012875Y-103421982D01*
X162046576Y-103533081D01*
X162074935Y-103614126D01*
X162086404Y-103664378D01*
X162104029Y-103722478D01*
X162133616Y-103871224D01*
X162154787Y-103963980D01*
X162158342Y-103995531D01*
X162165292Y-104030472D01*
X162186222Y-104242975D01*
X162194966Y-104320575D01*
X162194966Y-104331745D01*
X162196073Y-104342985D01*
X162196073Y-104657014D01*
X162194966Y-104668253D01*
X162194966Y-104679425D01*
X162186221Y-104757031D01*
X162165292Y-104969527D01*
X162158342Y-105004465D01*
X162154787Y-105036020D01*
X162133614Y-105128782D01*
X162104029Y-105277521D01*
X162086405Y-105335617D01*
X162074935Y-105385874D01*
X162046574Y-105466925D01*
X162012875Y-105578017D01*
X161979551Y-105658466D01*
X161956415Y-105724587D01*
X161926016Y-105787709D01*
X161892696Y-105868152D01*
X161837982Y-105970514D01*
X161800715Y-106047900D01*
X161773282Y-106091558D01*
X161744671Y-106145087D01*
X161660425Y-106271169D01*
X161609795Y-106351748D01*
X161589997Y-106376573D01*
X161570207Y-106406192D01*
X161434755Y-106571241D01*
X161386055Y-106632309D01*
X161378153Y-106640210D01*
X161370991Y-106648938D01*
X161148938Y-106870991D01*
X161140210Y-106878153D01*
X161132309Y-106886055D01*
X161071241Y-106934755D01*
X160906192Y-107070207D01*
X160876573Y-107089997D01*
X160851748Y-107109795D01*
X160771169Y-107160425D01*
X160645087Y-107244671D01*
X160591558Y-107273282D01*
X160547900Y-107300715D01*
X160470514Y-107337982D01*
X160368152Y-107392696D01*
X160287709Y-107426016D01*
X160224587Y-107456415D01*
X160158466Y-107479551D01*
X160078017Y-107512875D01*
X159966925Y-107546574D01*
X159885874Y-107574935D01*
X159835617Y-107586405D01*
X159777521Y-107604029D01*
X159628782Y-107633614D01*
X159536020Y-107654787D01*
X159504465Y-107658342D01*
X159469527Y-107665292D01*
X159257031Y-107686221D01*
X159179425Y-107694966D01*
X159168253Y-107694966D01*
X159157014Y-107696073D01*
X158842986Y-107696073D01*
X158831747Y-107694966D01*
X158820575Y-107694966D01*
X158742971Y-107686222D01*
X158530472Y-107665292D01*
X158495531Y-107658342D01*
X158463980Y-107654787D01*
X158371224Y-107633616D01*
X158222478Y-107604029D01*
X158164378Y-107586404D01*
X158114126Y-107574935D01*
X158033081Y-107546576D01*
X157921982Y-107512875D01*
X157841527Y-107479549D01*
X157775413Y-107456415D01*
X157712296Y-107426019D01*
X157631847Y-107392696D01*
X157529475Y-107337977D01*
X157452100Y-107300715D01*
X157408447Y-107273286D01*
X157354912Y-107244671D01*
X157228813Y-107160415D01*
X157148252Y-107109795D01*
X157123431Y-107090001D01*
X157093807Y-107070207D01*
X156928723Y-106934726D01*
X156867691Y-106886055D01*
X156859793Y-106878157D01*
X156851061Y-106870991D01*
X156629008Y-106648938D01*
X156621841Y-106640205D01*
X156613945Y-106632309D01*
X156565279Y-106571284D01*
X156429792Y-106406192D01*
X156409996Y-106376565D01*
X156390205Y-106351748D01*
X156339590Y-106271194D01*
X156255328Y-106145087D01*
X156226710Y-106091547D01*
X156199285Y-106047900D01*
X156162026Y-105970533D01*
X156107303Y-105868152D01*
X156073976Y-105787694D01*
X156043585Y-105724587D01*
X156020454Y-105658482D01*
X155987124Y-105578017D01*
X155953418Y-105466903D01*
X155925065Y-105385874D01*
X155913597Y-105335630D01*
X155895970Y-105277521D01*
X155866377Y-105128748D01*
X155845213Y-105036020D01*
X155841658Y-105004477D01*
X155834707Y-104969527D01*
X155813775Y-104757008D01*
X155805034Y-104679425D01*
X155805034Y-104668253D01*
X155803927Y-104657014D01*
X155803927Y-104342985D01*
X155805034Y-104331745D01*
X155805034Y-104320575D01*
X155813774Y-104242998D01*
X155834707Y-104030472D01*
X155841659Y-103995520D01*
X155845213Y-103963980D01*
X155866376Y-103871258D01*
X155895970Y-103722478D01*
X155913598Y-103664365D01*
X155925065Y-103614126D01*
X155953416Y-103533102D01*
X155987124Y-103421982D01*
X156020456Y-103341511D01*
X156043585Y-103275413D01*
X156073973Y-103212311D01*
X156107303Y-103131847D01*
X156162031Y-103029456D01*
X156199285Y-102952100D01*
X156226707Y-102908457D01*
X156255328Y-102854912D01*
X156339600Y-102728788D01*
X156390205Y-102648252D01*
X156409992Y-102623439D01*
X156429792Y-102593807D01*
X156565307Y-102428680D01*
X156613945Y-102367691D01*
X156621836Y-102359799D01*
X156629008Y-102351061D01*
X156851061Y-102129008D01*
X156859799Y-102121836D01*
X156867691Y-102113945D01*
X156928680Y-102065307D01*
X157093807Y-101929792D01*
X157123439Y-101909992D01*
X157148252Y-101890205D01*
X157228788Y-101839600D01*
X157354912Y-101755328D01*
X157408457Y-101726707D01*
X157452100Y-101699285D01*
X157529456Y-101662031D01*
X157631847Y-101607303D01*
X157712311Y-101573973D01*
X157775413Y-101543585D01*
X157841511Y-101520456D01*
X157921982Y-101487124D01*
X158033102Y-101453416D01*
X158114126Y-101425065D01*
X158164365Y-101413598D01*
X158222478Y-101395970D01*
X158371258Y-101366376D01*
X158463980Y-101345213D01*
X158495520Y-101341659D01*
X158530472Y-101334707D01*
X158742993Y-101313775D01*
X158820575Y-101305034D01*
X158831746Y-101305034D01*
X158842986Y-101303927D01*
X159157014Y-101303927D01*
X159168254Y-101305034D01*
G37*
G36*
X143890000Y-103350000D02*
G01*
X142190000Y-103350000D01*
X142190000Y-101650000D01*
X143890000Y-101650000D01*
X143890000Y-103350000D01*
G37*
G36*
X140746742Y-101686601D02*
G01*
X140900687Y-101750367D01*
X141039234Y-101842941D01*
X141157059Y-101960766D01*
X141249633Y-102099313D01*
X141313399Y-102253258D01*
X141345907Y-102416685D01*
X141345907Y-102583315D01*
X141313399Y-102746742D01*
X141249633Y-102900687D01*
X141157059Y-103039234D01*
X141039234Y-103157059D01*
X140900687Y-103249633D01*
X140746742Y-103313399D01*
X140583315Y-103345907D01*
X140416685Y-103345907D01*
X140253258Y-103313399D01*
X140099313Y-103249633D01*
X139960766Y-103157059D01*
X139842941Y-103039234D01*
X139750367Y-102900687D01*
X139686601Y-102746742D01*
X139654093Y-102583315D01*
X139654093Y-102416685D01*
X139686601Y-102253258D01*
X139750367Y-102099313D01*
X139842941Y-101960766D01*
X139960766Y-101842941D01*
X140099313Y-101750367D01*
X140253258Y-101686601D01*
X140416685Y-101654093D01*
X140583315Y-101654093D01*
X140746742Y-101686601D01*
G37*
G36*
X100999034Y-98705764D02*
G01*
X101032125Y-98727875D01*
X101054236Y-98760966D01*
X101062000Y-98800000D01*
X101062000Y-101200000D01*
X101054236Y-101239034D01*
X101032125Y-101272125D01*
X100999034Y-101294236D01*
X100960000Y-101302000D01*
X98560000Y-101302000D01*
X98520966Y-101294236D01*
X98487875Y-101272125D01*
X98465764Y-101239034D01*
X98458000Y-101200000D01*
X98458000Y-98800000D01*
X98465764Y-98760966D01*
X98487875Y-98727875D01*
X98520966Y-98705764D01*
X98560000Y-98698000D01*
X100960000Y-98698000D01*
X100999034Y-98705764D01*
G37*
G36*
X181239034Y-98705764D02*
G01*
X181272125Y-98727875D01*
X181294236Y-98760966D01*
X181302000Y-98800000D01*
X181302000Y-101200000D01*
X181294236Y-101239034D01*
X181272125Y-101272125D01*
X181239034Y-101294236D01*
X181200000Y-101302000D01*
X178800000Y-101302000D01*
X178760966Y-101294236D01*
X178727875Y-101272125D01*
X178705764Y-101239034D01*
X178698000Y-101200000D01*
X178698000Y-98800000D01*
X178705764Y-98760966D01*
X178727875Y-98727875D01*
X178760966Y-98705764D01*
X178800000Y-98698000D01*
X181200000Y-98698000D01*
X181239034Y-98705764D01*
G37*
G36*
X105143946Y-98733974D02*
G01*
X105338254Y-98797109D01*
X105520293Y-98889863D01*
X105685581Y-99009951D01*
X105830049Y-99154419D01*
X105950137Y-99319707D01*
X106042891Y-99501746D01*
X106106026Y-99696054D01*
X106137986Y-99897846D01*
X106137986Y-100102154D01*
X106106026Y-100303946D01*
X106042891Y-100498254D01*
X105950137Y-100680293D01*
X105830049Y-100845581D01*
X105685581Y-100990049D01*
X105520293Y-101110137D01*
X105338254Y-101202891D01*
X105143946Y-101266026D01*
X104942154Y-101297986D01*
X104737846Y-101297986D01*
X104536054Y-101266026D01*
X104341746Y-101202891D01*
X104159707Y-101110137D01*
X103994419Y-100990049D01*
X103849951Y-100845581D01*
X103729863Y-100680293D01*
X103637109Y-100498254D01*
X103573974Y-100303946D01*
X103542014Y-100102154D01*
X103542014Y-99897846D01*
X103573974Y-99696054D01*
X103637109Y-99501746D01*
X103729863Y-99319707D01*
X103849951Y-99154419D01*
X103994419Y-99009951D01*
X104159707Y-98889863D01*
X104341746Y-98797109D01*
X104536054Y-98733974D01*
X104737846Y-98702014D01*
X104942154Y-98702014D01*
X105143946Y-98733974D01*
G37*
G36*
X110223946Y-98733974D02*
G01*
X110418254Y-98797109D01*
X110600293Y-98889863D01*
X110765581Y-99009951D01*
X110910049Y-99154419D01*
X111030137Y-99319707D01*
X111122891Y-99501746D01*
X111186026Y-99696054D01*
X111217986Y-99897846D01*
X111217986Y-100102154D01*
X111186026Y-100303946D01*
X111122891Y-100498254D01*
X111030137Y-100680293D01*
X110910049Y-100845581D01*
X110765581Y-100990049D01*
X110600293Y-101110137D01*
X110418254Y-101202891D01*
X110223946Y-101266026D01*
X110022154Y-101297986D01*
X109817846Y-101297986D01*
X109616054Y-101266026D01*
X109421746Y-101202891D01*
X109239707Y-101110137D01*
X109074419Y-100990049D01*
X108929951Y-100845581D01*
X108809863Y-100680293D01*
X108717109Y-100498254D01*
X108653974Y-100303946D01*
X108622014Y-100102154D01*
X108622014Y-99897846D01*
X108653974Y-99696054D01*
X108717109Y-99501746D01*
X108809863Y-99319707D01*
X108929951Y-99154419D01*
X109074419Y-99009951D01*
X109239707Y-98889863D01*
X109421746Y-98797109D01*
X109616054Y-98733974D01*
X109817846Y-98702014D01*
X110022154Y-98702014D01*
X110223946Y-98733974D01*
G37*
G36*
X115303946Y-98733974D02*
G01*
X115498254Y-98797109D01*
X115680293Y-98889863D01*
X115845581Y-99009951D01*
X115990049Y-99154419D01*
X116110137Y-99319707D01*
X116202891Y-99501746D01*
X116266026Y-99696054D01*
X116297986Y-99897846D01*
X116297986Y-100102154D01*
X116266026Y-100303946D01*
X116202891Y-100498254D01*
X116110137Y-100680293D01*
X115990049Y-100845581D01*
X115845581Y-100990049D01*
X115680293Y-101110137D01*
X115498254Y-101202891D01*
X115303946Y-101266026D01*
X115102154Y-101297986D01*
X114897846Y-101297986D01*
X114696054Y-101266026D01*
X114501746Y-101202891D01*
X114319707Y-101110137D01*
X114154419Y-100990049D01*
X114009951Y-100845581D01*
X113889863Y-100680293D01*
X113797109Y-100498254D01*
X113733974Y-100303946D01*
X113702014Y-100102154D01*
X113702014Y-99897846D01*
X113733974Y-99696054D01*
X113797109Y-99501746D01*
X113889863Y-99319707D01*
X114009951Y-99154419D01*
X114154419Y-99009951D01*
X114319707Y-98889863D01*
X114501746Y-98797109D01*
X114696054Y-98733974D01*
X114897846Y-98702014D01*
X115102154Y-98702014D01*
X115303946Y-98733974D01*
G37*
G36*
X185383946Y-98733974D02*
G01*
X185578254Y-98797109D01*
X185760293Y-98889863D01*
X185925581Y-99009951D01*
X186070049Y-99154419D01*
X186190137Y-99319707D01*
X186282891Y-99501746D01*
X186346026Y-99696054D01*
X186377986Y-99897846D01*
X186377986Y-100102154D01*
X186346026Y-100303946D01*
X186282891Y-100498254D01*
X186190137Y-100680293D01*
X186070049Y-100845581D01*
X185925581Y-100990049D01*
X185760293Y-101110137D01*
X185578254Y-101202891D01*
X185383946Y-101266026D01*
X185182154Y-101297986D01*
X184977846Y-101297986D01*
X184776054Y-101266026D01*
X184581746Y-101202891D01*
X184399707Y-101110137D01*
X184234419Y-100990049D01*
X184089951Y-100845581D01*
X183969863Y-100680293D01*
X183877109Y-100498254D01*
X183813974Y-100303946D01*
X183782014Y-100102154D01*
X183782014Y-99897846D01*
X183813974Y-99696054D01*
X183877109Y-99501746D01*
X183969863Y-99319707D01*
X184089951Y-99154419D01*
X184234419Y-99009951D01*
X184399707Y-98889863D01*
X184581746Y-98797109D01*
X184776054Y-98733974D01*
X184977846Y-98702014D01*
X185182154Y-98702014D01*
X185383946Y-98733974D01*
G37*
G36*
X190463946Y-98733974D02*
G01*
X190658254Y-98797109D01*
X190840293Y-98889863D01*
X191005581Y-99009951D01*
X191150049Y-99154419D01*
X191270137Y-99319707D01*
X191362891Y-99501746D01*
X191426026Y-99696054D01*
X191457986Y-99897846D01*
X191457986Y-100102154D01*
X191426026Y-100303946D01*
X191362891Y-100498254D01*
X191270137Y-100680293D01*
X191150049Y-100845581D01*
X191005581Y-100990049D01*
X190840293Y-101110137D01*
X190658254Y-101202891D01*
X190463946Y-101266026D01*
X190262154Y-101297986D01*
X190057846Y-101297986D01*
X189856054Y-101266026D01*
X189661746Y-101202891D01*
X189479707Y-101110137D01*
X189314419Y-100990049D01*
X189169951Y-100845581D01*
X189049863Y-100680293D01*
X188957109Y-100498254D01*
X188893974Y-100303946D01*
X188862014Y-100102154D01*
X188862014Y-99897846D01*
X188893974Y-99696054D01*
X188957109Y-99501746D01*
X189049863Y-99319707D01*
X189169951Y-99154419D01*
X189314419Y-99009951D01*
X189479707Y-98889863D01*
X189661746Y-98797109D01*
X189856054Y-98733974D01*
X190057846Y-98702014D01*
X190262154Y-98702014D01*
X190463946Y-98733974D01*
G37*
G36*
X195543946Y-98733974D02*
G01*
X195738254Y-98797109D01*
X195920293Y-98889863D01*
X196085581Y-99009951D01*
X196230049Y-99154419D01*
X196350137Y-99319707D01*
X196442891Y-99501746D01*
X196506026Y-99696054D01*
X196537986Y-99897846D01*
X196537986Y-100102154D01*
X196506026Y-100303946D01*
X196442891Y-100498254D01*
X196350137Y-100680293D01*
X196230049Y-100845581D01*
X196085581Y-100990049D01*
X195920293Y-101110137D01*
X195738254Y-101202891D01*
X195543946Y-101266026D01*
X195342154Y-101297986D01*
X195137846Y-101297986D01*
X194936054Y-101266026D01*
X194741746Y-101202891D01*
X194559707Y-101110137D01*
X194394419Y-100990049D01*
X194249951Y-100845581D01*
X194129863Y-100680293D01*
X194037109Y-100498254D01*
X193973974Y-100303946D01*
X193942014Y-100102154D01*
X193942014Y-99897846D01*
X193973974Y-99696054D01*
X194037109Y-99501746D01*
X194129863Y-99319707D01*
X194249951Y-99154419D01*
X194394419Y-99009951D01*
X194559707Y-98889863D01*
X194741746Y-98797109D01*
X194936054Y-98733974D01*
X195137846Y-98702014D01*
X195342154Y-98702014D01*
X195543946Y-98733974D01*
G37*
G36*
X123232173Y-95555090D02*
G01*
X123237144Y-95557285D01*
X123239247Y-95557562D01*
X123265554Y-95569829D01*
X123328238Y-95597507D01*
X123402493Y-95671762D01*
X123430174Y-95734453D01*
X123442437Y-95760751D01*
X123442713Y-95762852D01*
X123444910Y-95767827D01*
X123452500Y-95833250D01*
X123452500Y-97166750D01*
X123444910Y-97232173D01*
X123442713Y-97237147D01*
X123442437Y-97239247D01*
X123430188Y-97265513D01*
X123402493Y-97328238D01*
X123328238Y-97402493D01*
X123265527Y-97430182D01*
X123239248Y-97442437D01*
X123237147Y-97442713D01*
X123232173Y-97444910D01*
X123166750Y-97452500D01*
X121833250Y-97452500D01*
X121767827Y-97444910D01*
X121762852Y-97442713D01*
X121760752Y-97442437D01*
X121734467Y-97430180D01*
X121671762Y-97402493D01*
X121597507Y-97328238D01*
X121569835Y-97265567D01*
X121557562Y-97239248D01*
X121557285Y-97237144D01*
X121555090Y-97232173D01*
X121547500Y-97166750D01*
X121547500Y-95833250D01*
X121555090Y-95767827D01*
X121557285Y-95762855D01*
X121557562Y-95760752D01*
X121569837Y-95734426D01*
X121597507Y-95671762D01*
X121671762Y-95597507D01*
X121734413Y-95569843D01*
X121760751Y-95557562D01*
X121762856Y-95557284D01*
X121767827Y-95555090D01*
X121833250Y-95547500D01*
X123166750Y-95547500D01*
X123232173Y-95555090D01*
G37*
G36*
X141232173Y-95555090D02*
G01*
X141237144Y-95557285D01*
X141239247Y-95557562D01*
X141265554Y-95569829D01*
X141328238Y-95597507D01*
X141402493Y-95671762D01*
X141430174Y-95734453D01*
X141442437Y-95760751D01*
X141442713Y-95762852D01*
X141444910Y-95767827D01*
X141452500Y-95833250D01*
X141452500Y-97166750D01*
X141444910Y-97232173D01*
X141442713Y-97237147D01*
X141442437Y-97239247D01*
X141430188Y-97265513D01*
X141402493Y-97328238D01*
X141328238Y-97402493D01*
X141265527Y-97430182D01*
X141239248Y-97442437D01*
X141237147Y-97442713D01*
X141232173Y-97444910D01*
X141166750Y-97452500D01*
X139833250Y-97452500D01*
X139767827Y-97444910D01*
X139762852Y-97442713D01*
X139760752Y-97442437D01*
X139734467Y-97430180D01*
X139671762Y-97402493D01*
X139597507Y-97328238D01*
X139569835Y-97265567D01*
X139557562Y-97239248D01*
X139557285Y-97237144D01*
X139555090Y-97232173D01*
X139547500Y-97166750D01*
X139547500Y-95833250D01*
X139555090Y-95767827D01*
X139557285Y-95762855D01*
X139557562Y-95760752D01*
X139569837Y-95734426D01*
X139597507Y-95671762D01*
X139671762Y-95597507D01*
X139734413Y-95569843D01*
X139760751Y-95557562D01*
X139762856Y-95557284D01*
X139767827Y-95555090D01*
X139833250Y-95547500D01*
X141166750Y-95547500D01*
X141232173Y-95555090D01*
G37*
G36*
X147820806Y-95533204D02*
G01*
X147977287Y-95598020D01*
X148118116Y-95692119D01*
X148237881Y-95811884D01*
X148331980Y-95952713D01*
X148396796Y-96109194D01*
X148429840Y-96275313D01*
X148429840Y-96444687D01*
X148396796Y-96610806D01*
X148331980Y-96767287D01*
X148237881Y-96908116D01*
X148118116Y-97027881D01*
X147977287Y-97121980D01*
X147820806Y-97186796D01*
X147654687Y-97219840D01*
X147485313Y-97219840D01*
X147319194Y-97186796D01*
X147162713Y-97121980D01*
X147021884Y-97027881D01*
X146902119Y-96908116D01*
X146808020Y-96767287D01*
X146743204Y-96610806D01*
X146710160Y-96444687D01*
X146710160Y-96275313D01*
X146743204Y-96109194D01*
X146808020Y-95952713D01*
X146902119Y-95811884D01*
X147021884Y-95692119D01*
X147162713Y-95598020D01*
X147319194Y-95533204D01*
X147485313Y-95500160D01*
X147654687Y-95500160D01*
X147820806Y-95533204D01*
G37*
G36*
X170680806Y-95533204D02*
G01*
X170837287Y-95598020D01*
X170978116Y-95692119D01*
X171097881Y-95811884D01*
X171191980Y-95952713D01*
X171256796Y-96109194D01*
X171289840Y-96275313D01*
X171289840Y-96444687D01*
X171256796Y-96610806D01*
X171191980Y-96767287D01*
X171097881Y-96908116D01*
X170978116Y-97027881D01*
X170837287Y-97121980D01*
X170680806Y-97186796D01*
X170514687Y-97219840D01*
X170345313Y-97219840D01*
X170179194Y-97186796D01*
X170022713Y-97121980D01*
X169881884Y-97027881D01*
X169762119Y-96908116D01*
X169668020Y-96767287D01*
X169603204Y-96610806D01*
X169570160Y-96444687D01*
X169570160Y-96275313D01*
X169603204Y-96109194D01*
X169668020Y-95952713D01*
X169762119Y-95811884D01*
X169881884Y-95692119D01*
X170022713Y-95598020D01*
X170179194Y-95533204D01*
X170345313Y-95500160D01*
X170514687Y-95500160D01*
X170680806Y-95533204D01*
G37*
G36*
X147820806Y-92993204D02*
G01*
X147977287Y-93058020D01*
X148118116Y-93152119D01*
X148237881Y-93271884D01*
X148331980Y-93412713D01*
X148396796Y-93569194D01*
X148429840Y-93735313D01*
X148429840Y-93904687D01*
X148396796Y-94070806D01*
X148331980Y-94227287D01*
X148237881Y-94368116D01*
X148118116Y-94487881D01*
X147977287Y-94581980D01*
X147820806Y-94646796D01*
X147654687Y-94679840D01*
X147485313Y-94679840D01*
X147319194Y-94646796D01*
X147162713Y-94581980D01*
X147021884Y-94487881D01*
X146902119Y-94368116D01*
X146808020Y-94227287D01*
X146743204Y-94070806D01*
X146710160Y-93904687D01*
X146710160Y-93735313D01*
X146743204Y-93569194D01*
X146808020Y-93412713D01*
X146902119Y-93271884D01*
X147021884Y-93152119D01*
X147162713Y-93058020D01*
X147319194Y-92993204D01*
X147485313Y-92960160D01*
X147654687Y-92960160D01*
X147820806Y-92993204D01*
G37*
G36*
X170680806Y-92993204D02*
G01*
X170837287Y-93058020D01*
X170978116Y-93152119D01*
X171097881Y-93271884D01*
X171191980Y-93412713D01*
X171256796Y-93569194D01*
X171289840Y-93735313D01*
X171289840Y-93904687D01*
X171256796Y-94070806D01*
X171191980Y-94227287D01*
X171097881Y-94368116D01*
X170978116Y-94487881D01*
X170837287Y-94581980D01*
X170680806Y-94646796D01*
X170514687Y-94679840D01*
X170345313Y-94679840D01*
X170179194Y-94646796D01*
X170022713Y-94581980D01*
X169881884Y-94487881D01*
X169762119Y-94368116D01*
X169668020Y-94227287D01*
X169603204Y-94070806D01*
X169570160Y-93904687D01*
X169570160Y-93735313D01*
X169603204Y-93569194D01*
X169668020Y-93412713D01*
X169762119Y-93271884D01*
X169881884Y-93152119D01*
X170022713Y-93058020D01*
X170179194Y-92993204D01*
X170345313Y-92960160D01*
X170514687Y-92960160D01*
X170680806Y-92993204D01*
G37*
G36*
X147820806Y-90453204D02*
G01*
X147977287Y-90518020D01*
X148118116Y-90612119D01*
X148237881Y-90731884D01*
X148331980Y-90872713D01*
X148396796Y-91029194D01*
X148429840Y-91195313D01*
X148429840Y-91364687D01*
X148396796Y-91530806D01*
X148331980Y-91687287D01*
X148237881Y-91828116D01*
X148118116Y-91947881D01*
X147977287Y-92041980D01*
X147820806Y-92106796D01*
X147654687Y-92139840D01*
X147485313Y-92139840D01*
X147319194Y-92106796D01*
X147162713Y-92041980D01*
X147021884Y-91947881D01*
X146902119Y-91828116D01*
X146808020Y-91687287D01*
X146743204Y-91530806D01*
X146710160Y-91364687D01*
X146710160Y-91195313D01*
X146743204Y-91029194D01*
X146808020Y-90872713D01*
X146902119Y-90731884D01*
X147021884Y-90612119D01*
X147162713Y-90518020D01*
X147319194Y-90453204D01*
X147485313Y-90420160D01*
X147654687Y-90420160D01*
X147820806Y-90453204D01*
G37*
G36*
X170680806Y-90453204D02*
G01*
X170837287Y-90518020D01*
X170978116Y-90612119D01*
X171097881Y-90731884D01*
X171191980Y-90872713D01*
X171256796Y-91029194D01*
X171289840Y-91195313D01*
X171289840Y-91364687D01*
X171256796Y-91530806D01*
X171191980Y-91687287D01*
X171097881Y-91828116D01*
X170978116Y-91947881D01*
X170837287Y-92041980D01*
X170680806Y-92106796D01*
X170514687Y-92139840D01*
X170345313Y-92139840D01*
X170179194Y-92106796D01*
X170022713Y-92041980D01*
X169881884Y-91947881D01*
X169762119Y-91828116D01*
X169668020Y-91687287D01*
X169603204Y-91530806D01*
X169570160Y-91364687D01*
X169570160Y-91195313D01*
X169603204Y-91029194D01*
X169668020Y-90872713D01*
X169762119Y-90731884D01*
X169881884Y-90612119D01*
X170022713Y-90518020D01*
X170179194Y-90453204D01*
X170345313Y-90420160D01*
X170514687Y-90420160D01*
X170680806Y-90453204D01*
G37*
G36*
X147820806Y-87913204D02*
G01*
X147977287Y-87978020D01*
X148118116Y-88072119D01*
X148237881Y-88191884D01*
X148331980Y-88332713D01*
X148396796Y-88489194D01*
X148429840Y-88655313D01*
X148429840Y-88824687D01*
X148396796Y-88990806D01*
X148331980Y-89147287D01*
X148237881Y-89288116D01*
X148118116Y-89407881D01*
X147977287Y-89501980D01*
X147820806Y-89566796D01*
X147654687Y-89599840D01*
X147485313Y-89599840D01*
X147319194Y-89566796D01*
X147162713Y-89501980D01*
X147021884Y-89407881D01*
X146902119Y-89288116D01*
X146808020Y-89147287D01*
X146743204Y-88990806D01*
X146710160Y-88824687D01*
X146710160Y-88655313D01*
X146743204Y-88489194D01*
X146808020Y-88332713D01*
X146902119Y-88191884D01*
X147021884Y-88072119D01*
X147162713Y-87978020D01*
X147319194Y-87913204D01*
X147485313Y-87880160D01*
X147654687Y-87880160D01*
X147820806Y-87913204D01*
G37*
G36*
X170680806Y-87913204D02*
G01*
X170837287Y-87978020D01*
X170978116Y-88072119D01*
X171097881Y-88191884D01*
X171191980Y-88332713D01*
X171256796Y-88489194D01*
X171289840Y-88655313D01*
X171289840Y-88824687D01*
X171256796Y-88990806D01*
X171191980Y-89147287D01*
X171097881Y-89288116D01*
X170978116Y-89407881D01*
X170837287Y-89501980D01*
X170680806Y-89566796D01*
X170514687Y-89599840D01*
X170345313Y-89599840D01*
X170179194Y-89566796D01*
X170022713Y-89501980D01*
X169881884Y-89407881D01*
X169762119Y-89288116D01*
X169668020Y-89147287D01*
X169603204Y-88990806D01*
X169570160Y-88824687D01*
X169570160Y-88655313D01*
X169603204Y-88489194D01*
X169668020Y-88332713D01*
X169762119Y-88191884D01*
X169881884Y-88072119D01*
X170022713Y-87978020D01*
X170179194Y-87913204D01*
X170345313Y-87880160D01*
X170514687Y-87880160D01*
X170680806Y-87913204D01*
G37*
G36*
X147820806Y-85373204D02*
G01*
X147977287Y-85438020D01*
X148118116Y-85532119D01*
X148237881Y-85651884D01*
X148331980Y-85792713D01*
X148396796Y-85949194D01*
X148429840Y-86115313D01*
X148429840Y-86284687D01*
X148396796Y-86450806D01*
X148331980Y-86607287D01*
X148237881Y-86748116D01*
X148118116Y-86867881D01*
X147977287Y-86961980D01*
X147820806Y-87026796D01*
X147654687Y-87059840D01*
X147485313Y-87059840D01*
X147319194Y-87026796D01*
X147162713Y-86961980D01*
X147021884Y-86867881D01*
X146902119Y-86748116D01*
X146808020Y-86607287D01*
X146743204Y-86450806D01*
X146710160Y-86284687D01*
X146710160Y-86115313D01*
X146743204Y-85949194D01*
X146808020Y-85792713D01*
X146902119Y-85651884D01*
X147021884Y-85532119D01*
X147162713Y-85438020D01*
X147319194Y-85373204D01*
X147485313Y-85340160D01*
X147654687Y-85340160D01*
X147820806Y-85373204D01*
G37*
G36*
X170680806Y-85373204D02*
G01*
X170837287Y-85438020D01*
X170978116Y-85532119D01*
X171097881Y-85651884D01*
X171191980Y-85792713D01*
X171256796Y-85949194D01*
X171289840Y-86115313D01*
X171289840Y-86284687D01*
X171256796Y-86450806D01*
X171191980Y-86607287D01*
X171097881Y-86748116D01*
X170978116Y-86867881D01*
X170837287Y-86961980D01*
X170680806Y-87026796D01*
X170514687Y-87059840D01*
X170345313Y-87059840D01*
X170179194Y-87026796D01*
X170022713Y-86961980D01*
X169881884Y-86867881D01*
X169762119Y-86748116D01*
X169668020Y-86607287D01*
X169603204Y-86450806D01*
X169570160Y-86284687D01*
X169570160Y-86115313D01*
X169603204Y-85949194D01*
X169668020Y-85792713D01*
X169762119Y-85651884D01*
X169881884Y-85532119D01*
X170022713Y-85438020D01*
X170179194Y-85373204D01*
X170345313Y-85340160D01*
X170514687Y-85340160D01*
X170680806Y-85373204D01*
G37*
G36*
X147820806Y-82833204D02*
G01*
X147977287Y-82898020D01*
X148118116Y-82992119D01*
X148237881Y-83111884D01*
X148331980Y-83252713D01*
X148396796Y-83409194D01*
X148429840Y-83575313D01*
X148429840Y-83744687D01*
X148396796Y-83910806D01*
X148331980Y-84067287D01*
X148237881Y-84208116D01*
X148118116Y-84327881D01*
X147977287Y-84421980D01*
X147820806Y-84486796D01*
X147654687Y-84519840D01*
X147485313Y-84519840D01*
X147319194Y-84486796D01*
X147162713Y-84421980D01*
X147021884Y-84327881D01*
X146902119Y-84208116D01*
X146808020Y-84067287D01*
X146743204Y-83910806D01*
X146710160Y-83744687D01*
X146710160Y-83575313D01*
X146743204Y-83409194D01*
X146808020Y-83252713D01*
X146902119Y-83111884D01*
X147021884Y-82992119D01*
X147162713Y-82898020D01*
X147319194Y-82833204D01*
X147485313Y-82800160D01*
X147654687Y-82800160D01*
X147820806Y-82833204D01*
G37*
G36*
X170680806Y-82833204D02*
G01*
X170837287Y-82898020D01*
X170978116Y-82992119D01*
X171097881Y-83111884D01*
X171191980Y-83252713D01*
X171256796Y-83409194D01*
X171289840Y-83575313D01*
X171289840Y-83744687D01*
X171256796Y-83910806D01*
X171191980Y-84067287D01*
X171097881Y-84208116D01*
X170978116Y-84327881D01*
X170837287Y-84421980D01*
X170680806Y-84486796D01*
X170514687Y-84519840D01*
X170345313Y-84519840D01*
X170179194Y-84486796D01*
X170022713Y-84421980D01*
X169881884Y-84327881D01*
X169762119Y-84208116D01*
X169668020Y-84067287D01*
X169603204Y-83910806D01*
X169570160Y-83744687D01*
X169570160Y-83575313D01*
X169603204Y-83409194D01*
X169668020Y-83252713D01*
X169762119Y-83111884D01*
X169881884Y-82992119D01*
X170022713Y-82898020D01*
X170179194Y-82833204D01*
X170345313Y-82800160D01*
X170514687Y-82800160D01*
X170680806Y-82833204D01*
G37*
G36*
X187551911Y-82439703D02*
G01*
X187715723Y-82472287D01*
X187870030Y-82536203D01*
X188008903Y-82628995D01*
X188127005Y-82747097D01*
X188219797Y-82885970D01*
X188283713Y-83040277D01*
X188316297Y-83204089D01*
X188316297Y-83371111D01*
X188283713Y-83534923D01*
X188219797Y-83689230D01*
X188127005Y-83828103D01*
X188008903Y-83946205D01*
X187870030Y-84038997D01*
X187715723Y-84102913D01*
X187551911Y-84135497D01*
X187468400Y-84139600D01*
X187466921Y-84139600D01*
X185969879Y-84139600D01*
X185968400Y-84139600D01*
X185884889Y-84135497D01*
X185721077Y-84102913D01*
X185566770Y-84038997D01*
X185427897Y-83946205D01*
X185309795Y-83828103D01*
X185217003Y-83689230D01*
X185153087Y-83534923D01*
X185120503Y-83371111D01*
X185120503Y-83204089D01*
X185153087Y-83040277D01*
X185217003Y-82885970D01*
X185309795Y-82747097D01*
X185427897Y-82628995D01*
X185566770Y-82536203D01*
X185721077Y-82472287D01*
X185884889Y-82439703D01*
X185968400Y-82435600D01*
X187468400Y-82435600D01*
X187551911Y-82439703D01*
G37*
G36*
X147820806Y-80293204D02*
G01*
X147977287Y-80358020D01*
X148118116Y-80452119D01*
X148237881Y-80571884D01*
X148331980Y-80712713D01*
X148396796Y-80869194D01*
X148429840Y-81035313D01*
X148429840Y-81204687D01*
X148396796Y-81370806D01*
X148331980Y-81527287D01*
X148237881Y-81668116D01*
X148118116Y-81787881D01*
X147977287Y-81881980D01*
X147820806Y-81946796D01*
X147654687Y-81979840D01*
X147485313Y-81979840D01*
X147319194Y-81946796D01*
X147162713Y-81881980D01*
X147021884Y-81787881D01*
X146902119Y-81668116D01*
X146808020Y-81527287D01*
X146743204Y-81370806D01*
X146710160Y-81204687D01*
X146710160Y-81035313D01*
X146743204Y-80869194D01*
X146808020Y-80712713D01*
X146902119Y-80571884D01*
X147021884Y-80452119D01*
X147162713Y-80358020D01*
X147319194Y-80293204D01*
X147485313Y-80260160D01*
X147654687Y-80260160D01*
X147820806Y-80293204D01*
G37*
G36*
X170680806Y-80293204D02*
G01*
X170837287Y-80358020D01*
X170978116Y-80452119D01*
X171097881Y-80571884D01*
X171191980Y-80712713D01*
X171256796Y-80869194D01*
X171289840Y-81035313D01*
X171289840Y-81204687D01*
X171256796Y-81370806D01*
X171191980Y-81527287D01*
X171097881Y-81668116D01*
X170978116Y-81787881D01*
X170837287Y-81881980D01*
X170680806Y-81946796D01*
X170514687Y-81979840D01*
X170345313Y-81979840D01*
X170179194Y-81946796D01*
X170022713Y-81881980D01*
X169881884Y-81787881D01*
X169762119Y-81668116D01*
X169668020Y-81527287D01*
X169603204Y-81370806D01*
X169570160Y-81204687D01*
X169570160Y-81035313D01*
X169603204Y-80869194D01*
X169668020Y-80712713D01*
X169762119Y-80571884D01*
X169881884Y-80452119D01*
X170022713Y-80358020D01*
X170179194Y-80293204D01*
X170345313Y-80260160D01*
X170514687Y-80260160D01*
X170680806Y-80293204D01*
G37*
G36*
X187551911Y-79899703D02*
G01*
X187715723Y-79932287D01*
X187870030Y-79996203D01*
X188008903Y-80088995D01*
X188127005Y-80207097D01*
X188219797Y-80345970D01*
X188283713Y-80500277D01*
X188316297Y-80664089D01*
X188316297Y-80831111D01*
X188283713Y-80994923D01*
X188219797Y-81149230D01*
X188127005Y-81288103D01*
X188008903Y-81406205D01*
X187870030Y-81498997D01*
X187715723Y-81562913D01*
X187551911Y-81595497D01*
X187468400Y-81599600D01*
X187466921Y-81599600D01*
X185969879Y-81599600D01*
X185968400Y-81599600D01*
X185884889Y-81595497D01*
X185721077Y-81562913D01*
X185566770Y-81498997D01*
X185427897Y-81406205D01*
X185309795Y-81288103D01*
X185217003Y-81149230D01*
X185153087Y-80994923D01*
X185120503Y-80831111D01*
X185120503Y-80664089D01*
X185153087Y-80500277D01*
X185217003Y-80345970D01*
X185309795Y-80207097D01*
X185427897Y-80088995D01*
X185566770Y-79996203D01*
X185721077Y-79932287D01*
X185884889Y-79899703D01*
X185968400Y-79895600D01*
X187468400Y-79895600D01*
X187551911Y-79899703D01*
G37*
G36*
X147820806Y-77753204D02*
G01*
X147977287Y-77818020D01*
X148118116Y-77912119D01*
X148237881Y-78031884D01*
X148331980Y-78172713D01*
X148396796Y-78329194D01*
X148429840Y-78495313D01*
X148429840Y-78664687D01*
X148396796Y-78830806D01*
X148331980Y-78987287D01*
X148237881Y-79128116D01*
X148118116Y-79247881D01*
X147977287Y-79341980D01*
X147820806Y-79406796D01*
X147654687Y-79439840D01*
X147485313Y-79439840D01*
X147319194Y-79406796D01*
X147162713Y-79341980D01*
X147021884Y-79247881D01*
X146902119Y-79128116D01*
X146808020Y-78987287D01*
X146743204Y-78830806D01*
X146710160Y-78664687D01*
X146710160Y-78495313D01*
X146743204Y-78329194D01*
X146808020Y-78172713D01*
X146902119Y-78031884D01*
X147021884Y-77912119D01*
X147162713Y-77818020D01*
X147319194Y-77753204D01*
X147485313Y-77720160D01*
X147654687Y-77720160D01*
X147820806Y-77753204D01*
G37*
G36*
X170680806Y-77753204D02*
G01*
X170837287Y-77818020D01*
X170978116Y-77912119D01*
X171097881Y-78031884D01*
X171191980Y-78172713D01*
X171256796Y-78329194D01*
X171289840Y-78495313D01*
X171289840Y-78664687D01*
X171256796Y-78830806D01*
X171191980Y-78987287D01*
X171097881Y-79128116D01*
X170978116Y-79247881D01*
X170837287Y-79341980D01*
X170680806Y-79406796D01*
X170514687Y-79439840D01*
X170345313Y-79439840D01*
X170179194Y-79406796D01*
X170022713Y-79341980D01*
X169881884Y-79247881D01*
X169762119Y-79128116D01*
X169668020Y-78987287D01*
X169603204Y-78830806D01*
X169570160Y-78664687D01*
X169570160Y-78495313D01*
X169603204Y-78329194D01*
X169668020Y-78172713D01*
X169762119Y-78031884D01*
X169881884Y-77912119D01*
X170022713Y-77818020D01*
X170179194Y-77753204D01*
X170345313Y-77720160D01*
X170514687Y-77720160D01*
X170680806Y-77753204D01*
G37*
G36*
X187551911Y-77359703D02*
G01*
X187715723Y-77392287D01*
X187870030Y-77456203D01*
X188008903Y-77548995D01*
X188127005Y-77667097D01*
X188219797Y-77805970D01*
X188283713Y-77960277D01*
X188316297Y-78124089D01*
X188316297Y-78291111D01*
X188283713Y-78454923D01*
X188219797Y-78609230D01*
X188127005Y-78748103D01*
X188008903Y-78866205D01*
X187870030Y-78958997D01*
X187715723Y-79022913D01*
X187551911Y-79055497D01*
X187468400Y-79059600D01*
X187466921Y-79059600D01*
X185969879Y-79059600D01*
X185968400Y-79059600D01*
X185884889Y-79055497D01*
X185721077Y-79022913D01*
X185566770Y-78958997D01*
X185427897Y-78866205D01*
X185309795Y-78748103D01*
X185217003Y-78609230D01*
X185153087Y-78454923D01*
X185120503Y-78291111D01*
X185120503Y-78124089D01*
X185153087Y-77960277D01*
X185217003Y-77805970D01*
X185309795Y-77667097D01*
X185427897Y-77548995D01*
X185566770Y-77456203D01*
X185721077Y-77392287D01*
X185884889Y-77359703D01*
X185968400Y-77355600D01*
X187468400Y-77355600D01*
X187551911Y-77359703D01*
G37*
G36*
X147820806Y-75213204D02*
G01*
X147977287Y-75278020D01*
X148118116Y-75372119D01*
X148237881Y-75491884D01*
X148331980Y-75632713D01*
X148396796Y-75789194D01*
X148429840Y-75955313D01*
X148429840Y-76124687D01*
X148396796Y-76290806D01*
X148331980Y-76447287D01*
X148237881Y-76588116D01*
X148118116Y-76707881D01*
X147977287Y-76801980D01*
X147820806Y-76866796D01*
X147654687Y-76899840D01*
X147485313Y-76899840D01*
X147319194Y-76866796D01*
X147162713Y-76801980D01*
X147021884Y-76707881D01*
X146902119Y-76588116D01*
X146808020Y-76447287D01*
X146743204Y-76290806D01*
X146710160Y-76124687D01*
X146710160Y-75955313D01*
X146743204Y-75789194D01*
X146808020Y-75632713D01*
X146902119Y-75491884D01*
X147021884Y-75372119D01*
X147162713Y-75278020D01*
X147319194Y-75213204D01*
X147485313Y-75180160D01*
X147654687Y-75180160D01*
X147820806Y-75213204D01*
G37*
G36*
X170680806Y-75213204D02*
G01*
X170837287Y-75278020D01*
X170978116Y-75372119D01*
X171097881Y-75491884D01*
X171191980Y-75632713D01*
X171256796Y-75789194D01*
X171289840Y-75955313D01*
X171289840Y-76124687D01*
X171256796Y-76290806D01*
X171191980Y-76447287D01*
X171097881Y-76588116D01*
X170978116Y-76707881D01*
X170837287Y-76801980D01*
X170680806Y-76866796D01*
X170514687Y-76899840D01*
X170345313Y-76899840D01*
X170179194Y-76866796D01*
X170022713Y-76801980D01*
X169881884Y-76707881D01*
X169762119Y-76588116D01*
X169668020Y-76447287D01*
X169603204Y-76290806D01*
X169570160Y-76124687D01*
X169570160Y-75955313D01*
X169603204Y-75789194D01*
X169668020Y-75632713D01*
X169762119Y-75491884D01*
X169881884Y-75372119D01*
X170022713Y-75278020D01*
X170179194Y-75213204D01*
X170345313Y-75180160D01*
X170514687Y-75180160D01*
X170680806Y-75213204D01*
G37*
G36*
X187551911Y-74819703D02*
G01*
X187715723Y-74852287D01*
X187870030Y-74916203D01*
X188008903Y-75008995D01*
X188127005Y-75127097D01*
X188219797Y-75265970D01*
X188283713Y-75420277D01*
X188316297Y-75584089D01*
X188316297Y-75751111D01*
X188283713Y-75914923D01*
X188219797Y-76069230D01*
X188127005Y-76208103D01*
X188008903Y-76326205D01*
X187870030Y-76418997D01*
X187715723Y-76482913D01*
X187551911Y-76515497D01*
X187468400Y-76519600D01*
X187466921Y-76519600D01*
X185969879Y-76519600D01*
X185968400Y-76519600D01*
X185884889Y-76515497D01*
X185721077Y-76482913D01*
X185566770Y-76418997D01*
X185427897Y-76326205D01*
X185309795Y-76208103D01*
X185217003Y-76069230D01*
X185153087Y-75914923D01*
X185120503Y-75751111D01*
X185120503Y-75584089D01*
X185153087Y-75420277D01*
X185217003Y-75265970D01*
X185309795Y-75127097D01*
X185427897Y-75008995D01*
X185566770Y-74916203D01*
X185721077Y-74852287D01*
X185884889Y-74819703D01*
X185968400Y-74815600D01*
X187468400Y-74815600D01*
X187551911Y-74819703D01*
G37*
G36*
X147820806Y-72673204D02*
G01*
X147977287Y-72738020D01*
X148118116Y-72832119D01*
X148237881Y-72951884D01*
X148331980Y-73092713D01*
X148396796Y-73249194D01*
X148429840Y-73415313D01*
X148429840Y-73584687D01*
X148396796Y-73750806D01*
X148331980Y-73907287D01*
X148237881Y-74048116D01*
X148118116Y-74167881D01*
X147977287Y-74261980D01*
X147820806Y-74326796D01*
X147654687Y-74359840D01*
X147485313Y-74359840D01*
X147319194Y-74326796D01*
X147162713Y-74261980D01*
X147021884Y-74167881D01*
X146902119Y-74048116D01*
X146808020Y-73907287D01*
X146743204Y-73750806D01*
X146710160Y-73584687D01*
X146710160Y-73415313D01*
X146743204Y-73249194D01*
X146808020Y-73092713D01*
X146902119Y-72951884D01*
X147021884Y-72832119D01*
X147162713Y-72738020D01*
X147319194Y-72673204D01*
X147485313Y-72640160D01*
X147654687Y-72640160D01*
X147820806Y-72673204D01*
G37*
G36*
X170680806Y-72673204D02*
G01*
X170837287Y-72738020D01*
X170978116Y-72832119D01*
X171097881Y-72951884D01*
X171191980Y-73092713D01*
X171256796Y-73249194D01*
X171289840Y-73415313D01*
X171289840Y-73584687D01*
X171256796Y-73750806D01*
X171191980Y-73907287D01*
X171097881Y-74048116D01*
X170978116Y-74167881D01*
X170837287Y-74261980D01*
X170680806Y-74326796D01*
X170514687Y-74359840D01*
X170345313Y-74359840D01*
X170179194Y-74326796D01*
X170022713Y-74261980D01*
X169881884Y-74167881D01*
X169762119Y-74048116D01*
X169668020Y-73907287D01*
X169603204Y-73750806D01*
X169570160Y-73584687D01*
X169570160Y-73415313D01*
X169603204Y-73249194D01*
X169668020Y-73092713D01*
X169762119Y-72951884D01*
X169881884Y-72832119D01*
X170022713Y-72738020D01*
X170179194Y-72673204D01*
X170345313Y-72640160D01*
X170514687Y-72640160D01*
X170680806Y-72673204D01*
G37*
G36*
X187551911Y-72279703D02*
G01*
X187715723Y-72312287D01*
X187870030Y-72376203D01*
X188008903Y-72468995D01*
X188127005Y-72587097D01*
X188219797Y-72725970D01*
X188283713Y-72880277D01*
X188316297Y-73044089D01*
X188316297Y-73211111D01*
X188283713Y-73374923D01*
X188219797Y-73529230D01*
X188127005Y-73668103D01*
X188008903Y-73786205D01*
X187870030Y-73878997D01*
X187715723Y-73942913D01*
X187551911Y-73975497D01*
X187468400Y-73979600D01*
X187466921Y-73979600D01*
X185969879Y-73979600D01*
X185968400Y-73979600D01*
X185884889Y-73975497D01*
X185721077Y-73942913D01*
X185566770Y-73878997D01*
X185427897Y-73786205D01*
X185309795Y-73668103D01*
X185217003Y-73529230D01*
X185153087Y-73374923D01*
X185120503Y-73211111D01*
X185120503Y-73044089D01*
X185153087Y-72880277D01*
X185217003Y-72725970D01*
X185309795Y-72587097D01*
X185427897Y-72468995D01*
X185566770Y-72376203D01*
X185721077Y-72312287D01*
X185884889Y-72279703D01*
X185968400Y-72275600D01*
X187468400Y-72275600D01*
X187551911Y-72279703D01*
G37*
G36*
X147820806Y-70133204D02*
G01*
X147977287Y-70198020D01*
X148118116Y-70292119D01*
X148237881Y-70411884D01*
X148331980Y-70552713D01*
X148396796Y-70709194D01*
X148429840Y-70875313D01*
X148429840Y-71044687D01*
X148396796Y-71210806D01*
X148331980Y-71367287D01*
X148237881Y-71508116D01*
X148118116Y-71627881D01*
X147977287Y-71721980D01*
X147820806Y-71786796D01*
X147654687Y-71819840D01*
X147485313Y-71819840D01*
X147319194Y-71786796D01*
X147162713Y-71721980D01*
X147021884Y-71627881D01*
X146902119Y-71508116D01*
X146808020Y-71367287D01*
X146743204Y-71210806D01*
X146710160Y-71044687D01*
X146710160Y-70875313D01*
X146743204Y-70709194D01*
X146808020Y-70552713D01*
X146902119Y-70411884D01*
X147021884Y-70292119D01*
X147162713Y-70198020D01*
X147319194Y-70133204D01*
X147485313Y-70100160D01*
X147654687Y-70100160D01*
X147820806Y-70133204D01*
G37*
G36*
X170680806Y-70133204D02*
G01*
X170837287Y-70198020D01*
X170978116Y-70292119D01*
X171097881Y-70411884D01*
X171191980Y-70552713D01*
X171256796Y-70709194D01*
X171289840Y-70875313D01*
X171289840Y-71044687D01*
X171256796Y-71210806D01*
X171191980Y-71367287D01*
X171097881Y-71508116D01*
X170978116Y-71627881D01*
X170837287Y-71721980D01*
X170680806Y-71786796D01*
X170514687Y-71819840D01*
X170345313Y-71819840D01*
X170179194Y-71786796D01*
X170022713Y-71721980D01*
X169881884Y-71627881D01*
X169762119Y-71508116D01*
X169668020Y-71367287D01*
X169603204Y-71210806D01*
X169570160Y-71044687D01*
X169570160Y-70875313D01*
X169603204Y-70709194D01*
X169668020Y-70552713D01*
X169762119Y-70411884D01*
X169881884Y-70292119D01*
X170022713Y-70198020D01*
X170179194Y-70133204D01*
X170345313Y-70100160D01*
X170514687Y-70100160D01*
X170680806Y-70133204D01*
G37*
G36*
X187551911Y-69739703D02*
G01*
X187715723Y-69772287D01*
X187870030Y-69836203D01*
X188008903Y-69928995D01*
X188127005Y-70047097D01*
X188219797Y-70185970D01*
X188283713Y-70340277D01*
X188316297Y-70504089D01*
X188316297Y-70671111D01*
X188283713Y-70834923D01*
X188219797Y-70989230D01*
X188127005Y-71128103D01*
X188008903Y-71246205D01*
X187870030Y-71338997D01*
X187715723Y-71402913D01*
X187551911Y-71435497D01*
X187468400Y-71439600D01*
X187466921Y-71439600D01*
X185969879Y-71439600D01*
X185968400Y-71439600D01*
X185884889Y-71435497D01*
X185721077Y-71402913D01*
X185566770Y-71338997D01*
X185427897Y-71246205D01*
X185309795Y-71128103D01*
X185217003Y-70989230D01*
X185153087Y-70834923D01*
X185120503Y-70671111D01*
X185120503Y-70504089D01*
X185153087Y-70340277D01*
X185217003Y-70185970D01*
X185309795Y-70047097D01*
X185427897Y-69928995D01*
X185566770Y-69836203D01*
X185721077Y-69772287D01*
X185884889Y-69739703D01*
X185968400Y-69735600D01*
X187468400Y-69735600D01*
X187551911Y-69739703D01*
G37*
G36*
X147820806Y-67593204D02*
G01*
X147977287Y-67658020D01*
X148118116Y-67752119D01*
X148237881Y-67871884D01*
X148331980Y-68012713D01*
X148396796Y-68169194D01*
X148429840Y-68335313D01*
X148429840Y-68504687D01*
X148396796Y-68670806D01*
X148331980Y-68827287D01*
X148237881Y-68968116D01*
X148118116Y-69087881D01*
X147977287Y-69181980D01*
X147820806Y-69246796D01*
X147654687Y-69279840D01*
X147485313Y-69279840D01*
X147319194Y-69246796D01*
X147162713Y-69181980D01*
X147021884Y-69087881D01*
X146902119Y-68968116D01*
X146808020Y-68827287D01*
X146743204Y-68670806D01*
X146710160Y-68504687D01*
X146710160Y-68335313D01*
X146743204Y-68169194D01*
X146808020Y-68012713D01*
X146902119Y-67871884D01*
X147021884Y-67752119D01*
X147162713Y-67658020D01*
X147319194Y-67593204D01*
X147485313Y-67560160D01*
X147654687Y-67560160D01*
X147820806Y-67593204D01*
G37*
G36*
X170680806Y-67593204D02*
G01*
X170837287Y-67658020D01*
X170978116Y-67752119D01*
X171097881Y-67871884D01*
X171191980Y-68012713D01*
X171256796Y-68169194D01*
X171289840Y-68335313D01*
X171289840Y-68504687D01*
X171256796Y-68670806D01*
X171191980Y-68827287D01*
X171097881Y-68968116D01*
X170978116Y-69087881D01*
X170837287Y-69181980D01*
X170680806Y-69246796D01*
X170514687Y-69279840D01*
X170345313Y-69279840D01*
X170179194Y-69246796D01*
X170022713Y-69181980D01*
X169881884Y-69087881D01*
X169762119Y-68968116D01*
X169668020Y-68827287D01*
X169603204Y-68670806D01*
X169570160Y-68504687D01*
X169570160Y-68335313D01*
X169603204Y-68169194D01*
X169668020Y-68012713D01*
X169762119Y-67871884D01*
X169881884Y-67752119D01*
X170022713Y-67658020D01*
X170179194Y-67593204D01*
X170345313Y-67560160D01*
X170514687Y-67560160D01*
X170680806Y-67593204D01*
G37*
G36*
X187551911Y-67199703D02*
G01*
X187715723Y-67232287D01*
X187870030Y-67296203D01*
X188008903Y-67388995D01*
X188127005Y-67507097D01*
X188219797Y-67645970D01*
X188283713Y-67800277D01*
X188316297Y-67964089D01*
X188316297Y-68131111D01*
X188283713Y-68294923D01*
X188219797Y-68449230D01*
X188127005Y-68588103D01*
X188008903Y-68706205D01*
X187870030Y-68798997D01*
X187715723Y-68862913D01*
X187551911Y-68895497D01*
X187468400Y-68899600D01*
X187466921Y-68899600D01*
X185969879Y-68899600D01*
X185968400Y-68899600D01*
X185884889Y-68895497D01*
X185721077Y-68862913D01*
X185566770Y-68798997D01*
X185427897Y-68706205D01*
X185309795Y-68588103D01*
X185217003Y-68449230D01*
X185153087Y-68294923D01*
X185120503Y-68131111D01*
X185120503Y-67964089D01*
X185153087Y-67800277D01*
X185217003Y-67645970D01*
X185309795Y-67507097D01*
X185427897Y-67388995D01*
X185566770Y-67296203D01*
X185721077Y-67232287D01*
X185884889Y-67199703D01*
X185968400Y-67195600D01*
X187468400Y-67195600D01*
X187551911Y-67199703D01*
G37*
G36*
X147820806Y-65053204D02*
G01*
X147977287Y-65118020D01*
X148118116Y-65212119D01*
X148237881Y-65331884D01*
X148331980Y-65472713D01*
X148396796Y-65629194D01*
X148429840Y-65795313D01*
X148429840Y-65964687D01*
X148396796Y-66130806D01*
X148331980Y-66287287D01*
X148237881Y-66428116D01*
X148118116Y-66547881D01*
X147977287Y-66641980D01*
X147820806Y-66706796D01*
X147654687Y-66739840D01*
X147485313Y-66739840D01*
X147319194Y-66706796D01*
X147162713Y-66641980D01*
X147021884Y-66547881D01*
X146902119Y-66428116D01*
X146808020Y-66287287D01*
X146743204Y-66130806D01*
X146710160Y-65964687D01*
X146710160Y-65795313D01*
X146743204Y-65629194D01*
X146808020Y-65472713D01*
X146902119Y-65331884D01*
X147021884Y-65212119D01*
X147162713Y-65118020D01*
X147319194Y-65053204D01*
X147485313Y-65020160D01*
X147654687Y-65020160D01*
X147820806Y-65053204D01*
G37*
G36*
X170680806Y-65053204D02*
G01*
X170837287Y-65118020D01*
X170978116Y-65212119D01*
X171097881Y-65331884D01*
X171191980Y-65472713D01*
X171256796Y-65629194D01*
X171289840Y-65795313D01*
X171289840Y-65964687D01*
X171256796Y-66130806D01*
X171191980Y-66287287D01*
X171097881Y-66428116D01*
X170978116Y-66547881D01*
X170837287Y-66641980D01*
X170680806Y-66706796D01*
X170514687Y-66739840D01*
X170345313Y-66739840D01*
X170179194Y-66706796D01*
X170022713Y-66641980D01*
X169881884Y-66547881D01*
X169762119Y-66428116D01*
X169668020Y-66287287D01*
X169603204Y-66130806D01*
X169570160Y-65964687D01*
X169570160Y-65795313D01*
X169603204Y-65629194D01*
X169668020Y-65472713D01*
X169762119Y-65331884D01*
X169881884Y-65212119D01*
X170022713Y-65118020D01*
X170179194Y-65053204D01*
X170345313Y-65020160D01*
X170514687Y-65020160D01*
X170680806Y-65053204D01*
G37*
G36*
X187551911Y-64659703D02*
G01*
X187715723Y-64692287D01*
X187870030Y-64756203D01*
X188008903Y-64848995D01*
X188127005Y-64967097D01*
X188219797Y-65105970D01*
X188283713Y-65260277D01*
X188316297Y-65424089D01*
X188316297Y-65591111D01*
X188283713Y-65754923D01*
X188219797Y-65909230D01*
X188127005Y-66048103D01*
X188008903Y-66166205D01*
X187870030Y-66258997D01*
X187715723Y-66322913D01*
X187551911Y-66355497D01*
X187468400Y-66359600D01*
X187466921Y-66359600D01*
X185969879Y-66359600D01*
X185968400Y-66359600D01*
X185884889Y-66355497D01*
X185721077Y-66322913D01*
X185566770Y-66258997D01*
X185427897Y-66166205D01*
X185309795Y-66048103D01*
X185217003Y-65909230D01*
X185153087Y-65754923D01*
X185120503Y-65591111D01*
X185120503Y-65424089D01*
X185153087Y-65260277D01*
X185217003Y-65105970D01*
X185309795Y-64967097D01*
X185427897Y-64848995D01*
X185566770Y-64756203D01*
X185721077Y-64692287D01*
X185884889Y-64659703D01*
X185968400Y-64655600D01*
X187468400Y-64655600D01*
X187551911Y-64659703D01*
G37*
G36*
X147820806Y-62513204D02*
G01*
X147977287Y-62578020D01*
X148118116Y-62672119D01*
X148237881Y-62791884D01*
X148331980Y-62932713D01*
X148396796Y-63089194D01*
X148429840Y-63255313D01*
X148429840Y-63424687D01*
X148396796Y-63590806D01*
X148331980Y-63747287D01*
X148237881Y-63888116D01*
X148118116Y-64007881D01*
X147977287Y-64101980D01*
X147820806Y-64166796D01*
X147654687Y-64199840D01*
X147485313Y-64199840D01*
X147319194Y-64166796D01*
X147162713Y-64101980D01*
X147021884Y-64007881D01*
X146902119Y-63888116D01*
X146808020Y-63747287D01*
X146743204Y-63590806D01*
X146710160Y-63424687D01*
X146710160Y-63255313D01*
X146743204Y-63089194D01*
X146808020Y-62932713D01*
X146902119Y-62791884D01*
X147021884Y-62672119D01*
X147162713Y-62578020D01*
X147319194Y-62513204D01*
X147485313Y-62480160D01*
X147654687Y-62480160D01*
X147820806Y-62513204D01*
G37*
G36*
X170680806Y-62513204D02*
G01*
X170837287Y-62578020D01*
X170978116Y-62672119D01*
X171097881Y-62791884D01*
X171191980Y-62932713D01*
X171256796Y-63089194D01*
X171289840Y-63255313D01*
X171289840Y-63424687D01*
X171256796Y-63590806D01*
X171191980Y-63747287D01*
X171097881Y-63888116D01*
X170978116Y-64007881D01*
X170837287Y-64101980D01*
X170680806Y-64166796D01*
X170514687Y-64199840D01*
X170345313Y-64199840D01*
X170179194Y-64166796D01*
X170022713Y-64101980D01*
X169881884Y-64007881D01*
X169762119Y-63888116D01*
X169668020Y-63747287D01*
X169603204Y-63590806D01*
X169570160Y-63424687D01*
X169570160Y-63255313D01*
X169603204Y-63089194D01*
X169668020Y-62932713D01*
X169762119Y-62791884D01*
X169881884Y-62672119D01*
X170022713Y-62578020D01*
X170179194Y-62513204D01*
X170345313Y-62480160D01*
X170514687Y-62480160D01*
X170680806Y-62513204D01*
G37*
G36*
X147820806Y-59973204D02*
G01*
X147977287Y-60038020D01*
X148118116Y-60132119D01*
X148237881Y-60251884D01*
X148331980Y-60392713D01*
X148396796Y-60549194D01*
X148429840Y-60715313D01*
X148429840Y-60884687D01*
X148396796Y-61050806D01*
X148331980Y-61207287D01*
X148237881Y-61348116D01*
X148118116Y-61467881D01*
X147977287Y-61561980D01*
X147820806Y-61626796D01*
X147654687Y-61659840D01*
X147485313Y-61659840D01*
X147319194Y-61626796D01*
X147162713Y-61561980D01*
X147021884Y-61467881D01*
X146902119Y-61348116D01*
X146808020Y-61207287D01*
X146743204Y-61050806D01*
X146710160Y-60884687D01*
X146710160Y-60715313D01*
X146743204Y-60549194D01*
X146808020Y-60392713D01*
X146902119Y-60251884D01*
X147021884Y-60132119D01*
X147162713Y-60038020D01*
X147319194Y-59973204D01*
X147485313Y-59940160D01*
X147654687Y-59940160D01*
X147820806Y-59973204D01*
G37*
G36*
X170680806Y-59973204D02*
G01*
X170837287Y-60038020D01*
X170978116Y-60132119D01*
X171097881Y-60251884D01*
X171191980Y-60392713D01*
X171256796Y-60549194D01*
X171289840Y-60715313D01*
X171289840Y-60884687D01*
X171256796Y-61050806D01*
X171191980Y-61207287D01*
X171097881Y-61348116D01*
X170978116Y-61467881D01*
X170837287Y-61561980D01*
X170680806Y-61626796D01*
X170514687Y-61659840D01*
X170345313Y-61659840D01*
X170179194Y-61626796D01*
X170022713Y-61561980D01*
X169881884Y-61467881D01*
X169762119Y-61348116D01*
X169668020Y-61207287D01*
X169603204Y-61050806D01*
X169570160Y-60884687D01*
X169570160Y-60715313D01*
X169603204Y-60549194D01*
X169668020Y-60392713D01*
X169762119Y-60251884D01*
X169881884Y-60132119D01*
X170022713Y-60038020D01*
X170179194Y-59973204D01*
X170345313Y-59940160D01*
X170514687Y-59940160D01*
X170680806Y-59973204D01*
G37*
G36*
X147820806Y-57433204D02*
G01*
X147977287Y-57498020D01*
X148118116Y-57592119D01*
X148237881Y-57711884D01*
X148331980Y-57852713D01*
X148396796Y-58009194D01*
X148429840Y-58175313D01*
X148429840Y-58344687D01*
X148396796Y-58510806D01*
X148331980Y-58667287D01*
X148237881Y-58808116D01*
X148118116Y-58927881D01*
X147977287Y-59021980D01*
X147820806Y-59086796D01*
X147654687Y-59119840D01*
X147485313Y-59119840D01*
X147319194Y-59086796D01*
X147162713Y-59021980D01*
X147021884Y-58927881D01*
X146902119Y-58808116D01*
X146808020Y-58667287D01*
X146743204Y-58510806D01*
X146710160Y-58344687D01*
X146710160Y-58175313D01*
X146743204Y-58009194D01*
X146808020Y-57852713D01*
X146902119Y-57711884D01*
X147021884Y-57592119D01*
X147162713Y-57498020D01*
X147319194Y-57433204D01*
X147485313Y-57400160D01*
X147654687Y-57400160D01*
X147820806Y-57433204D01*
G37*
G36*
X170680806Y-57433204D02*
G01*
X170837287Y-57498020D01*
X170978116Y-57592119D01*
X171097881Y-57711884D01*
X171191980Y-57852713D01*
X171256796Y-58009194D01*
X171289840Y-58175313D01*
X171289840Y-58344687D01*
X171256796Y-58510806D01*
X171191980Y-58667287D01*
X171097881Y-58808116D01*
X170978116Y-58927881D01*
X170837287Y-59021980D01*
X170680806Y-59086796D01*
X170514687Y-59119840D01*
X170345313Y-59119840D01*
X170179194Y-59086796D01*
X170022713Y-59021980D01*
X169881884Y-58927881D01*
X169762119Y-58808116D01*
X169668020Y-58667287D01*
X169603204Y-58510806D01*
X169570160Y-58344687D01*
X169570160Y-58175313D01*
X169603204Y-58009194D01*
X169668020Y-57852713D01*
X169762119Y-57711884D01*
X169881884Y-57592119D01*
X170022713Y-57498020D01*
X170179194Y-57433204D01*
X170345313Y-57400160D01*
X170514687Y-57400160D01*
X170680806Y-57433204D01*
G37*
G36*
X123232173Y-55555090D02*
G01*
X123237144Y-55557285D01*
X123239247Y-55557562D01*
X123265554Y-55569829D01*
X123328238Y-55597507D01*
X123402493Y-55671762D01*
X123430174Y-55734453D01*
X123442437Y-55760751D01*
X123442713Y-55762852D01*
X123444910Y-55767827D01*
X123452500Y-55833250D01*
X123452500Y-57166750D01*
X123444910Y-57232173D01*
X123442713Y-57237147D01*
X123442437Y-57239247D01*
X123430188Y-57265513D01*
X123402493Y-57328238D01*
X123328238Y-57402493D01*
X123265527Y-57430182D01*
X123239248Y-57442437D01*
X123237147Y-57442713D01*
X123232173Y-57444910D01*
X123166750Y-57452500D01*
X121833250Y-57452500D01*
X121767827Y-57444910D01*
X121762852Y-57442713D01*
X121760752Y-57442437D01*
X121734467Y-57430180D01*
X121671762Y-57402493D01*
X121597507Y-57328238D01*
X121569835Y-57265567D01*
X121557562Y-57239248D01*
X121557285Y-57237144D01*
X121555090Y-57232173D01*
X121547500Y-57166750D01*
X121547500Y-55833250D01*
X121555090Y-55767827D01*
X121557285Y-55762855D01*
X121557562Y-55760752D01*
X121569837Y-55734426D01*
X121597507Y-55671762D01*
X121671762Y-55597507D01*
X121734413Y-55569843D01*
X121760751Y-55557562D01*
X121762856Y-55557284D01*
X121767827Y-55555090D01*
X121833250Y-55547500D01*
X123166750Y-55547500D01*
X123232173Y-55555090D01*
G37*
G36*
X141232173Y-55555090D02*
G01*
X141237144Y-55557285D01*
X141239247Y-55557562D01*
X141265554Y-55569829D01*
X141328238Y-55597507D01*
X141402493Y-55671762D01*
X141430174Y-55734453D01*
X141442437Y-55760751D01*
X141442713Y-55762852D01*
X141444910Y-55767827D01*
X141452500Y-55833250D01*
X141452500Y-57166750D01*
X141444910Y-57232173D01*
X141442713Y-57237147D01*
X141442437Y-57239247D01*
X141430188Y-57265513D01*
X141402493Y-57328238D01*
X141328238Y-57402493D01*
X141265527Y-57430182D01*
X141239248Y-57442437D01*
X141237147Y-57442713D01*
X141232173Y-57444910D01*
X141166750Y-57452500D01*
X139833250Y-57452500D01*
X139767827Y-57444910D01*
X139762852Y-57442713D01*
X139760752Y-57442437D01*
X139734467Y-57430180D01*
X139671762Y-57402493D01*
X139597507Y-57328238D01*
X139569835Y-57265567D01*
X139557562Y-57239248D01*
X139557285Y-57237144D01*
X139555090Y-57232173D01*
X139547500Y-57166750D01*
X139547500Y-55833250D01*
X139555090Y-55767827D01*
X139557285Y-55762855D01*
X139557562Y-55760752D01*
X139569837Y-55734426D01*
X139597507Y-55671762D01*
X139671762Y-55597507D01*
X139734413Y-55569843D01*
X139760751Y-55557562D01*
X139762856Y-55557284D01*
X139767827Y-55555090D01*
X139833250Y-55547500D01*
X141166750Y-55547500D01*
X141232173Y-55555090D01*
G37*
G36*
X147820806Y-54893204D02*
G01*
X147977287Y-54958020D01*
X148118116Y-55052119D01*
X148237881Y-55171884D01*
X148331980Y-55312713D01*
X148396796Y-55469194D01*
X148429840Y-55635313D01*
X148429840Y-55804687D01*
X148396796Y-55970806D01*
X148331980Y-56127287D01*
X148237881Y-56268116D01*
X148118116Y-56387881D01*
X147977287Y-56481980D01*
X147820806Y-56546796D01*
X147654687Y-56579840D01*
X147485313Y-56579840D01*
X147319194Y-56546796D01*
X147162713Y-56481980D01*
X147021884Y-56387881D01*
X146902119Y-56268116D01*
X146808020Y-56127287D01*
X146743204Y-55970806D01*
X146710160Y-55804687D01*
X146710160Y-55635313D01*
X146743204Y-55469194D01*
X146808020Y-55312713D01*
X146902119Y-55171884D01*
X147021884Y-55052119D01*
X147162713Y-54958020D01*
X147319194Y-54893204D01*
X147485313Y-54860160D01*
X147654687Y-54860160D01*
X147820806Y-54893204D01*
G37*
G36*
X170680806Y-54893204D02*
G01*
X170837287Y-54958020D01*
X170978116Y-55052119D01*
X171097881Y-55171884D01*
X171191980Y-55312713D01*
X171256796Y-55469194D01*
X171289840Y-55635313D01*
X171289840Y-55804687D01*
X171256796Y-55970806D01*
X171191980Y-56127287D01*
X171097881Y-56268116D01*
X170978116Y-56387881D01*
X170837287Y-56481980D01*
X170680806Y-56546796D01*
X170514687Y-56579840D01*
X170345313Y-56579840D01*
X170179194Y-56546796D01*
X170022713Y-56481980D01*
X169881884Y-56387881D01*
X169762119Y-56268116D01*
X169668020Y-56127287D01*
X169603204Y-55970806D01*
X169570160Y-55804687D01*
X169570160Y-55635313D01*
X169603204Y-55469194D01*
X169668020Y-55312713D01*
X169762119Y-55171884D01*
X169881884Y-55052119D01*
X170022713Y-54958020D01*
X170179194Y-54893204D01*
X170345313Y-54860160D01*
X170514687Y-54860160D01*
X170680806Y-54893204D01*
G37*
G36*
X147820806Y-52353204D02*
G01*
X147977287Y-52418020D01*
X148118116Y-52512119D01*
X148237881Y-52631884D01*
X148331980Y-52772713D01*
X148396796Y-52929194D01*
X148429840Y-53095313D01*
X148429840Y-53264687D01*
X148396796Y-53430806D01*
X148331980Y-53587287D01*
X148237881Y-53728116D01*
X148118116Y-53847881D01*
X147977287Y-53941980D01*
X147820806Y-54006796D01*
X147654687Y-54039840D01*
X147485313Y-54039840D01*
X147319194Y-54006796D01*
X147162713Y-53941980D01*
X147021884Y-53847881D01*
X146902119Y-53728116D01*
X146808020Y-53587287D01*
X146743204Y-53430806D01*
X146710160Y-53264687D01*
X146710160Y-53095313D01*
X146743204Y-52929194D01*
X146808020Y-52772713D01*
X146902119Y-52631884D01*
X147021884Y-52512119D01*
X147162713Y-52418020D01*
X147319194Y-52353204D01*
X147485313Y-52320160D01*
X147654687Y-52320160D01*
X147820806Y-52353204D01*
G37*
G36*
X170680806Y-52353204D02*
G01*
X170837287Y-52418020D01*
X170978116Y-52512119D01*
X171097881Y-52631884D01*
X171191980Y-52772713D01*
X171256796Y-52929194D01*
X171289840Y-53095313D01*
X171289840Y-53264687D01*
X171256796Y-53430806D01*
X171191980Y-53587287D01*
X171097881Y-53728116D01*
X170978116Y-53847881D01*
X170837287Y-53941980D01*
X170680806Y-54006796D01*
X170514687Y-54039840D01*
X170345313Y-54039840D01*
X170179194Y-54006796D01*
X170022713Y-53941980D01*
X169881884Y-53847881D01*
X169762119Y-53728116D01*
X169668020Y-53587287D01*
X169603204Y-53430806D01*
X169570160Y-53264687D01*
X169570160Y-53095313D01*
X169603204Y-52929194D01*
X169668020Y-52772713D01*
X169762119Y-52631884D01*
X169881884Y-52512119D01*
X170022713Y-52418020D01*
X170179194Y-52353204D01*
X170345313Y-52320160D01*
X170514687Y-52320160D01*
X170680806Y-52353204D01*
G37*
G36*
X103159034Y-50705764D02*
G01*
X103192125Y-50727875D01*
X103214236Y-50760966D01*
X103222000Y-50800000D01*
X103222000Y-53200000D01*
X103214236Y-53239034D01*
X103192125Y-53272125D01*
X103159034Y-53294236D01*
X103120000Y-53302000D01*
X100720000Y-53302000D01*
X100680966Y-53294236D01*
X100647875Y-53272125D01*
X100625764Y-53239034D01*
X100618000Y-53200000D01*
X100618000Y-50800000D01*
X100625764Y-50760966D01*
X100647875Y-50727875D01*
X100680966Y-50705764D01*
X100720000Y-50698000D01*
X103120000Y-50698000D01*
X103159034Y-50705764D01*
G37*
G36*
X107303946Y-50733974D02*
G01*
X107498254Y-50797109D01*
X107680293Y-50889863D01*
X107845581Y-51009951D01*
X107990049Y-51154419D01*
X108110137Y-51319707D01*
X108202891Y-51501746D01*
X108266026Y-51696054D01*
X108297986Y-51897846D01*
X108297986Y-52102154D01*
X108266026Y-52303946D01*
X108202891Y-52498254D01*
X108110137Y-52680293D01*
X107990049Y-52845581D01*
X107845581Y-52990049D01*
X107680293Y-53110137D01*
X107498254Y-53202891D01*
X107303946Y-53266026D01*
X107102154Y-53297986D01*
X106897846Y-53297986D01*
X106696054Y-53266026D01*
X106501746Y-53202891D01*
X106319707Y-53110137D01*
X106154419Y-52990049D01*
X106009951Y-52845581D01*
X105889863Y-52680293D01*
X105797109Y-52498254D01*
X105733974Y-52303946D01*
X105702014Y-52102154D01*
X105702014Y-51897846D01*
X105733974Y-51696054D01*
X105797109Y-51501746D01*
X105889863Y-51319707D01*
X106009951Y-51154419D01*
X106154419Y-51009951D01*
X106319707Y-50889863D01*
X106501746Y-50797109D01*
X106696054Y-50733974D01*
X106897846Y-50702014D01*
X107102154Y-50702014D01*
X107303946Y-50733974D01*
G37*
G36*
X129168254Y-46305034D02*
G01*
X129179425Y-46305034D01*
X129257008Y-46313775D01*
X129469527Y-46334707D01*
X129504477Y-46341658D01*
X129536020Y-46345213D01*
X129628748Y-46366377D01*
X129777521Y-46395970D01*
X129835630Y-46413597D01*
X129885874Y-46425065D01*
X129966903Y-46453418D01*
X130078017Y-46487124D01*
X130158482Y-46520454D01*
X130224587Y-46543585D01*
X130287694Y-46573976D01*
X130368152Y-46607303D01*
X130470533Y-46662026D01*
X130547900Y-46699285D01*
X130591547Y-46726710D01*
X130645087Y-46755328D01*
X130771194Y-46839590D01*
X130851748Y-46890205D01*
X130876565Y-46909996D01*
X130906192Y-46929792D01*
X131071284Y-47065279D01*
X131132309Y-47113945D01*
X131140205Y-47121841D01*
X131148938Y-47129008D01*
X131370991Y-47351061D01*
X131378157Y-47359793D01*
X131386055Y-47367691D01*
X131434726Y-47428723D01*
X131570207Y-47593807D01*
X131590001Y-47623431D01*
X131609795Y-47648252D01*
X131660415Y-47728813D01*
X131744671Y-47854912D01*
X131773286Y-47908447D01*
X131800715Y-47952100D01*
X131837977Y-48029475D01*
X131892696Y-48131847D01*
X131926019Y-48212296D01*
X131956415Y-48275413D01*
X131979549Y-48341527D01*
X132012875Y-48421982D01*
X132046576Y-48533081D01*
X132074935Y-48614126D01*
X132086404Y-48664378D01*
X132104029Y-48722478D01*
X132133616Y-48871224D01*
X132154787Y-48963980D01*
X132158342Y-48995531D01*
X132165292Y-49030472D01*
X132186222Y-49242975D01*
X132194966Y-49320575D01*
X132194966Y-49331745D01*
X132196073Y-49342985D01*
X132196073Y-49657014D01*
X132194966Y-49668253D01*
X132194966Y-49679425D01*
X132186221Y-49757031D01*
X132165292Y-49969527D01*
X132158342Y-50004465D01*
X132154787Y-50036020D01*
X132133614Y-50128782D01*
X132104029Y-50277521D01*
X132086405Y-50335617D01*
X132074935Y-50385874D01*
X132046574Y-50466925D01*
X132012875Y-50578017D01*
X131979551Y-50658466D01*
X131956415Y-50724587D01*
X131926016Y-50787709D01*
X131892696Y-50868152D01*
X131837982Y-50970514D01*
X131800715Y-51047900D01*
X131773282Y-51091558D01*
X131744671Y-51145087D01*
X131660425Y-51271169D01*
X131609795Y-51351748D01*
X131589997Y-51376573D01*
X131570207Y-51406192D01*
X131434755Y-51571241D01*
X131386055Y-51632309D01*
X131378153Y-51640210D01*
X131370991Y-51648938D01*
X131148938Y-51870991D01*
X131140210Y-51878153D01*
X131132309Y-51886055D01*
X131071241Y-51934755D01*
X130906192Y-52070207D01*
X130876573Y-52089997D01*
X130851748Y-52109795D01*
X130771169Y-52160425D01*
X130645087Y-52244671D01*
X130591558Y-52273282D01*
X130547900Y-52300715D01*
X130470514Y-52337982D01*
X130368152Y-52392696D01*
X130287709Y-52426016D01*
X130224587Y-52456415D01*
X130158466Y-52479551D01*
X130078017Y-52512875D01*
X129966925Y-52546574D01*
X129885874Y-52574935D01*
X129835617Y-52586405D01*
X129777521Y-52604029D01*
X129628782Y-52633614D01*
X129536020Y-52654787D01*
X129504465Y-52658342D01*
X129469527Y-52665292D01*
X129257031Y-52686221D01*
X129179425Y-52694966D01*
X129168253Y-52694966D01*
X129157014Y-52696073D01*
X128842986Y-52696073D01*
X128831747Y-52694966D01*
X128820575Y-52694966D01*
X128742971Y-52686222D01*
X128530472Y-52665292D01*
X128495531Y-52658342D01*
X128463980Y-52654787D01*
X128371224Y-52633616D01*
X128222478Y-52604029D01*
X128164378Y-52586404D01*
X128114126Y-52574935D01*
X128033081Y-52546576D01*
X127921982Y-52512875D01*
X127841527Y-52479549D01*
X127775413Y-52456415D01*
X127712296Y-52426019D01*
X127631847Y-52392696D01*
X127529475Y-52337977D01*
X127452100Y-52300715D01*
X127408447Y-52273286D01*
X127354912Y-52244671D01*
X127228813Y-52160415D01*
X127148252Y-52109795D01*
X127123431Y-52090001D01*
X127093807Y-52070207D01*
X126928723Y-51934726D01*
X126867691Y-51886055D01*
X126859793Y-51878157D01*
X126851061Y-51870991D01*
X126629008Y-51648938D01*
X126621841Y-51640205D01*
X126613945Y-51632309D01*
X126565279Y-51571284D01*
X126429792Y-51406192D01*
X126409996Y-51376565D01*
X126390205Y-51351748D01*
X126339590Y-51271194D01*
X126255328Y-51145087D01*
X126226710Y-51091547D01*
X126199285Y-51047900D01*
X126162026Y-50970533D01*
X126107303Y-50868152D01*
X126073976Y-50787694D01*
X126043585Y-50724587D01*
X126020454Y-50658482D01*
X125987124Y-50578017D01*
X125953418Y-50466903D01*
X125925065Y-50385874D01*
X125913597Y-50335630D01*
X125895970Y-50277521D01*
X125866377Y-50128748D01*
X125845213Y-50036020D01*
X125841658Y-50004477D01*
X125834707Y-49969527D01*
X125813775Y-49757008D01*
X125805034Y-49679425D01*
X125805034Y-49668253D01*
X125803927Y-49657014D01*
X125803927Y-49342985D01*
X125805034Y-49331745D01*
X125805034Y-49320575D01*
X125813774Y-49242998D01*
X125834707Y-49030472D01*
X125841659Y-48995520D01*
X125845213Y-48963980D01*
X125866376Y-48871258D01*
X125895970Y-48722478D01*
X125913598Y-48664365D01*
X125925065Y-48614126D01*
X125953416Y-48533102D01*
X125987124Y-48421982D01*
X126020456Y-48341511D01*
X126043585Y-48275413D01*
X126073973Y-48212311D01*
X126107303Y-48131847D01*
X126162031Y-48029456D01*
X126199285Y-47952100D01*
X126226707Y-47908457D01*
X126255328Y-47854912D01*
X126339600Y-47728788D01*
X126390205Y-47648252D01*
X126409992Y-47623439D01*
X126429792Y-47593807D01*
X126565307Y-47428680D01*
X126613945Y-47367691D01*
X126621836Y-47359799D01*
X126629008Y-47351061D01*
X126851061Y-47129008D01*
X126859799Y-47121836D01*
X126867691Y-47113945D01*
X126928680Y-47065307D01*
X127093807Y-46929792D01*
X127123439Y-46909992D01*
X127148252Y-46890205D01*
X127228788Y-46839600D01*
X127354912Y-46755328D01*
X127408457Y-46726707D01*
X127452100Y-46699285D01*
X127529456Y-46662031D01*
X127631847Y-46607303D01*
X127712311Y-46573973D01*
X127775413Y-46543585D01*
X127841511Y-46520456D01*
X127921982Y-46487124D01*
X128033102Y-46453416D01*
X128114126Y-46425065D01*
X128164365Y-46413598D01*
X128222478Y-46395970D01*
X128371258Y-46366376D01*
X128463980Y-46345213D01*
X128495520Y-46341659D01*
X128530472Y-46334707D01*
X128742993Y-46313775D01*
X128820575Y-46305034D01*
X128831746Y-46305034D01*
X128842986Y-46303927D01*
X129157014Y-46303927D01*
X129168254Y-46305034D01*
G37*
G36*
X159168254Y-46305034D02*
G01*
X159179425Y-46305034D01*
X159257008Y-46313775D01*
X159469527Y-46334707D01*
X159504477Y-46341658D01*
X159536020Y-46345213D01*
X159628748Y-46366377D01*
X159777521Y-46395970D01*
X159835630Y-46413597D01*
X159885874Y-46425065D01*
X159966903Y-46453418D01*
X160078017Y-46487124D01*
X160158482Y-46520454D01*
X160224587Y-46543585D01*
X160287694Y-46573976D01*
X160368152Y-46607303D01*
X160470533Y-46662026D01*
X160547900Y-46699285D01*
X160591547Y-46726710D01*
X160645087Y-46755328D01*
X160771194Y-46839590D01*
X160851748Y-46890205D01*
X160876565Y-46909996D01*
X160906192Y-46929792D01*
X161071284Y-47065279D01*
X161132309Y-47113945D01*
X161140205Y-47121841D01*
X161148938Y-47129008D01*
X161370991Y-47351061D01*
X161378157Y-47359793D01*
X161386055Y-47367691D01*
X161434726Y-47428723D01*
X161570207Y-47593807D01*
X161590001Y-47623431D01*
X161609795Y-47648252D01*
X161660415Y-47728813D01*
X161744671Y-47854912D01*
X161773286Y-47908447D01*
X161800715Y-47952100D01*
X161837977Y-48029475D01*
X161892696Y-48131847D01*
X161926019Y-48212296D01*
X161956415Y-48275413D01*
X161979549Y-48341527D01*
X162012875Y-48421982D01*
X162046576Y-48533081D01*
X162074935Y-48614126D01*
X162086404Y-48664378D01*
X162104029Y-48722478D01*
X162133616Y-48871224D01*
X162154787Y-48963980D01*
X162158342Y-48995531D01*
X162165292Y-49030472D01*
X162186222Y-49242975D01*
X162194966Y-49320575D01*
X162194966Y-49331745D01*
X162196073Y-49342985D01*
X162196073Y-49657014D01*
X162194966Y-49668253D01*
X162194966Y-49679425D01*
X162186221Y-49757031D01*
X162165292Y-49969527D01*
X162158342Y-50004465D01*
X162154787Y-50036020D01*
X162133614Y-50128782D01*
X162104029Y-50277521D01*
X162086405Y-50335617D01*
X162074935Y-50385874D01*
X162046574Y-50466925D01*
X162012875Y-50578017D01*
X161979551Y-50658466D01*
X161956415Y-50724587D01*
X161926016Y-50787709D01*
X161892696Y-50868152D01*
X161837982Y-50970514D01*
X161800715Y-51047900D01*
X161773282Y-51091558D01*
X161744671Y-51145087D01*
X161660425Y-51271169D01*
X161609795Y-51351748D01*
X161589997Y-51376573D01*
X161570207Y-51406192D01*
X161434755Y-51571241D01*
X161386055Y-51632309D01*
X161378153Y-51640210D01*
X161370991Y-51648938D01*
X161148938Y-51870991D01*
X161140210Y-51878153D01*
X161132309Y-51886055D01*
X161071241Y-51934755D01*
X160906192Y-52070207D01*
X160876573Y-52089997D01*
X160851748Y-52109795D01*
X160771169Y-52160425D01*
X160645087Y-52244671D01*
X160591558Y-52273282D01*
X160547900Y-52300715D01*
X160470514Y-52337982D01*
X160368152Y-52392696D01*
X160287709Y-52426016D01*
X160224587Y-52456415D01*
X160158466Y-52479551D01*
X160078017Y-52512875D01*
X159966925Y-52546574D01*
X159885874Y-52574935D01*
X159835617Y-52586405D01*
X159777521Y-52604029D01*
X159628782Y-52633614D01*
X159536020Y-52654787D01*
X159504465Y-52658342D01*
X159469527Y-52665292D01*
X159257031Y-52686221D01*
X159179425Y-52694966D01*
X159168253Y-52694966D01*
X159157014Y-52696073D01*
X158842986Y-52696073D01*
X158831747Y-52694966D01*
X158820575Y-52694966D01*
X158742971Y-52686222D01*
X158530472Y-52665292D01*
X158495531Y-52658342D01*
X158463980Y-52654787D01*
X158371224Y-52633616D01*
X158222478Y-52604029D01*
X158164378Y-52586404D01*
X158114126Y-52574935D01*
X158033081Y-52546576D01*
X157921982Y-52512875D01*
X157841527Y-52479549D01*
X157775413Y-52456415D01*
X157712296Y-52426019D01*
X157631847Y-52392696D01*
X157529475Y-52337977D01*
X157452100Y-52300715D01*
X157408447Y-52273286D01*
X157354912Y-52244671D01*
X157228813Y-52160415D01*
X157148252Y-52109795D01*
X157123431Y-52090001D01*
X157093807Y-52070207D01*
X156928723Y-51934726D01*
X156867691Y-51886055D01*
X156859793Y-51878157D01*
X156851061Y-51870991D01*
X156629008Y-51648938D01*
X156621841Y-51640205D01*
X156613945Y-51632309D01*
X156565279Y-51571284D01*
X156429792Y-51406192D01*
X156409996Y-51376565D01*
X156390205Y-51351748D01*
X156339590Y-51271194D01*
X156255328Y-51145087D01*
X156226710Y-51091547D01*
X156199285Y-51047900D01*
X156162026Y-50970533D01*
X156107303Y-50868152D01*
X156073976Y-50787694D01*
X156043585Y-50724587D01*
X156020454Y-50658482D01*
X155987124Y-50578017D01*
X155953418Y-50466903D01*
X155925065Y-50385874D01*
X155913597Y-50335630D01*
X155895970Y-50277521D01*
X155866377Y-50128748D01*
X155845213Y-50036020D01*
X155841658Y-50004477D01*
X155834707Y-49969527D01*
X155813775Y-49757008D01*
X155805034Y-49679425D01*
X155805034Y-49668253D01*
X155803927Y-49657014D01*
X155803927Y-49342985D01*
X155805034Y-49331745D01*
X155805034Y-49320575D01*
X155813774Y-49242998D01*
X155834707Y-49030472D01*
X155841659Y-48995520D01*
X155845213Y-48963980D01*
X155866376Y-48871258D01*
X155895970Y-48722478D01*
X155913598Y-48664365D01*
X155925065Y-48614126D01*
X155953416Y-48533102D01*
X155987124Y-48421982D01*
X156020456Y-48341511D01*
X156043585Y-48275413D01*
X156073973Y-48212311D01*
X156107303Y-48131847D01*
X156162031Y-48029456D01*
X156199285Y-47952100D01*
X156226707Y-47908457D01*
X156255328Y-47854912D01*
X156339600Y-47728788D01*
X156390205Y-47648252D01*
X156409992Y-47623439D01*
X156429792Y-47593807D01*
X156565307Y-47428680D01*
X156613945Y-47367691D01*
X156621836Y-47359799D01*
X156629008Y-47351061D01*
X156851061Y-47129008D01*
X156859799Y-47121836D01*
X156867691Y-47113945D01*
X156928680Y-47065307D01*
X157093807Y-46929792D01*
X157123439Y-46909992D01*
X157148252Y-46890205D01*
X157228788Y-46839600D01*
X157354912Y-46755328D01*
X157408457Y-46726707D01*
X157452100Y-46699285D01*
X157529456Y-46662031D01*
X157631847Y-46607303D01*
X157712311Y-46573973D01*
X157775413Y-46543585D01*
X157841511Y-46520456D01*
X157921982Y-46487124D01*
X158033102Y-46453416D01*
X158114126Y-46425065D01*
X158164365Y-46413598D01*
X158222478Y-46395970D01*
X158371258Y-46366376D01*
X158463980Y-46345213D01*
X158495520Y-46341659D01*
X158530472Y-46334707D01*
X158742993Y-46313775D01*
X158820575Y-46305034D01*
X158831746Y-46305034D01*
X158842986Y-46303927D01*
X159157014Y-46303927D01*
X159168254Y-46305034D01*
G37*
G36*
X147820806Y-49813204D02*
G01*
X147977287Y-49878020D01*
X148118116Y-49972119D01*
X148237881Y-50091884D01*
X148331980Y-50232713D01*
X148396796Y-50389194D01*
X148429840Y-50555313D01*
X148429840Y-50724687D01*
X148396796Y-50890806D01*
X148331980Y-51047287D01*
X148237881Y-51188116D01*
X148118116Y-51307881D01*
X147977287Y-51401980D01*
X147820806Y-51466796D01*
X147654687Y-51499840D01*
X147485313Y-51499840D01*
X147319194Y-51466796D01*
X147162713Y-51401980D01*
X147021884Y-51307881D01*
X146902119Y-51188116D01*
X146808020Y-51047287D01*
X146743204Y-50890806D01*
X146710160Y-50724687D01*
X146710160Y-50555313D01*
X146743204Y-50389194D01*
X146808020Y-50232713D01*
X146902119Y-50091884D01*
X147021884Y-49972119D01*
X147162713Y-49878020D01*
X147319194Y-49813204D01*
X147485313Y-49780160D01*
X147654687Y-49780160D01*
X147820806Y-49813204D01*
G37*
G36*
X170680806Y-49813204D02*
G01*
X170837287Y-49878020D01*
X170978116Y-49972119D01*
X171097881Y-50091884D01*
X171191980Y-50232713D01*
X171256796Y-50389194D01*
X171289840Y-50555313D01*
X171289840Y-50724687D01*
X171256796Y-50890806D01*
X171191980Y-51047287D01*
X171097881Y-51188116D01*
X170978116Y-51307881D01*
X170837287Y-51401980D01*
X170680806Y-51466796D01*
X170514687Y-51499840D01*
X170345313Y-51499840D01*
X170179194Y-51466796D01*
X170022713Y-51401980D01*
X169881884Y-51307881D01*
X169762119Y-51188116D01*
X169668020Y-51047287D01*
X169603204Y-50890806D01*
X169570160Y-50724687D01*
X169570160Y-50555313D01*
X169603204Y-50389194D01*
X169668020Y-50232713D01*
X169762119Y-50091884D01*
X169881884Y-49972119D01*
X170022713Y-49878020D01*
X170179194Y-49813204D01*
X170345313Y-49780160D01*
X170514687Y-49780160D01*
X170680806Y-49813204D01*
G37*
G36*
X179150000Y-50850000D02*
G01*
X177450000Y-50850000D01*
X177450000Y-49150000D01*
X179150000Y-49150000D01*
X179150000Y-50850000D01*
G37*
G36*
X181086742Y-49186601D02*
G01*
X181240687Y-49250367D01*
X181379234Y-49342941D01*
X181497059Y-49460766D01*
X181589633Y-49599313D01*
X181653399Y-49753258D01*
X181685907Y-49916685D01*
X181685907Y-50083315D01*
X181653399Y-50246742D01*
X181589633Y-50400687D01*
X181497059Y-50539234D01*
X181379234Y-50657059D01*
X181240687Y-50749633D01*
X181086742Y-50813399D01*
X180923315Y-50845907D01*
X180756685Y-50845907D01*
X180593258Y-50813399D01*
X180439313Y-50749633D01*
X180300766Y-50657059D01*
X180182941Y-50539234D01*
X180090367Y-50400687D01*
X180026601Y-50246742D01*
X179994093Y-50083315D01*
X179994093Y-49916685D01*
X180026601Y-49753258D01*
X180090367Y-49599313D01*
X180182941Y-49460766D01*
X180300766Y-49342941D01*
X180439313Y-49250367D01*
X180593258Y-49186601D01*
X180756685Y-49154093D01*
X180923315Y-49154093D01*
X181086742Y-49186601D01*
G37*
G36*
X183626742Y-49186601D02*
G01*
X183780687Y-49250367D01*
X183919234Y-49342941D01*
X184037059Y-49460766D01*
X184129633Y-49599313D01*
X184193399Y-49753258D01*
X184225907Y-49916685D01*
X184225907Y-50083315D01*
X184193399Y-50246742D01*
X184129633Y-50400687D01*
X184037059Y-50539234D01*
X183919234Y-50657059D01*
X183780687Y-50749633D01*
X183626742Y-50813399D01*
X183463315Y-50845907D01*
X183296685Y-50845907D01*
X183133258Y-50813399D01*
X182979313Y-50749633D01*
X182840766Y-50657059D01*
X182722941Y-50539234D01*
X182630367Y-50400687D01*
X182566601Y-50246742D01*
X182534093Y-50083315D01*
X182534093Y-49916685D01*
X182566601Y-49753258D01*
X182630367Y-49599313D01*
X182722941Y-49460766D01*
X182840766Y-49342941D01*
X182979313Y-49250367D01*
X183133258Y-49186601D01*
X183296685Y-49154093D01*
X183463315Y-49154093D01*
X183626742Y-49186601D01*
G37*
G36*
X186166742Y-49186601D02*
G01*
X186320687Y-49250367D01*
X186459234Y-49342941D01*
X186577059Y-49460766D01*
X186669633Y-49599313D01*
X186733399Y-49753258D01*
X186765907Y-49916685D01*
X186765907Y-50083315D01*
X186733399Y-50246742D01*
X186669633Y-50400687D01*
X186577059Y-50539234D01*
X186459234Y-50657059D01*
X186320687Y-50749633D01*
X186166742Y-50813399D01*
X186003315Y-50845907D01*
X185836685Y-50845907D01*
X185673258Y-50813399D01*
X185519313Y-50749633D01*
X185380766Y-50657059D01*
X185262941Y-50539234D01*
X185170367Y-50400687D01*
X185106601Y-50246742D01*
X185074093Y-50083315D01*
X185074093Y-49916685D01*
X185106601Y-49753258D01*
X185170367Y-49599313D01*
X185262941Y-49460766D01*
X185380766Y-49342941D01*
X185519313Y-49250367D01*
X185673258Y-49186601D01*
X185836685Y-49154093D01*
X186003315Y-49154093D01*
X186166742Y-49186601D01*
G37*
G36*
X188706742Y-49186601D02*
G01*
X188860687Y-49250367D01*
X188999234Y-49342941D01*
X189117059Y-49460766D01*
X189209633Y-49599313D01*
X189273399Y-49753258D01*
X189305907Y-49916685D01*
X189305907Y-50083315D01*
X189273399Y-50246742D01*
X189209633Y-50400687D01*
X189117059Y-50539234D01*
X188999234Y-50657059D01*
X188860687Y-50749633D01*
X188706742Y-50813399D01*
X188543315Y-50845907D01*
X188376685Y-50845907D01*
X188213258Y-50813399D01*
X188059313Y-50749633D01*
X187920766Y-50657059D01*
X187802941Y-50539234D01*
X187710367Y-50400687D01*
X187646601Y-50246742D01*
X187614093Y-50083315D01*
X187614093Y-49916685D01*
X187646601Y-49753258D01*
X187710367Y-49599313D01*
X187802941Y-49460766D01*
X187920766Y-49342941D01*
X188059313Y-49250367D01*
X188213258Y-49186601D01*
X188376685Y-49154093D01*
X188543315Y-49154093D01*
X188706742Y-49186601D01*
G37*
G36*
X191246742Y-49186601D02*
G01*
X191400687Y-49250367D01*
X191539234Y-49342941D01*
X191657059Y-49460766D01*
X191749633Y-49599313D01*
X191813399Y-49753258D01*
X191845907Y-49916685D01*
X191845907Y-50083315D01*
X191813399Y-50246742D01*
X191749633Y-50400687D01*
X191657059Y-50539234D01*
X191539234Y-50657059D01*
X191400687Y-50749633D01*
X191246742Y-50813399D01*
X191083315Y-50845907D01*
X190916685Y-50845907D01*
X190753258Y-50813399D01*
X190599313Y-50749633D01*
X190460766Y-50657059D01*
X190342941Y-50539234D01*
X190250367Y-50400687D01*
X190186601Y-50246742D01*
X190154093Y-50083315D01*
X190154093Y-49916685D01*
X190186601Y-49753258D01*
X190250367Y-49599313D01*
X190342941Y-49460766D01*
X190460766Y-49342941D01*
X190599313Y-49250367D01*
X190753258Y-49186601D01*
X190916685Y-49154093D01*
X191083315Y-49154093D01*
X191246742Y-49186601D01*
G37*
G36*
X193786742Y-49186601D02*
G01*
X193940687Y-49250367D01*
X194079234Y-49342941D01*
X194197059Y-49460766D01*
X194289633Y-49599313D01*
X194353399Y-49753258D01*
X194385907Y-49916685D01*
X194385907Y-50083315D01*
X194353399Y-50246742D01*
X194289633Y-50400687D01*
X194197059Y-50539234D01*
X194079234Y-50657059D01*
X193940687Y-50749633D01*
X193786742Y-50813399D01*
X193623315Y-50845907D01*
X193456685Y-50845907D01*
X193293258Y-50813399D01*
X193139313Y-50749633D01*
X193000766Y-50657059D01*
X192882941Y-50539234D01*
X192790367Y-50400687D01*
X192726601Y-50246742D01*
X192694093Y-50083315D01*
X192694093Y-49916685D01*
X192726601Y-49753258D01*
X192790367Y-49599313D01*
X192882941Y-49460766D01*
X193000766Y-49342941D01*
X193139313Y-49250367D01*
X193293258Y-49186601D01*
X193456685Y-49154093D01*
X193623315Y-49154093D01*
X193786742Y-49186601D01*
G37*
G36*
X196326742Y-49186601D02*
G01*
X196480687Y-49250367D01*
X196619234Y-49342941D01*
X196737059Y-49460766D01*
X196829633Y-49599313D01*
X196893399Y-49753258D01*
X196925907Y-49916685D01*
X196925907Y-50083315D01*
X196893399Y-50246742D01*
X196829633Y-50400687D01*
X196737059Y-50539234D01*
X196619234Y-50657059D01*
X196480687Y-50749633D01*
X196326742Y-50813399D01*
X196163315Y-50845907D01*
X195996685Y-50845907D01*
X195833258Y-50813399D01*
X195679313Y-50749633D01*
X195540766Y-50657059D01*
X195422941Y-50539234D01*
X195330367Y-50400687D01*
X195266601Y-50246742D01*
X195234093Y-50083315D01*
X195234093Y-49916685D01*
X195266601Y-49753258D01*
X195330367Y-49599313D01*
X195422941Y-49460766D01*
X195540766Y-49342941D01*
X195679313Y-49250367D01*
X195833258Y-49186601D01*
X195996685Y-49154093D01*
X196163315Y-49154093D01*
X196326742Y-49186601D01*
G37*
M02*
